<?xml version="1.0" encoding="utf-8"?>
<!-- Generator: Adobe Illustrator 14.0.0, SVG Export Plug-In . SVG Version: 6.00 Build 43363)  -->
<!DOCTYPE svg PUBLIC "-//W3C//DTD SVG 1.1//EN" "http://www.w3.org/Graphics/SVG/1.1/DTD/svg11.dtd">
<svg version="1.1" id="Livello_1" xmlns="http://www.w3.org/2000/svg" xmlns:xlink="http://www.w3.org/1999/xlink" x="0px" y="0px"
	 width="28.913px" height="28.914px" viewBox="0 0 28.913 28.914" enable-background="new 0 0 28.913 28.914" xml:space="preserve">
<rect x="0" fill="#FF66FF" width="28.913" height="28.914"/>
<path d="M6.741,0.663C6.714,2.284,5.574,3.556,4.159,3.596C2.742,3.635,1.577,2.338,1.521,0.707L0.789,0.745
	C0.925,2.771,2.435,4.41,4.149,4.363c1.8-0.035,3.243-1.695,3.275-3.701"/>
<path d="M9.578,8.193c-0.028,1.621-1.13,2.938-2.546,2.979c-1.453-0.007-2.618-1.305-2.676-2.936L3.663,8.322
	c0.136,2.025,1.607,3.616,3.359,3.618c1.801-0.035,3.243-1.696,3.238-3.748"/>
<path d="M17.618,0.663c-0.027,1.621-1.167,2.893-2.582,2.933c-1.417,0.039-2.582-1.258-2.64-2.889l-0.73,0.038
	c0.136,2.026,1.646,3.665,3.359,3.618c1.8-0.035,3.243-1.695,3.275-3.701"/>
<path d="M19.037,8.193c-0.028,1.621-1.13,2.938-2.546,2.979c-1.453-0.007-2.618-1.305-2.676-2.936l-0.693,0.086
	c0.136,2.025,1.607,3.616,3.359,3.618c1.801-0.035,3.243-1.696,3.238-3.748"/>
<path d="M6.741,15.302c-0.027,1.621-1.167,2.894-2.582,2.933c-1.417,0.039-2.582-1.258-2.64-2.889l-0.73,0.038
	c0.136,2.026,1.646,3.665,3.359,3.618c1.8-0.035,3.243-1.695,3.275-3.701"/>
<path d="M9.578,22.832c-0.028,1.621-1.13,2.938-2.546,2.979c-1.453-0.006-2.618-1.305-2.676-2.936l-0.693,0.086
	c0.136,2.025,1.607,3.616,3.359,3.618c1.801-0.035,3.243-1.696,3.238-3.748"/>
<path d="M16.2,15.303c-0.027,1.621-1.167,2.893-2.582,2.934c-1.417,0.039-2.582-1.258-2.64-2.889l-0.73,0.037
	c0.136,2.026,1.646,3.665,3.359,3.618c1.8-0.035,3.243-1.694,3.275-3.701"/>
<path d="M19.037,22.833c-0.028,1.621-1.13,2.938-2.546,2.979c-1.453-0.008-2.618-1.306-2.676-2.937l-0.693,0.086
	c0.136,2.024,1.607,3.616,3.359,3.618c1.801-0.035,3.243-1.696,3.238-3.748"/>
<path d="M24.254,15.303c-0.027,1.621-1.167,2.893-2.582,2.934c-1.417,0.039-2.582-1.258-2.639-2.889l-0.731,0.037
	c0.136,2.026,1.646,3.665,3.36,3.618c1.799-0.035,3.242-1.694,3.274-3.701"/>
<path d="M27.091,22.833c-0.028,1.621-1.13,2.938-2.546,2.979c-1.453-0.008-2.618-1.306-2.675-2.937l-0.694,0.086
	c0.136,2.024,1.608,3.616,3.36,3.618c1.8-0.035,3.242-1.696,3.237-3.748"/>
<path d="M27.109,0.663c-0.026,1.621-1.167,2.893-2.582,2.933c-1.417,0.039-2.582-1.258-2.639-2.889l-0.73,0.038
	c0.136,2.026,1.646,3.665,3.359,3.618c1.799-0.035,3.243-1.695,3.275-3.701"/>
<path d="M27.553,8.193c-0.028,1.621-1.13,2.938-2.546,2.979c-1.453-0.007-2.618-1.305-2.675-2.936l-0.694,0.086
	c0.136,2.025,1.608,3.616,3.36,3.618c1.8-0.035,3.243-1.696,3.237-3.748"/>
</svg>
