<?xml version="1.0" encoding="utf-8"?>
<!-- Generator: Adobe Illustrator 14.0.0, SVG Export Plug-In . SVG Version: 6.00 Build 43363)  -->
<!DOCTYPE svg PUBLIC "-//W3C//DTD SVG 1.1//EN" "http://www.w3.org/Graphics/SVG/1.1/DTD/svg11.dtd">
<svg version="1.1" id="Livello_1" xmlns="http://www.w3.org/2000/svg" xmlns:xlink="http://www.w3.org/1999/xlink" x="0px" y="0px"
	 width="6.782px" height="8.063px" viewBox="0 0 6.782 8.063" enable-background="new 0 0 6.782 8.063" xml:space="preserve">
<g>
	<path fill="#E53045" d="M3.397,1.531c0.806,0,1.502,0.265,2.086,0.795l0.323,0.393c0.47,0.578,0.706,1.219,0.706,1.924
		c0,0.805-0.267,1.5-0.801,2.084l1.091,1.096l-0.23,0.24L5.474,6.974C4.91,7.484,4.217,7.739,3.397,7.739
		c-0.8,0-1.489-0.262-2.067-0.786L0.252,8.031L0.004,7.795l1.084-1.084C0.558,6.121,0.292,5.43,0.292,4.639
		c0-0.852,0.265-1.539,0.796-2.062l0.282-0.292C1.889,1.782,2.564,1.531,3.397,1.531z M0.907,4.635c0,0.692,0.245,1.283,0.736,1.774
		c0.491,0.49,1.082,0.735,1.774,0.735c0.692,0,1.284-0.245,1.774-0.735c0.49-0.491,0.736-1.082,0.736-1.774
		c0-0.691-0.246-1.283-0.736-1.773C4.701,2.371,4.109,2.125,3.417,2.125c-0.692,0-1.284,0.245-1.774,0.736
		C1.152,3.352,0.907,3.943,0.907,4.635z M2.147,4.686c0-0.343,0.123-0.637,0.368-0.882s0.542-0.368,0.892-0.368
		c0.343,0,0.637,0.123,0.882,0.368c0.245,0.245,0.368,0.539,0.368,0.882c0,0.35-0.123,0.646-0.368,0.893
		C4.044,5.822,3.75,5.945,3.407,5.945c-0.35,0-0.647-0.123-0.892-0.367C2.27,5.332,2.147,5.035,2.147,4.686z M3.226,1.561v-1.562
		h0.333v1.562C3.451,1.561,3.34,1.561,3.226,1.561z"/>
</g>
</svg>
