<?xml version="1.0" encoding="utf-8"?>
<!-- Generator: Adobe Illustrator 14.0.0, SVG Export Plug-In . SVG Version: 6.00 Build 43363)  -->
<!DOCTYPE svg PUBLIC "-//W3C//DTD SVG 1.1//EN" "http://www.w3.org/Graphics/SVG/1.1/DTD/svg11.dtd">
<svg version="1.1" id="Livello_1" xmlns="http://www.w3.org/2000/svg" xmlns:xlink="http://www.w3.org/1999/xlink" x="0px" y="0px"
	 width="21.121px" height="13.993px" viewBox="0 0 21.121 13.993" enable-background="new 0 0 21.121 13.993" xml:space="preserve">
<line fill="none" stroke="#767885" stroke-width="0.48" stroke-miterlimit="10" x1="0.24" y1="7.616" x2="5.761" y2="2.337"/>
<line fill="none" stroke="#767885" stroke-width="0.48" stroke-miterlimit="10" x1="0" y1="13.856" x2="5.281" y2="8.576"/>
<line fill="none" stroke="#767885" stroke-width="0.48" stroke-miterlimit="10" x1="7.441" y1="6.416" x2="12.722" y2="1.137"/>
<line fill="none" stroke="#767885" stroke-width="0.48" stroke-miterlimit="10" x1="0.24" y1="19.137" x2="5.041" y2="14.817"/>
<line fill="none" stroke="#767885" stroke-width="0.48" stroke-miterlimit="10" x1="7.201" y1="12.656" x2="12.482" y2="7.377"/>
<line fill="none" stroke="#767885" stroke-width="0.48" stroke-miterlimit="10" x1="14.642" y1="5.217" x2="19.922" y2="-0.062"/>
<line fill="none" stroke="#767885" stroke-width="0.48" stroke-miterlimit="10" x1="0" y1="25.615" x2="5.281" y2="20.096"/>
<line fill="none" stroke="#767885" stroke-width="0.48" stroke-miterlimit="10" x1="7.441" y1="18.176" x2="12.241" y2="13.856"/>
<line fill="none" stroke="#767885" stroke-width="0.48" stroke-miterlimit="10" x1="14.402" y1="11.697" x2="19.682" y2="6.416"/>
<line fill="none" stroke="#767885" stroke-width="0.48" stroke-miterlimit="10" x1="21.842" y1="4.257" x2="27.603" y2="-1.981"/>
<line fill="none" stroke="#767885" stroke-width="0.48" stroke-miterlimit="10" x1="1.44" y1="29.936" x2="5.04" y2="26.576"/>
<line fill="none" stroke="#767885" stroke-width="0.48" stroke-miterlimit="10" x1="7.2" y1="24.416" x2="12.481" y2="19.137"/>
<line fill="none" stroke="#767885" stroke-width="0.48" stroke-miterlimit="10" x1="14.641" y1="16.977" x2="19.443" y2="12.656"/>
<line fill="none" stroke="#767885" stroke-width="0.48" stroke-miterlimit="10" x1="21.603" y1="10.496" x2="27.363" y2="4.258"/>
<line fill="none" stroke="#767885" stroke-width="0.48" stroke-miterlimit="10" x1="7.441" y1="29.936" x2="12.24" y2="25.375"/>
<line fill="none" stroke="#767885" stroke-width="0.48" stroke-miterlimit="10" x1="14.401" y1="23.216" x2="19.682" y2="17.937"/>
<line fill="none" stroke="#767885" stroke-width="0.48" stroke-miterlimit="10" x1="21.123" y1="16.736" x2="26.643" y2="11.456"/>
<line fill="none" stroke="#767885" stroke-width="0.48" stroke-miterlimit="10" x1="29.042" y1="8.338" x2="34.564" y2="3.058"/>
<line fill="none" stroke="#767885" stroke-width="0.48" stroke-miterlimit="10" x1="13.921" y1="29.455" x2="19.202" y2="24.176"/>
<line fill="none" stroke="#767885" stroke-width="0.48" stroke-miterlimit="10" x1="21.363" y1="22.016" x2="26.642" y2="16.737"/>
<line fill="none" stroke="#767885" stroke-width="0.48" stroke-miterlimit="10" x1="28.803" y1="14.576" x2="34.083" y2="9.297"/>
<line fill="none" stroke="#767885" stroke-width="0.48" stroke-miterlimit="10" x1="36.243" y1="7.377" x2="41.525" y2="1.858"/>
<line fill="none" stroke="#767885" stroke-width="0.48" stroke-miterlimit="10" x1="21.122" y1="28.495" x2="26.403" y2="23.216"/>
<line fill="none" stroke="#767885" stroke-width="0.48" stroke-miterlimit="10" x1="28.563" y1="21.057" x2="33.843" y2="15.777"/>
<line fill="none" stroke="#767885" stroke-width="0.48" stroke-miterlimit="10" x1="36.003" y1="13.617" x2="41.284" y2="8.338"/>
<line fill="none" stroke="#767885" stroke-width="0.48" stroke-miterlimit="10" x1="43.445" y1="6.178" x2="48.725" y2="0.899"/>
<line fill="none" stroke="#767885" stroke-width="0.48" stroke-miterlimit="10" x1="25.443" y1="29.936" x2="26.162" y2="29.455"/>
<line fill="none" stroke="#767885" stroke-width="0.48" stroke-miterlimit="10" x1="28.323" y1="27.295" x2="33.603" y2="22.016"/>
<line fill="none" stroke="#767885" stroke-width="0.48" stroke-miterlimit="10" x1="35.763" y1="19.857" x2="41.044" y2="14.576"/>
<line fill="none" stroke="#767885" stroke-width="0.48" stroke-miterlimit="10" x1="43.204" y1="12.417" x2="48.485" y2="7.138"/>
<line fill="none" stroke="#767885" stroke-width="0.48" stroke-miterlimit="10" x1="31.443" y1="29.936" x2="33.363" y2="28.256"/>
<line fill="none" stroke="#767885" stroke-width="0.48" stroke-miterlimit="10" x1="35.524" y1="26.096" x2="40.804" y2="20.817"/>
<line fill="none" stroke="#767885" stroke-width="0.48" stroke-miterlimit="10" x1="42.964" y1="18.656" x2="48.245" y2="13.377"/>
<line fill="none" stroke="#767885" stroke-width="0.48" stroke-miterlimit="10" x1="50.406" y1="11.217" x2="55.685" y2="5.938"/>
<line fill="none" stroke="#767885" stroke-width="0.48" stroke-miterlimit="10" x1="37.684" y1="29.936" x2="40.564" y2="27.056"/>
<line fill="none" stroke="#767885" stroke-width="0.48" stroke-miterlimit="10" x1="42.724" y1="24.896" x2="48.005" y2="19.616"/>
<line fill="none" stroke="#767885" stroke-width="0.48" stroke-miterlimit="10" x1="49.925" y1="17.697" x2="55.446" y2="12.177"/>
<line fill="none" stroke="#767885" stroke-width="0.48" stroke-miterlimit="10" x1="43.685" y1="29.936" x2="47.525" y2="26.096"/>
<line fill="none" stroke="#767885" stroke-width="0.48" stroke-miterlimit="10" x1="49.685" y1="23.936" x2="54.966" y2="18.656"/>
<line fill="none" stroke="#767885" stroke-width="0.48" stroke-miterlimit="10" x1="49.685" y1="29.936" x2="54.726" y2="24.896"/>
</svg>
