<?xml version="1.0" encoding="UTF-8" standalone="no"?>
<!-- Generator: Adobe Illustrator 14.0.0, SVG Export Plug-In . SVG Version: 6.00 Build 43363)  -->

<svg
   xmlns:dc="http://purl.org/dc/elements/1.1/"
   xmlns:cc="http://creativecommons.org/ns#"
   xmlns:rdf="http://www.w3.org/1999/02/22-rdf-syntax-ns#"
   xmlns:svg="http://www.w3.org/2000/svg"
   xmlns="http://www.w3.org/2000/svg"
   xmlns:sodipodi="http://sodipodi.sourceforge.net/DTD/sodipodi-0.dtd"
   xmlns:inkscape="http://www.inkscape.org/namespaces/inkscape"
   version="1.1"
   id="Livello_1"
   sodipodi:docname="cgt_3150-9.svg"
   inkscape:version="0.48.5 r10040"
   x="0px"
   y="0px"
   width="15.368921"
   height="6.8197293"
   viewBox="0 3.065 15.368921 6.8197293"
   enable-background="new 0 3.065 15.362 6.835"
   xml:space="preserve"><metadata
   id="metadata16"><rdf:RDF><cc:Work
       rdf:about=""><dc:format>image/svg+xml</dc:format><dc:type
         rdf:resource="http://purl.org/dc/dcmitype/StillImage" /></cc:Work></rdf:RDF></metadata><defs
   id="defs14">
	

	
</defs>
<sodipodi:namedview
   id="namedview3067"
   inkscape:window-maximized="1"
   bordercolor="#666666"
   inkscape:cy="-8.1350659"
   pagecolor="#ffffff"
   inkscape:cx="-8.601289"
   inkscape:zoom="10.24"
   guidetolerance="10"
   gridtolerance="10"
   objecttolerance="10"
   showguides="true"
   showgrid="true"
   borderopacity="1"
   inkscape:current-layer="Livello_1"
   inkscape:window-y="-4"
   inkscape:window-x="-4"
   inkscape:guide-bbox="true"
   inkscape:window-height="824"
   inkscape:window-width="1600"
   inkscape:pageshadow="2"
   inkscape:pageopacity="0"
   fit-margin-top="0"
   fit-margin-left="0"
   fit-margin-right="0"
   fit-margin-bottom="0">
	<inkscape:grid
   type="xygrid"
   id="grid6297"
   empspacing="1"
   visible="true"
   enabled="true"
   snapvisiblegridlinesonly="true"
   originx="-0.01007888px"
   originy="-0.0162109px" />
	<sodipodi:guide
   id="guide6299"
   position="7.3831859,8.1994149"
   orientation="1,0" />
	<sodipodi:guide
   id="guide6301"
   position="7.9899211,8.1275581"
   orientation="1,0" />
	<sodipodi:guide
   id="guide6303"
   position="2.4889404,7.480847"
   orientation="-0.70710678,0.70710678" />
	<sodipodi:guide
   id="guide6305"
   position="3.271381,6.8181678"
   orientation="0,1" />
</sodipodi:namedview>


<g
   id="g3763"
   transform="translate(-0.01007888,9.404e-4)"><path
     id="path3065"
     inkscape:connector-curvature="0"
     sodipodi:nodetypes="cccccccccccc"
     d="M 8.0060449,9.1995222 15.359011,9.1987628 15.374792,9.8837891 0.01279191,9.8582156 0.01007869,9.1992111 7.4040111,9.18552 7.631613,4.416899 7.674101,3.0659697 l 0.112,1.865e-4 0.1,1.665e-4 0.080677,0.6451343 0.039267,5.4880652 z" /><path
     id="path3075"
     inkscape:connector-curvature="0"
     sodipodi:nodetypes="cccccccccccc"
     d="M 8.0060449,9.1995222 15.359011,9.1987628 15.374792,9.8837891 0.01279191,9.8582156 0.01007869,9.1992111 7.4040111,9.18552 7.3767776,3.7104748 7.3920986,3.0645003 7.728096,3.0640596 l 0.271,4.512e-4 7.028e-4,0.6550011 0.00625,5.4800103 z" /><path
     style="fill:#000000;fill-opacity:1"
     d="M 7.135,9.863 C 4.369,9.858 1.635,9.852 1.06,9.851 L 0.014,9.849 V 9.531 9.214 L 1.492,9.203 C 2.305,9.198 3.968,9.193 5.189,9.193 h 2.22 L 7.397,6.312 C 7.391,4.727 7.391,3.349 7.397,3.25 l 0.01,-0.18 h 0.296 0.296 v 3.069 3.069 h 3.68 3.68 v 0.288 c 0,0.159 0.005,0.31 0.01,0.335 l 0.01,0.047 -1.607,-0.003 C 12.886,9.874 9.901,9.868 7.135,9.863 z"
     inkscape:connector-curvature="0"
     id="path6307" /></g>
</svg>