<?xml version="1.0" encoding="utf-8"?>
<!-- Generator: Adobe Illustrator 14.0.0, SVG Export Plug-In . SVG Version: 6.00 Build 43363)  -->
<!DOCTYPE svg PUBLIC "-//W3C//DTD SVG 1.1//EN" "http://www.w3.org/Graphics/SVG/1.1/DTD/svg11.dtd">
<svg version="1.1" id="Livello_1" xmlns="http://www.w3.org/2000/svg" xmlns:xlink="http://www.w3.org/1999/xlink" x="0px" y="0px"
	 width="6.266px" height="7.909px" viewBox="0 0 6.266 7.909" enable-background="new 0 0 6.266 7.909" xml:space="preserve">
<g>
	<path fill="#E53045" d="M1.501,1.862L0.227,2.535l-0.253-0.443c0.496-0.333,0.744-0.639,0.744-0.919
		c0-0.084-0.023-0.161-0.071-0.229L2.27,0.008l0.598,1.055L1.896,1.622l2.923,4.921c0.317,0.533,0.476,0.888,0.476,1.062
		c0,0.105-0.041,0.186-0.123,0.242C5.09,7.901,4.994,7.929,4.883,7.929s-0.225-0.07-0.34-0.213c-0.037-0.048-0.169-0.26-0.396-0.634
		C4.099,7.003,3.65,6.12,2.8,4.437L1.501,1.862z M4.265,1.601L3.402,1.07l0.602-1.022l1.624,0.927
		C5.617,1.022,5.611,1.078,5.611,1.142c0,0.396,0.222,0.711,0.665,0.944L5.95,2.673L4.702,1.924L3.308,4.522L1.755,7.146
		c-0.237,0.4-0.446,0.602-0.625,0.602c-0.053,0-0.106-0.016-0.159-0.047C0.796,7.589,0.709,7.46,0.709,7.312
		c0-0.132,0.079-0.304,0.238-0.515c0.206-0.274,0.414-0.57,0.625-0.888c0.422-0.617,0.863-1.304,1.322-2.059L4.265,1.601z"/>
</g>
</svg>
