<?xml version="1.0" encoding="utf-8"?>
<!-- Generator: Adobe Illustrator 14.0.0, SVG Export Plug-In . SVG Version: 6.00 Build 43363)  -->
<!DOCTYPE svg PUBLIC "-//W3C//DTD SVG 1.1//EN" "http://www.w3.org/Graphics/SVG/1.1/DTD/svg11.dtd">
<svg version="1.1" id="Livello_1" xmlns="http://www.w3.org/2000/svg" xmlns:xlink="http://www.w3.org/1999/xlink" x="0px" y="0px"
	 width="21.752px" height="20.816px" viewBox="0 0 21.752 20.816" enable-background="new 0 0 21.752 20.816" xml:space="preserve">
<path fill="none" stroke="#767885" stroke-width="0.48" stroke-miterlimit="10" d="M0,25.615"/>
<line fill="none" stroke="#767885" stroke-width="0.48" stroke-miterlimit="10" x1="1.44" y1="29.936" x2="5.04" y2="26.576"/>
<path fill="none" stroke="#767885" stroke-width="0.48" stroke-miterlimit="10" d="M7.2,24.416"/>
<line fill="none" stroke="#767885" stroke-width="0.48" stroke-miterlimit="10" x1="7.441" y1="29.936" x2="12.24" y2="25.375"/>
<path fill="none" stroke="#767885" stroke-width="0.48" stroke-miterlimit="10" d="M14.401,23.216"/>
<line fill="none" stroke="#767885" stroke-width="0.48" stroke-miterlimit="10" x1="13.921" y1="29.455" x2="19.202" y2="24.176"/>
<line fill="none" stroke="#767885" stroke-width="0.48" stroke-miterlimit="10" x1="21.122" y1="28.495" x2="26.403" y2="23.216"/>
<line fill="none" stroke="#767885" stroke-width="0.48" stroke-miterlimit="10" x1="25.443" y1="29.936" x2="26.162" y2="29.455"/>
<path fill="none" stroke="#767885" stroke-width="0.48" stroke-miterlimit="10" d="M31.443,29.936"/>
<path fill="none" stroke="#767885" stroke-width="0.48" stroke-miterlimit="10" d="M40.804,20.817"/>
<path fill="none" stroke="#767885" stroke-width="0.48" stroke-miterlimit="10" d="M42.964,18.656"/>
<path fill="none" stroke="#767885" stroke-width="0.48" stroke-miterlimit="10" d="M40.564,27.056"/>
<path fill="none" stroke="#767885" stroke-width="0.48" stroke-miterlimit="10" d="M37.684,29.936"/>
<line fill="none" stroke="#767885" stroke-width="0.48" stroke-miterlimit="10" x1="42.724" y1="24.896" x2="48.005" y2="19.616"/>
<path fill="none" stroke="#767885" stroke-width="0.48" stroke-miterlimit="10" d="M49.925,17.697"/>
<line fill="none" stroke="#767885" stroke-width="0.48" stroke-miterlimit="10" x1="43.685" y1="29.936" x2="47.525" y2="26.096"/>
<line fill="none" stroke="#767885" stroke-width="0.48" stroke-miterlimit="10" x1="49.685" y1="23.936" x2="54.966" y2="18.656"/>
<line fill="none" stroke="#767885" stroke-width="0.48" stroke-miterlimit="10" x1="49.685" y1="29.936" x2="54.726" y2="24.896"/>
<path fill="none" stroke="#767885" stroke-width="0" stroke-linecap="round" stroke-linejoin="round" stroke-miterlimit="10" d="
	M34.215-4.154"/>
<g>
	<path fill="#1A171B" d="M12.77,9.137l-3.631,3.647H3.685L0,9.155V3.665l3.685-3.647h5.437l3.648,3.647V9.137z M12.405,8.954V3.866
		L8.939,0.383H3.831L0.365,3.848v5.106l3.466,3.465h5.107L12.405,8.954z"/>
</g>
</svg>
