<?xml version="1.0" encoding="utf-8"?>
<!-- Generator: Adobe Illustrator 14.0.0, SVG Export Plug-In . SVG Version: 6.00 Build 43363)  -->
<!DOCTYPE svg PUBLIC "-//W3C//DTD SVG 1.1//EN" "http://www.w3.org/Graphics/SVG/1.1/DTD/svg11.dtd">
<svg version="1.1" id="Livello_1" xmlns="http://www.w3.org/2000/svg" xmlns:xlink="http://www.w3.org/1999/xlink" x="0px" y="0px"
	 width="6.782px" height="8.063px" viewBox="0 0 6.782 8.063" enable-background="new 0 0 6.782 8.063" xml:space="preserve">
<g>
	<path fill="#058AC7" d="M3.539,1.569C4.271,1.603,4.91,1.869,5.454,2.367L5.766,2.75c0.471,0.579,0.706,1.218,0.706,1.918
		c0,0.801-0.265,1.494-0.793,2.078L6.763,7.83l-0.23,0.24L5.444,6.982C4.879,7.492,4.19,7.748,3.377,7.748
		c-0.793,0-1.479-0.259-2.056-0.776L0.252,8.04l-0.24-0.229L1.09,6.731C0.559,6.146,0.292,5.455,0.292,4.66
		c0-0.848,0.262-1.535,0.786-2.061l0.292-0.283c0.464-0.464,1.075-0.714,1.834-0.748V0.007h0.333V1.569z M0.897,4.658
		c0,0.693,0.244,1.283,0.731,1.768s1.077,0.728,1.77,0.728c0.686,0,1.271-0.243,1.759-0.728s0.731-1.074,0.731-1.768
		c0-0.686-0.244-1.274-0.731-1.762C4.669,2.408,4.083,2.164,3.397,2.164c-0.692,0-1.282,0.244-1.77,0.732
		C1.141,3.384,0.897,3.973,0.897,4.658z M3.377,1.569L3.206,1.58l0.333-0.01H3.377z"/>
</g>
</svg>
