<?xml version="1.0" encoding="UTF-8" standalone="no"?>
<!-- Generator: Adobe Illustrator 14.0.0, SVG Export Plug-In . SVG Version: 6.00 Build 43363)  -->

<svg
   xmlns:dc="http://purl.org/dc/elements/1.1/"
   xmlns:cc="http://creativecommons.org/ns#"
   xmlns:rdf="http://www.w3.org/1999/02/22-rdf-syntax-ns#"
   xmlns:svg="http://www.w3.org/2000/svg"
   xmlns="http://www.w3.org/2000/svg"
   xmlns:sodipodi="http://sodipodi.sourceforge.net/DTD/sodipodi-0.dtd"
   xmlns:inkscape="http://www.inkscape.org/namespaces/inkscape"
   version="1.1"
   id="Livello_1"
   sodipodi:docname="rt_1075_caduta_massi.svg"
   inkscape:version="0.48.5 r10040"
   x="0px"
   y="0px"
   width="8.8062496"
   height="6.40625"
   viewBox="0.496 0 8.8062496 6.4062499"
   enable-background="new 0.496 0 4.673 15.743"
   xml:space="preserve"><metadata
   id="metadata11"><rdf:RDF><cc:Work
       rdf:about=""><dc:format>image/svg+xml</dc:format><dc:type
         rdf:resource="http://purl.org/dc/dcmitype/StillImage" /></cc:Work></rdf:RDF></metadata><defs
   id="defs9"><marker
   inkscape:stockid="Arrow2Lend"
   orient="auto"
   refY="0"
   refX="0"
   id="Arrow2Lend"
   style="overflow:visible"><path
     id="path3785"
     style="fill-rule:evenodd;stroke-width:0.625;stroke-linejoin:round"
     d="M 8.7185878,4.0337352 -2.2072895,0.01601326 8.7185884,-4.0017078 c -1.7454984,2.3720609 -1.7354408,5.6174519 -6e-7,8.035443 z"
     transform="matrix(-1.1,0,0,-1.1,-1.1,0)"
     inkscape:connector-curvature="0" /></marker><marker
   inkscape:stockid="Arrow2Mend"
   orient="auto"
   refY="0"
   refX="0"
   id="Arrow2Mend"
   style="overflow:visible"><path
     id="path3791"
     style="fill-rule:evenodd;stroke-width:0.625;stroke-linejoin:round"
     d="M 8.7185878,4.0337352 -2.2072895,0.01601326 8.7185884,-4.0017078 c -1.7454984,2.3720609 -1.7354408,5.6174519 -6e-7,8.035443 z"
     transform="scale(-0.6,-0.6)"
     inkscape:connector-curvature="0" /></marker><marker
   inkscape:stockid="Arrow1Lend"
   orient="auto"
   refY="0"
   refX="0"
   id="Arrow1Lend"
   style="overflow:visible"><path
     id="path3767"
     d="M 0,0 5,-5 -12.5,0 5,5 0,0 z"
     style="fill-rule:evenodd;stroke:#000000;stroke-width:1pt"
     transform="matrix(-0.8,0,0,-0.8,-10,0)"
     inkscape:connector-curvature="0" /></marker><marker
   inkscape:stockid="Arrow1Lstart"
   orient="auto"
   refY="0"
   refX="0"
   id="Arrow1Lstart"
   style="overflow:visible"><path
     id="path3764"
     d="M 0,0 5,-5 -12.5,0 5,5 0,0 z"
     style="fill-rule:evenodd;stroke:#000000;stroke-width:1pt"
     transform="matrix(0.8,0,0,0.8,10,0)"
     inkscape:connector-curvature="0" /></marker><marker
   inkscape:stockid="DotL"
   orient="auto"
   refY="0"
   refX="0"
   id="DotL"
   style="overflow:visible"><path
     id="path3825"
     d="m -2.5,-1 c 0,2.76 -2.24,5 -5,5 -2.76,0 -5,-2.24 -5,-5 0,-2.76 2.24,-5 5,-5 2.76,0 5,2.24 5,5 z"
     style="fill-rule:evenodd;stroke:#000000;stroke-width:1pt"
     transform="matrix(0.8,0,0,0.8,5.92,0.8)"
     inkscape:connector-curvature="0" /></marker>
	

	
</defs>
<sodipodi:namedview
   id="namedview4814"
   inkscape:window-maximized="1"
   bordercolor="#666666"
   inkscape:cy="2.2687968"
   pagecolor="#ffffff"
   inkscape:cx="-2.7908115"
   inkscape:zoom="36.682926"
   guidetolerance="10"
   gridtolerance="10"
   objecttolerance="10"
   showgrid="true"
   borderopacity="1"
   inkscape:current-layer="Livello_1"
   inkscape:window-y="-4"
   inkscape:window-x="-4"
   inkscape:window-height="824"
   inkscape:window-width="1600"
   inkscape:pageshadow="2"
   inkscape:pageopacity="0"
   fit-margin-top="0"
   fit-margin-left="0"
   fit-margin-right="0"
   fit-margin-bottom="0"
   inkscape:snap-nodes="false"
   inkscape:snap-bbox="true">
	<inkscape:grid
   type="xygrid"
   id="grid2988"
   empspacing="1"
   visible="true"
   enabled="true"
   snapvisiblegridlinesonly="true"
   originx="2.4124996px"
   originy="-4.8062501px" /></sodipodi:namedview>



<g
   id="g3883"
   transform="translate(12.7625,-1.0374998)"><path
     d="m -10.35,5.6500001 c 0,0.5522847 -0.447716,1 -1,1 -0.552285,0 -1,-0.4477153 -1,-1 0,-0.5522848 0.447715,-1 1,-1 0.552284,0 1,0.4477152 1,1 z"
     sodipodi:ry="1"
     sodipodi:rx="1"
     sodipodi:cy="5.6500001"
     sodipodi:cx="-11.35"
     id="path2998-0"
     style="fill:none;stroke:#d20000;stroke-width:0.40000001;stroke-linecap:butt;stroke-linejoin:round;stroke-miterlimit:4;stroke-opacity:1;stroke-dasharray:none"
     sodipodi:type="arc"
     transform="translate(3.4960003,0.59999976)" /><path
     d="m -10.35,5.6500001 c 0,0.5522847 -0.447716,1 -1,1 -0.552285,0 -1,-0.4477153 -1,-1 0,-0.5522848 0.447715,-1 1,-1 0.552284,0 1,0.4477152 1,1 z"
     sodipodi:ry="1"
     sodipodi:rx="1"
     sodipodi:cy="5.6500001"
     sodipodi:cx="-11.35"
     id="path2998-0-9"
     style="fill:none;stroke:#d20000;stroke-width:0.40000001;stroke-linecap:butt;stroke-linejoin:round;stroke-miterlimit:4;stroke-opacity:1;stroke-dasharray:none"
     sodipodi:type="arc"
     transform="translate(5.0960003,-1.4000002)" /><path
     d="m -10.35,5.6500001 c 0,0.5522847 -0.447716,1 -1,1 -0.552285,0 -1,-0.4477153 -1,-1 0,-0.5522848 0.447715,-1 1,-1 0.552284,0 1,0.4477152 1,1 z"
     sodipodi:ry="1"
     sodipodi:rx="1"
     sodipodi:cy="5.6500001"
     sodipodi:cx="-11.35"
     id="path2998-0-4"
     style="fill:none;stroke:#d20000;stroke-width:0.40000001;stroke-linecap:butt;stroke-linejoin:round;stroke-miterlimit:4;stroke-opacity:1;stroke-dasharray:none"
     sodipodi:type="arc"
     transform="translate(6.6960003,0.59999976)" /><path
     d="m -10.35,5.6500001 c 0,0.5522847 -0.447716,1 -1,1 -0.552285,0 -1,-0.4477153 -1,-1 0,-0.5522848 0.447715,-1 1,-1 0.552284,0 1,0.4477152 1,1 z"
     sodipodi:ry="1"
     sodipodi:rx="1"
     sodipodi:cy="5.6500001"
     sodipodi:cx="-11.35"
     id="path2998-0-8"
     style="fill:none;stroke:#d20000;stroke-width:0.40000001;stroke-linecap:butt;stroke-linejoin:round;stroke-miterlimit:4;stroke-opacity:1;stroke-dasharray:none"
     sodipodi:type="arc"
     transform="translate(1.8960003,-1.4000002)" /><path
     d="m -10.35,5.6500001 c 0,0.5522847 -0.447716,1 -1,1 -0.552285,0 -1,-0.4477153 -1,-1 0,-0.5522848 0.447715,-1 1,-1 0.552284,0 1,0.4477152 1,1 z"
     sodipodi:ry="1"
     sodipodi:rx="1"
     sodipodi:cy="5.6500001"
     sodipodi:cx="-11.35"
     id="path2998-0-82"
     style="fill:none;stroke:#d20000;stroke-width:0.40000001;stroke-linecap:butt;stroke-linejoin:round;stroke-miterlimit:4;stroke-opacity:1;stroke-dasharray:none"
     sodipodi:type="arc"
     transform="translate(0.2960003,0.59999976)" /><path
     d="m -10.35,5.6500001 c 0,0.5522847 -0.447716,1 -1,1 -0.552285,0 -1,-0.4477153 -1,-1 0,-0.5522848 0.447715,-1 1,-1 0.552284,0 1,0.4477152 1,1 z"
     sodipodi:ry="1"
     sodipodi:rx="1"
     sodipodi:cy="5.6500001"
     sodipodi:cx="-11.35"
     id="path2998-0-45"
     style="fill:none;stroke:#d20000;stroke-width:0.40000001;stroke-linecap:butt;stroke-linejoin:round;stroke-miterlimit:4;stroke-opacity:1;stroke-dasharray:none"
     sodipodi:type="arc"
     transform="translate(3.4960003,-3.4000002)" /></g></svg>