<?xml version="1.0" encoding="UTF-8" standalone="no"?>
<!-- Generator: Adobe Illustrator 14.0.0, SVG Export Plug-In . SVG Version: 6.00 Build 43363)  -->

<svg
   xmlns:dc="http://purl.org/dc/elements/1.1/"
   xmlns:cc="http://creativecommons.org/ns#"
   xmlns:rdf="http://www.w3.org/1999/02/22-rdf-syntax-ns#"
   xmlns:svg="http://www.w3.org/2000/svg"
   xmlns="http://www.w3.org/2000/svg"
   xmlns:sodipodi="http://sodipodi.sourceforge.net/DTD/sodipodi-0.dtd"
   xmlns:inkscape="http://www.inkscape.org/namespaces/inkscape"
   version="1.1"
   id="Livello_1"
   sodipodi:docname="cgt_3440-9.svg"
   inkscape:version="0.48.5 r10040"
   x="0px"
   y="0px"
   width="2.0999999"
   height="9"
   viewBox="0.496 0 2.0999999 8.9999999"
   enable-background="new 0.496 0 4.673 15.743"
   xml:space="preserve"><metadata
   id="metadata11"><rdf:RDF><cc:Work
       rdf:about=""><dc:format>image/svg+xml</dc:format><dc:type
         rdf:resource="http://purl.org/dc/dcmitype/StillImage" /></cc:Work></rdf:RDF></metadata><defs
   id="defs9"><marker
   inkscape:stockid="Arrow2Lend"
   orient="auto"
   refY="0"
   refX="0"
   id="Arrow2Lend"
   style="overflow:visible"><path
     id="path3785"
     style="fill-rule:evenodd;stroke-width:0.625;stroke-linejoin:round"
     d="M 8.7185878,4.0337352 -2.2072895,0.01601326 8.7185884,-4.0017078 c -1.7454984,2.3720609 -1.7354408,5.6174519 -6e-7,8.035443 z"
     transform="matrix(-1.1,0,0,-1.1,-1.1,0)"
     inkscape:connector-curvature="0" /></marker><marker
   inkscape:stockid="Arrow2Mend"
   orient="auto"
   refY="0"
   refX="0"
   id="Arrow2Mend"
   style="overflow:visible"><path
     id="path3791"
     style="fill-rule:evenodd;stroke-width:0.625;stroke-linejoin:round"
     d="M 8.7185878,4.0337352 -2.2072895,0.01601326 8.7185884,-4.0017078 c -1.7454984,2.3720609 -1.7354408,5.6174519 -6e-7,8.035443 z"
     transform="scale(-0.6,-0.6)"
     inkscape:connector-curvature="0" /></marker><marker
   inkscape:stockid="Arrow1Lend"
   orient="auto"
   refY="0"
   refX="0"
   id="Arrow1Lend"
   style="overflow:visible"><path
     id="path3767"
     d="M 0,0 5,-5 -12.5,0 5,5 0,0 z"
     style="fill-rule:evenodd;stroke:#000000;stroke-width:1pt"
     transform="matrix(-0.8,0,0,-0.8,-10,0)"
     inkscape:connector-curvature="0" /></marker><marker
   inkscape:stockid="Arrow1Lstart"
   orient="auto"
   refY="0"
   refX="0"
   id="Arrow1Lstart"
   style="overflow:visible"><path
     id="path3764"
     d="M 0,0 5,-5 -12.5,0 5,5 0,0 z"
     style="fill-rule:evenodd;stroke:#000000;stroke-width:1pt"
     transform="matrix(0.8,0,0,0.8,10,0)"
     inkscape:connector-curvature="0" /></marker><marker
   inkscape:stockid="DotL"
   orient="auto"
   refY="0"
   refX="0"
   id="DotL"
   style="overflow:visible"><path
     id="path3825"
     d="m -2.5,-1 c 0,2.76 -2.24,5 -5,5 -2.76,0 -5,-2.24 -5,-5 0,-2.76 2.24,-5 5,-5 2.76,0 5,2.24 5,5 z"
     style="fill-rule:evenodd;stroke:#000000;stroke-width:1pt"
     transform="matrix(0.8,0,0,0.8,5.92,0.8)"
     inkscape:connector-curvature="0" /></marker>
	

	
</defs>
<sodipodi:namedview
   id="namedview4814"
   inkscape:window-maximized="1"
   bordercolor="#666666"
   inkscape:cy="3.825047"
   pagecolor="#ffffff"
   inkscape:cx="-1.4600265"
   inkscape:zoom="45.953764"
   guidetolerance="10"
   gridtolerance="10"
   objecttolerance="10"
   showgrid="true"
   borderopacity="1"
   inkscape:current-layer="Livello_1"
   inkscape:window-y="-4"
   inkscape:window-x="-4"
   inkscape:window-height="824"
   inkscape:window-width="1600"
   inkscape:pageshadow="2"
   inkscape:pageopacity="0"
   fit-margin-top="0"
   fit-margin-left="0"
   fit-margin-right="0"
   fit-margin-bottom="0">
	<inkscape:grid
   type="xygrid"
   id="grid2988"
   empspacing="1"
   visible="true"
   enabled="true"
   snapvisiblegridlinesonly="true"
   originx="-1.1500001px"
   originy="-3.2499999px" /></sodipodi:namedview>



<g
   id="g3801"
   transform="translate(0.01164725,-0.01427141)"><path
     sodipodi:open="true"
     sodipodi:end="4.712389"
     sodipodi:start="1.5707963"
     transform="matrix(0.57142859,0,0,0.60714287,3.478143,-0.20870557)"
     d="m -3.4016327,3.5790206 c -0.7731987,0 -1.4,-0.6268013 -1.4000001,-1.3999999 0,-0.7731987 0.6268013,-1.40000001 1.4,-1.40000003 0,0 0,0 0,0"
     sodipodi:ry="1.4"
     sodipodi:rx="1.4"
     sodipodi:cy="2.1790206"
     sodipodi:cx="-3.4016328"
     id="path3014"
     style="fill:none;stroke:#004494;stroke-width:0.84887469;stroke-linecap:butt;stroke-linejoin:round;stroke-miterlimit:4;stroke-opacity:1;stroke-dasharray:none"
     sodipodi:type="arc" /><path
     sodipodi:open="true"
     sodipodi:end="4.712389"
     sodipodi:start="1.5707963"
     transform="matrix(0.57142859,0,0,0.60714287,3.478143,3.1912946)"
     d="m -3.4016327,3.5790206 c -0.7731987,0 -1.4,-0.6268013 -1.4000001,-1.3999999 0,-0.7731987 0.6268013,-1.40000001 1.4,-1.40000003 0,0 0,0 0,0"
     sodipodi:ry="1.4"
     sodipodi:rx="1.4"
     sodipodi:cy="2.1790206"
     sodipodi:cx="-3.4016328"
     id="path3014-9"
     style="fill:none;stroke:#004494;stroke-width:0.84887469;stroke-linecap:butt;stroke-linejoin:round;stroke-miterlimit:4;stroke-opacity:1;stroke-dasharray:none"
     sodipodi:type="arc" /><path
     sodipodi:open="true"
     sodipodi:end="4.712389"
     sodipodi:start="1.5707963"
     transform="matrix(0.57142859,0,0,0.60714287,3.478143,6.5912947)"
     d="m -3.4016327,3.5790206 c -0.7731987,0 -1.4,-0.6268013 -1.4000001,-1.3999999 0,-0.7731987 0.6268013,-1.40000001 1.4,-1.40000003 0,0 0,0 0,0"
     sodipodi:ry="1.4"
     sodipodi:rx="1.4"
     sodipodi:cy="2.1790206"
     sodipodi:cx="-3.4016328"
     id="path3014-4"
     style="fill:none;stroke:#004494;stroke-width:0.84887469;stroke-linecap:butt;stroke-linejoin:round;stroke-miterlimit:4;stroke-opacity:1;stroke-dasharray:none"
     sodipodi:type="arc" /><path
     sodipodi:open="true"
     sodipodi:end="4.712389"
     sodipodi:start="1.5707963"
     transform="matrix(-0.57142859,0,0,0.60714287,-0.40943745,1.4912945)"
     d="m -3.4016327,3.5790206 c -0.7731987,0 -1.4,-0.6268013 -1.4000001,-1.3999999 0,-0.7731987 0.6268013,-1.40000001 1.4,-1.40000003 0,0 0,0 0,0"
     sodipodi:ry="1.4"
     sodipodi:rx="1.4"
     sodipodi:cy="2.1790206"
     sodipodi:cx="-3.4016328"
     id="path3014-8"
     style="fill:none;stroke:#004494;stroke-width:0.84887469;stroke-linecap:butt;stroke-linejoin:round;stroke-miterlimit:4;stroke-opacity:1;stroke-dasharray:none"
     sodipodi:type="arc" /><path
     sodipodi:open="true"
     sodipodi:end="4.712389"
     sodipodi:start="1.5707963"
     transform="matrix(-0.57142859,0,0,0.60714287,-0.40943745,4.8912946)"
     d="m -3.4016327,3.5790206 c -0.7731987,0 -1.4,-0.6268013 -1.4000001,-1.3999999 0,-0.7731987 0.6268013,-1.40000001 1.4,-1.40000003 0,0 0,0 0,0"
     sodipodi:ry="1.4"
     sodipodi:rx="1.4"
     sodipodi:cy="2.1790206"
     sodipodi:cx="-3.4016328"
     id="path3014-82"
     style="fill:none;stroke:#004494;stroke-width:0.84887469;stroke-linecap:butt;stroke-linejoin:round;stroke-miterlimit:4;stroke-opacity:1;stroke-dasharray:none"
     sodipodi:type="arc" /></g></svg>