<?xml version="1.0" encoding="utf-8"?>
<!-- Generator: Adobe Illustrator 14.0.0, SVG Export Plug-In . SVG Version: 6.00 Build 43363)  -->
<!DOCTYPE svg PUBLIC "-//W3C//DTD SVG 1.1//EN" "http://www.w3.org/Graphics/SVG/1.1/DTD/svg11.dtd">
<svg version="1.1" id="Livello_1" xmlns="http://www.w3.org/2000/svg" xmlns:xlink="http://www.w3.org/1999/xlink" x="0px" y="0px"
	 width="6.266px" height="7.909px" viewBox="0 0 6.266 7.909" enable-background="new 0 0 6.266 7.909" xml:space="preserve">
<g>
	<path fill="#E53045" d="M2.02,6.276l0.863,0.531L2.281,7.821L0.657,6.896c0.047-0.09,0.071-0.193,0.071-0.311
		c0-0.338-0.24-0.605-0.721-0.801l0.327-0.588l1.248,0.758l1.394-2.599l1.553-2.631c0.238-0.401,0.446-0.602,0.626-0.602
		c0.058,0,0.111,0.016,0.158,0.047c0.174,0.111,0.262,0.24,0.262,0.388c0,0.137-0.077,0.312-0.229,0.523
		C5.129,1.372,4.918,1.665,4.712,1.96C4.29,2.578,3.849,3.267,3.39,4.027L2.02,6.276z M4.783,6.063L6.058,5.39l0.254,0.443
		C5.857,6.214,5.63,6.554,5.63,6.855c0,0.036,0.003,0.073,0.008,0.11L4.015,7.917L3.413,6.855l0.976-0.553l-2.923-4.92
		C1.148,0.849,0.99,0.495,0.99,0.321c0-0.106,0.045-0.188,0.135-0.246c0.074-0.053,0.167-0.08,0.277-0.08
		c0.116,0,0.229,0.071,0.34,0.214c0.042,0.053,0.174,0.264,0.396,0.634c0.047,0.079,0.496,0.961,1.346,2.646L4.783,6.063z"/>
</g>
</svg>
