<?xml version="1.0" encoding="utf-8"?>
<!-- Generator: Adobe Illustrator 14.0.0, SVG Export Plug-In . SVG Version: 6.00 Build 43363)  -->
<!DOCTYPE svg PUBLIC "-//W3C//DTD SVG 1.1//EN" "http://www.w3.org/Graphics/SVG/1.1/DTD/svg11.dtd">
<svg version="1.1" id="Livello_1" xmlns="http://www.w3.org/2000/svg" xmlns:xlink="http://www.w3.org/1999/xlink" x="0px" y="0px"
	 width="5.563px" height="5.609px" viewBox="0 0 5.563 5.609" enable-background="new 0 0 5.563 5.609" xml:space="preserve">
<g>
	<path fill="#E53045" d="M2.784,0.01c0.724,0,1.348,0.239,1.873,0.717l0.285,0.348C5.364,1.594,5.576,2.169,5.576,2.8
		c0,0.756-0.237,1.377-0.71,1.866L4.65,4.889C4.209,5.348,3.587,5.577,2.784,5.577c-0.761,0-1.376-0.234-1.845-0.703L0.724,4.658
		C0.246,4.181,0.007,3.562,0.007,2.8c0-0.766,0.237-1.382,0.71-1.851l0.265-0.257C1.441,0.237,2.042,0.01,2.784,0.01z M0.557,2.8
		c0,0.622,0.219,1.152,0.658,1.59c0.438,0.438,0.968,0.658,1.59,0.658c0.622,0,1.152-0.22,1.59-0.658S5.053,3.422,5.053,2.8
		c0-0.622-0.219-1.152-0.658-1.59c-0.438-0.438-0.969-0.657-1.59-0.657c-0.622,0-1.152,0.219-1.59,0.657
		C0.776,1.648,0.557,2.179,0.557,2.8z M1.782,2.849c0-0.283,0.099-0.523,0.296-0.72s0.435-0.296,0.713-0.296
		c0.283,0,0.523,0.099,0.721,0.296s0.296,0.437,0.296,0.72c0,0.278-0.099,0.516-0.296,0.713S3.074,3.858,2.791,3.858
		c-0.278,0-0.516-0.099-0.713-0.296S1.782,3.127,1.782,2.849z"/>
</g>
</svg>
