<?xml version="1.0" encoding="UTF-8" standalone="no"?>
<!-- Generator: Adobe Illustrator 14.0.0, SVG Export Plug-In . SVG Version: 6.00 Build 43363)  -->

<svg
   xmlns:dc="http://purl.org/dc/elements/1.1/"
   xmlns:cc="http://creativecommons.org/ns#"
   xmlns:rdf="http://www.w3.org/1999/02/22-rdf-syntax-ns#"
   xmlns:svg="http://www.w3.org/2000/svg"
   xmlns="http://www.w3.org/2000/svg"
   xmlns:sodipodi="http://sodipodi.sourceforge.net/DTD/sodipodi-0.dtd"
   xmlns:inkscape="http://www.inkscape.org/namespaces/inkscape"
   version="1.1"
   id="Livello_1"
   x="0px"
   y="0px"
   width="20.284px"
   height="14.276px"
   viewBox="0 0 20.284 14.276"
   enable-background="new 0 0 20.284 14.276"
   xml:space="preserve"
   inkscape:version="0.48.0 r9654"
   sodipodi:docname="3130,9.svg"><metadata
   id="metadata3627"><rdf:RDF><cc:Work
       rdf:about=""><dc:format>image/svg+xml</dc:format><dc:type
         rdf:resource="http://purl.org/dc/dcmitype/StillImage" /></cc:Work></rdf:RDF></metadata><defs
   id="defs3625" /><sodipodi:namedview
   pagecolor="#ffffff"
   bordercolor="#666666"
   borderopacity="1"
   objecttolerance="10"
   gridtolerance="10"
   guidetolerance="10"
   inkscape:pageopacity="0"
   inkscape:pageshadow="2"
   inkscape:window-width="1423"
   inkscape:window-height="737"
   id="namedview3623"
   showgrid="true"
   showguides="true"
   inkscape:guide-bbox="true"
   inkscape:zoom="30.60567"
   inkscape:cx="11.190664"
   inkscape:cy="8.661959"
   inkscape:window-x="0"
   inkscape:window-y="0"
   inkscape:window-maximized="0"
   inkscape:current-layer="Livello_1"><inkscape:grid
     type="xygrid"
     id="grid3629" /><sodipodi:guide
     orientation="0,1"
     position="-7.3911002,4.3717571"
     id="guide3631" /><sodipodi:guide
     orientation="0,1"
     position="11,3.1890765"
     id="guide3633" /></sodipodi:namedview>
<g
   id="g3615">
	<path
   d="m 12.928,11.084 c -0.022,0.94 -0.316,1.689 -0.88,2.245 -0.564,0.557 -1.324,0.861 -2.279,0.913 C 9.521,14.257 9.212,14.212 8.844,14.107 7.633,13.772 6.885,13.024 6.599,11.868 6.554,11.688 6.524,11.428 6.509,11.084 L 0,11.084 -1.8210396e-7,9.9042429 12.161765,9.9042429 12.139,2.963 l 0.79,0 0.071,6.9412429 7.251253,0 -0.0083,1.1826811 L 12.928,11.083 z m -0.789,0 -4.829,0 c 0.075,0.827 0.309,1.398 0.7,1.714 0.542,0.437 1.128,0.65 1.76,0.644 0.699,-0.015 1.256,-0.229 1.669,-0.644 0.196,-0.195 0.361,-0.46 0.497,-0.795 0.135,-0.334 0.203,-0.641 0.203,-0.919 z"
   id="path3617"
   inkscape:connector-curvature="0"
   sodipodi:nodetypes="ccccccccccccccccccccccc" />
</g>
<g
   id="g3619">
	<path
   d="M 10.129,4.276 12.608,-0.11099998 15,4.276 h -4.871 z"
   id="path3621"
   inkscape:connector-curvature="0" />
</g>
</svg>