<?xml version="1.0" encoding="utf-8"?>
<!-- Generator: Adobe Illustrator 14.0.0, SVG Export Plug-In . SVG Version: 6.00 Build 43363)  -->
<!DOCTYPE svg PUBLIC "-//W3C//DTD SVG 1.1//EN" "http://www.w3.org/Graphics/SVG/1.1/DTD/svg11.dtd">
<svg version="1.1"
	 id="Livello_1" sodipodi:docname="3350,9.svg" inkscape:version="0.48.0 r9654" xmlns:dc="http://purl.org/dc/elements/1.1/" xmlns:cc="http://creativecommons.org/ns#" xmlns:rdf="http://www.w3.org/1999/02/22-rdf-syntax-ns#" xmlns:svg="http://www.w3.org/2000/svg" xmlns:sodipodi="http://sodipodi.sourceforge.net/DTD/sodipodi-0.dtd" xmlns:inkscape="http://www.inkscape.org/namespaces/inkscape"
	 xmlns="http://www.w3.org/2000/svg" xmlns:xlink="http://www.w3.org/1999/xlink" x="0px" y="0px" width="19.862px" height="6.32px"
	 viewBox="0 0.518 19.862 6.32" enable-background="new 0 0.518 19.862 6.32" xml:space="preserve">
<sodipodi:namedview  id="namedview12562" inkscape:window-maximized="1" bordercolor="#666666" inkscape:cy="2.3588005" pagecolor="#ffffff" inkscape:cx="10.167637" inkscape:zoom="67.087511" guidetolerance="10" gridtolerance="10" objecttolerance="10" showgrid="false" borderopacity="1" inkscape:current-layer="Livello_1" inkscape:window-y="-9" inkscape:window-x="-9" inkscape:window-height="1019" inkscape:window-width="1920" inkscape:pageshadow="2" inkscape:pageopacity="0">
	</sodipodi:namedview>
<g id="g12550">
	<path id="path12552" fill="#004B95" d="M9.642,7.337"/>
</g>
<g id="g12554">
	<path id="path12556" inkscape:connector-curvature="0" fill="#004B95" d="M0,6.167h19.862v0.685H0V6.167z"/>
</g>
<g id="g12558">
	<path id="path12560" inkscape:connector-curvature="0" fill="#004B95" d="M13.401,6.548H6.637l3.428-6.03L13.401,6.548z
		 M13.018,6.223L10.064,0.97L7.05,6.223H13.018L13.018,6.223z"/>
</g>
<path id="path12568" inkscape:connector-curvature="0" fill="#0038F0" d="M0.011,6.503V6.167h3.426h3.427l1.577-2.776
	c0.868-1.526,1.588-2.794,1.601-2.815c0.023-0.039,0.035-0.019,1.581,2.776l1.558,2.815h3.335h3.336v0.336v0.335h-9.92h-9.92V6.503z
	 M12.964,6.112c-0.121-0.23-2.888-5.133-2.898-5.136c-0.01-0.002-2.84,4.905-2.961,5.136L7.076,6.167h2.959h2.959L12.964,6.112z"/>
</svg>
