<?xml version="1.0" encoding="utf-8"?>
<!-- Generator: Adobe Illustrator 14.0.0, SVG Export Plug-In . SVG Version: 6.00 Build 43363)  -->
<!DOCTYPE svg PUBLIC "-//W3C//DTD SVG 1.1//EN" "http://www.w3.org/Graphics/SVG/1.1/DTD/svg11.dtd">
<svg version="1.1" id="Livello_1" xmlns="http://www.w3.org/2000/svg" xmlns:xlink="http://www.w3.org/1999/xlink" x="0px" y="0px"
	 width="28.913px" height="28.914px" viewBox="0 0 28.913 28.914" enable-background="new 0 0 28.913 28.914" xml:space="preserve">
<rect fill="#E85354" width="28.913" height="28.914"/>
<path fill-rule="evenodd" clip-rule="evenodd" d="M6.741,0.663C6.714,2.284,5.574,3.556,4.159,3.596
	C2.742,3.635,1.577,2.338,1.521,0.707L0.789,0.745c0.136,2.026,1.646,3.665,3.36,3.618c1.799-0.035,3.243-1.695,3.275-3.701"/>
<path fill-rule="evenodd" clip-rule="evenodd" d="M9.578,8.193c-0.028,1.621-1.13,2.938-2.546,2.979
	c-1.453-0.007-2.618-1.305-2.675-2.936L3.663,8.322c0.136,2.025,1.608,3.616,3.36,3.618c1.8-0.035,3.243-1.696,3.238-3.748"/>
<path fill-rule="evenodd" clip-rule="evenodd" d="M17.618,0.663c-0.027,1.621-1.167,2.893-2.582,2.933
	c-1.417,0.039-2.582-1.258-2.639-2.889l-0.731,0.038c0.136,2.026,1.646,3.665,3.36,3.618c1.799-0.035,3.243-1.695,3.275-3.701"/>
<path fill-rule="evenodd" clip-rule="evenodd" d="M19.037,8.193c-0.028,1.621-1.13,2.938-2.546,2.979
	c-1.453-0.007-2.618-1.305-2.675-2.936l-0.694,0.086c0.136,2.025,1.608,3.616,3.36,3.618c1.8-0.035,3.243-1.696,3.238-3.748"/>
<path fill-rule="evenodd" clip-rule="evenodd" d="M6.741,15.302c-0.027,1.621-1.167,2.893-2.582,2.933
	c-1.417,0.039-2.582-1.258-2.639-2.889l-0.731,0.038c0.136,2.026,1.646,3.665,3.36,3.618c1.799-0.035,3.243-1.695,3.275-3.701"/>
<path fill-rule="evenodd" clip-rule="evenodd" d="M9.578,22.832c-0.028,1.621-1.13,2.938-2.546,2.979
	c-1.453-0.007-2.618-1.305-2.675-2.936l-0.694,0.086c0.136,2.025,1.608,3.616,3.36,3.618c1.8-0.035,3.243-1.696,3.238-3.748"/>
<path fill-rule="evenodd" clip-rule="evenodd" d="M16.2,15.303c-0.027,1.621-1.167,2.893-2.582,2.933
	c-1.417,0.039-2.582-1.258-2.639-2.889l-0.731,0.038c0.136,2.026,1.646,3.665,3.36,3.618c1.799-0.035,3.243-1.695,3.275-3.701"/>
<path fill-rule="evenodd" clip-rule="evenodd" d="M19.037,22.833c-0.028,1.621-1.13,2.938-2.546,2.979
	c-1.453-0.007-2.618-1.305-2.675-2.936l-0.694,0.086c0.136,2.025,1.608,3.616,3.36,3.618c1.8-0.035,3.243-1.696,3.238-3.748"/>
<path fill-rule="evenodd" clip-rule="evenodd" d="M24.254,15.303c-0.027,1.621-1.167,2.893-2.582,2.933
	c-1.417,0.039-2.582-1.258-2.639-2.889l-0.731,0.038c0.136,2.026,1.646,3.665,3.36,3.618c1.799-0.035,3.243-1.695,3.275-3.701"/>
<path fill-rule="evenodd" clip-rule="evenodd" d="M27.091,22.833c-0.028,1.621-1.13,2.938-2.546,2.979
	c-1.453-0.007-2.618-1.305-2.675-2.936l-0.694,0.086c0.136,2.025,1.608,3.616,3.36,3.618c1.8-0.035,3.243-1.696,3.238-3.748"/>
<path fill-rule="evenodd" clip-rule="evenodd" d="M27.109,0.663c-0.027,1.621-1.167,2.893-2.582,2.933
	c-1.417,0.039-2.582-1.258-2.639-2.889l-0.731,0.038c0.136,2.026,1.646,3.665,3.36,3.618c1.799-0.035,3.243-1.695,3.275-3.701"/>
<path fill-rule="evenodd" clip-rule="evenodd" d="M27.553,8.193c-0.028,1.621-1.13,2.938-2.546,2.979
	c-1.453-0.007-2.618-1.305-2.675-2.936l-0.694,0.086c0.136,2.025,1.608,3.616,3.36,3.618c1.8-0.035,3.243-1.696,3.238-3.748"/>
</svg>
