<?xml version="1.0" encoding="utf-8"?>
<!-- Generator: Adobe Illustrator 14.0.0, SVG Export Plug-In . SVG Version: 6.00 Build 43363)  -->
<!DOCTYPE svg PUBLIC "-//W3C//DTD SVG 1.1//EN" "http://www.w3.org/Graphics/SVG/1.1/DTD/svg11.dtd">
<svg version="1.1" id="Livello_1" xmlns="http://www.w3.org/2000/svg" xmlns:xlink="http://www.w3.org/1999/xlink" x="0px" y="0px"
	 width="21.121px" height="13.993px" viewBox="0 0 21.121 13.993" enable-background="new 0 0 21.121 13.993" xml:space="preserve">
<path fill="none" stroke="#767885" stroke-width="0.48" stroke-miterlimit="10" d="M0.24,19.137"/>
<line fill="none" stroke="#767885" stroke-width="0.48" stroke-miterlimit="10" x1="0" y1="25.615" x2="5.281" y2="20.096"/>
<path fill="none" stroke="#767885" stroke-width="0.48" stroke-miterlimit="10" d="M7.441,18.176"/>
<path fill="none" stroke="#767885" stroke-width="0.48" stroke-miterlimit="10" d="M27.603-1.981"/>
<line fill="none" stroke="#767885" stroke-width="0.48" stroke-miterlimit="10" x1="1.44" y1="29.936" x2="5.04" y2="26.576"/>
<line fill="none" stroke="#767885" stroke-width="0.48" stroke-miterlimit="10" x1="7.2" y1="24.416" x2="12.481" y2="19.137"/>
<path fill="none" stroke="#767885" stroke-width="0.48" stroke-miterlimit="10" d="M14.641,16.977"/>
<path fill="none" stroke="#767885" stroke-width="0.48" stroke-miterlimit="10" d="M27.363,4.258"/>
<line fill="none" stroke="#767885" stroke-width="0.48" stroke-miterlimit="10" x1="7.441" y1="29.936" x2="12.24" y2="25.375"/>
<line fill="none" stroke="#767885" stroke-width="0.48" stroke-miterlimit="10" x1="14.401" y1="23.216" x2="19.682" y2="17.937"/>
<path fill="none" stroke="#767885" stroke-width="0.48" stroke-miterlimit="10" d="M26.643,11.456"/>
<path fill="none" stroke="#767885" stroke-width="0.48" stroke-miterlimit="10" d="M21.123,16.736"/>
<line fill="none" stroke="#767885" stroke-width="0.48" stroke-miterlimit="10" x1="29.042" y1="8.338" x2="34.564" y2="3.058"/>
<line fill="none" stroke="#767885" stroke-width="0.48" stroke-miterlimit="10" x1="13.921" y1="29.455" x2="19.202" y2="24.176"/>
<line fill="none" stroke="#767885" stroke-width="0.48" stroke-miterlimit="10" x1="21.363" y1="22.016" x2="26.642" y2="16.737"/>
<line fill="none" stroke="#767885" stroke-width="0.48" stroke-miterlimit="10" x1="28.803" y1="14.576" x2="34.083" y2="9.297"/>
<line fill="none" stroke="#767885" stroke-width="0.48" stroke-miterlimit="10" x1="36.243" y1="7.377" x2="41.525" y2="1.858"/>
<line fill="none" stroke="#767885" stroke-width="0.48" stroke-miterlimit="10" x1="21.122" y1="28.495" x2="26.403" y2="23.216"/>
<line fill="none" stroke="#767885" stroke-width="0.48" stroke-miterlimit="10" x1="28.563" y1="21.057" x2="33.843" y2="15.777"/>
<line fill="none" stroke="#767885" stroke-width="0.48" stroke-miterlimit="10" x1="36.003" y1="13.617" x2="41.284" y2="8.338"/>
<line fill="none" stroke="#767885" stroke-width="0.48" stroke-miterlimit="10" x1="43.445" y1="6.178" x2="48.725" y2="0.899"/>
<line fill="none" stroke="#767885" stroke-width="0.48" stroke-miterlimit="10" x1="25.443" y1="29.936" x2="26.162" y2="29.455"/>
<line fill="none" stroke="#767885" stroke-width="0.48" stroke-miterlimit="10" x1="28.323" y1="27.295" x2="33.603" y2="22.016"/>
<line fill="none" stroke="#767885" stroke-width="0.48" stroke-miterlimit="10" x1="35.763" y1="19.857" x2="41.044" y2="14.576"/>
<line fill="none" stroke="#767885" stroke-width="0.48" stroke-miterlimit="10" x1="43.204" y1="12.417" x2="48.485" y2="7.138"/>
<line fill="none" stroke="#767885" stroke-width="0.48" stroke-miterlimit="10" x1="31.443" y1="29.936" x2="33.363" y2="28.256"/>
<line fill="none" stroke="#767885" stroke-width="0.48" stroke-miterlimit="10" x1="35.524" y1="26.096" x2="40.804" y2="20.817"/>
<line fill="none" stroke="#767885" stroke-width="0.48" stroke-miterlimit="10" x1="42.964" y1="18.656" x2="48.245" y2="13.377"/>
<line fill="none" stroke="#767885" stroke-width="0.48" stroke-miterlimit="10" x1="50.406" y1="11.217" x2="55.685" y2="5.938"/>
<line fill="none" stroke="#767885" stroke-width="0.48" stroke-miterlimit="10" x1="37.684" y1="29.936" x2="40.564" y2="27.056"/>
<line fill="none" stroke="#767885" stroke-width="0.48" stroke-miterlimit="10" x1="42.724" y1="24.896" x2="48.005" y2="19.616"/>
<line fill="none" stroke="#767885" stroke-width="0.48" stroke-miterlimit="10" x1="49.925" y1="17.697" x2="55.446" y2="12.177"/>
<line fill="none" stroke="#767885" stroke-width="0.48" stroke-miterlimit="10" x1="43.685" y1="29.936" x2="47.525" y2="26.096"/>
<line fill="none" stroke="#767885" stroke-width="0.48" stroke-miterlimit="10" x1="49.685" y1="23.936" x2="54.966" y2="18.656"/>
<line fill="none" stroke="#767885" stroke-width="0.48" stroke-miterlimit="10" x1="49.685" y1="29.936" x2="54.726" y2="24.896"/>
<polyline fill-rule="evenodd" clip-rule="evenodd" fill="#767885" points="3.949,-1.757 3.949,-1.457 2.149,-1.457 2.149,-1.757 "/>
<polyline fill-rule="evenodd" clip-rule="evenodd" fill="#767885" points="11.151,-1.757 11.151,-1.457 10.551,-1.457 
	10.551,-1.757 "/>
<rect x="2.449" y="-1.457" fill-rule="evenodd" clip-rule="evenodd" fill="#767885" width="0.6" height="0.3"/>
<rect x="15.802" y="0.643" fill-rule="evenodd" clip-rule="evenodd" fill="#767885" width="0.9" height="0.3"/>
<rect x="15.501" y="0.944" fill-rule="evenodd" clip-rule="evenodd" fill="#767885" width="1.5" height="0.3"/>
<rect x="15.2" y="1.244" fill-rule="evenodd" clip-rule="evenodd" fill="#767885" width="2.102" height="0.3"/>
<rect x="15.802" y="1.544" fill-rule="evenodd" clip-rule="evenodd" fill="#767885" width="1.5" height="0.3"/>
<rect x="16.402" y="1.844" fill-rule="evenodd" clip-rule="evenodd" fill="#767885" width="0.6" height="0.3"/>
<rect x="-1.152" y="4.243" fill-rule="evenodd" clip-rule="evenodd" fill="#767885" width="0.3" height="0.301"/>
<rect x="-1.752" y="4.544" fill-rule="evenodd" clip-rule="evenodd" fill="#767885" width="1.5" height="0.299"/>
<rect x="7.1" y="3.644" fill-rule="evenodd" clip-rule="evenodd" fill="#767885" width="0.899" height="0.299"/>
<rect x="-2.052" y="4.843" fill-rule="evenodd" clip-rule="evenodd" fill="#767885" width="2.1" height="0.301"/>
<rect x="6.8" y="3.943" fill-rule="evenodd" clip-rule="evenodd" fill="#767885" width="1.5" height="0.301"/>
<rect x="-1.752" y="5.144" fill-rule="evenodd" clip-rule="evenodd" fill="#767885" width="1.8" height="0.3"/>
<rect x="6.8" y="4.244" fill-rule="evenodd" clip-rule="evenodd" fill="#767885" width="1.801" height="0.3"/>
<rect x="-1.152" y="5.444" fill-rule="evenodd" clip-rule="evenodd" fill="#767885" width="1.2" height="0.3"/>
<rect x="6.5" y="4.544" fill-rule="evenodd" clip-rule="evenodd" fill="#767885" width="2.4" height="0.3"/>
<rect x="-0.552" y="5.743" fill-rule="evenodd" clip-rule="evenodd" fill="#767885" width="0.3" height="0.301"/>
<rect x="6.8" y="4.844" fill-rule="evenodd" clip-rule="evenodd" fill="#767885" width="1.801" height="0.301"/>
<rect x="7.4" y="5.145" fill-rule="evenodd" clip-rule="evenodd" fill="#767885" width="0.6" height="0.299"/>
<rect x="13.101" y="6.044" fill-rule="evenodd" clip-rule="evenodd" fill="#767885" width="1.5" height="0.3"/>
<rect x="12.8" y="6.344" fill-rule="evenodd" clip-rule="evenodd" fill="#767885" width="2.102" height="0.299"/>
<rect x="13.101" y="6.643" fill-rule="evenodd" clip-rule="evenodd" fill="#767885" width="1.5" height="0.301"/>
<rect x="13.101" y="6.944" fill-rule="evenodd" clip-rule="evenodd" fill="#767885" width="1.801" height="0.301"/>
<rect x="13.402" y="7.244" fill-rule="evenodd" clip-rule="evenodd" fill="#767885" width="1.199" height="0.299"/>
<rect x="2.599" y="8.744" fill-rule="evenodd" clip-rule="evenodd" fill="#767885" width="0.3" height="0.299"/>
<rect x="1.999" y="9.043" fill-rule="evenodd" clip-rule="evenodd" fill="#767885" width="0.9" height="0.301"/>
<rect x="1.699" y="9.344" fill-rule="evenodd" clip-rule="evenodd" fill="#767885" width="1.2" height="0.301"/>
<rect x="1.999" y="9.645" fill-rule="evenodd" clip-rule="evenodd" fill="#767885" width="1.2" height="0.299"/>
<rect x="2.299" y="9.944" fill-rule="evenodd" clip-rule="evenodd" fill="#767885" width="0.9" height="0.301"/>
<rect x="2.299" y="10.244" fill-rule="evenodd" clip-rule="evenodd" fill="#767885" width="0.3" height="0.299"/>
<rect x="8.3" y="10.844" fill-rule="evenodd" clip-rule="evenodd" fill="#767885" width="1.201" height="0.301"/>
<rect x="10.101" y="10.844" fill-rule="evenodd" clip-rule="evenodd" fill="#767885" width="0.9" height="0.301"/>
<rect x="7.999" y="11.145" fill-rule="evenodd" clip-rule="evenodd" fill="#767885" width="3.602" height="0.299"/>
<rect x="7.7" y="11.444" fill-rule="evenodd" clip-rule="evenodd" fill="#767885" width="3.6" height="0.301"/>
<rect x="7.999" y="11.744" fill-rule="evenodd" clip-rule="evenodd" fill="#767885" width="1.502" height="0.299"/>
<rect x="10.101" y="11.744" fill-rule="evenodd" clip-rule="evenodd" fill="#767885" width="1.5" height="0.299"/>
<rect x="8.601" y="12.043" fill-rule="evenodd" clip-rule="evenodd" fill="#767885" width="1.199" height="0.301"/>
<rect x="8.9" y="12.344" fill-rule="evenodd" clip-rule="evenodd" fill="#767885" width="0.301" height="0.301"/>
<rect x="10.25" y="14.145" fill-rule="evenodd" clip-rule="evenodd" fill="#767885" width="1.5" height="0.299"/>
<rect x="9.949" y="14.444" fill-rule="evenodd" clip-rule="evenodd" fill="#767885" width="2.102" height="0.301"/>
<rect x="9.949" y="14.744" fill-rule="evenodd" clip-rule="evenodd" fill="#767885" width="2.102" height="0.301"/>
<rect x="-1.152" y="15.045" fill-rule="evenodd" clip-rule="evenodd" fill="#767885" width="0.3" height="0.299"/>
<rect x="-0.552" y="15.045" fill-rule="evenodd" clip-rule="evenodd" fill="#767885" width="0.9" height="0.299"/>
<rect x="10.551" y="15.045" fill-rule="evenodd" clip-rule="evenodd" fill="#767885" width="1.5" height="0.299"/>
<rect x="-1.451" y="15.344" fill-rule="evenodd" clip-rule="evenodd" fill="#767885" width="1.8" height="0.301"/>
<rect x="11.151" y="15.344" fill-rule="evenodd" clip-rule="evenodd" fill="#767885" width="0.6" height="0.301"/>
<rect x="-1.152" y="15.645" fill-rule="evenodd" clip-rule="evenodd" fill="#767885" width="1.5" height="0.299"/>
<rect x="-1.152" y="15.944" fill-rule="evenodd" clip-rule="evenodd" fill="#767885" width="1.8" height="0.301"/>
<rect x="-0.552" y="16.244" fill-rule="evenodd" clip-rule="evenodd" fill="#767885" width="0.9" height="0.301"/>
<rect x="3.649" y="17.145" fill-rule="evenodd" clip-rule="evenodd" fill="#767885" width="0.9" height="0.299"/>
<rect x="3.349" y="17.444" fill-rule="evenodd" clip-rule="evenodd" fill="#767885" width="1.5" height="0.301"/>
<rect x="3.349" y="17.744" fill-rule="evenodd" clip-rule="evenodd" fill="#767885" width="1.5" height="0.301"/>
<rect x="3.649" y="18.045" fill-rule="evenodd" clip-rule="evenodd" fill="#767885" width="1.2" height="0.299"/>
<rect x="15.051" y="18.045" fill-rule="evenodd" clip-rule="evenodd" fill="#767885" width="0.301" height="0.299"/>
<rect x="15.651" y="18.045" fill-rule="evenodd" clip-rule="evenodd" fill="#767885" width="1.201" height="0.299"/>
<polyline fill-rule="evenodd" clip-rule="evenodd" fill="#767885" points="3.949,18.645 3.949,18.344 4.849,18.344 4.849,18.645 "/>
<polyline fill-rule="evenodd" clip-rule="evenodd" fill="#767885" points="15.352,18.645 15.352,18.344 16.852,18.344 
	16.852,18.645 "/>
<polyline fill-rule="evenodd" clip-rule="evenodd" fill="#767885" points="22.852,-1.757 22.852,-1.457 21.951,-1.457 
	21.951,-1.757 "/>
<rect x="21.352" y="-1.457" fill-rule="evenodd" clip-rule="evenodd" fill="#767885" width="1.5" height="0.3"/>
<rect x="21.352" y="-1.156" fill-rule="evenodd" clip-rule="evenodd" fill="#767885" width="1.801" height="0.3"/>
<rect x="21.352" y="-0.857" fill-rule="evenodd" clip-rule="evenodd" fill="#767885" width="2.1" height="0.3"/>
<rect x="21.653" y="-0.556" fill-rule="evenodd" clip-rule="evenodd" fill="#767885" width="1.5" height="0.3"/>
<rect x="21.951" y="-0.257" fill-rule="evenodd" clip-rule="evenodd" fill="#767885" width="0.602" height="0.3"/>
<rect x="29.754" y="0.643" fill-rule="evenodd" clip-rule="evenodd" fill="#767885" width="0.6" height="0.3"/>
<rect x="30.653" y="0.643" fill-rule="evenodd" clip-rule="evenodd" fill="#767885" width="0.301" height="0.3"/>
<rect x="29.754" y="0.944" fill-rule="evenodd" clip-rule="evenodd" fill="#767885" width="1.799" height="0.3"/>
<rect x="30.053" y="1.243" fill-rule="evenodd" clip-rule="evenodd" fill="#767885" width="1.5" height="0.3"/>
<rect x="29.754" y="1.543" fill-rule="evenodd" clip-rule="evenodd" fill="#767885" width="1.799" height="0.3"/>
<rect x="30.053" y="1.844" fill-rule="evenodd" clip-rule="evenodd" fill="#767885" width="1.201" height="0.3"/>
<rect x="30.653" y="2.144" fill-rule="evenodd" clip-rule="evenodd" fill="#767885" width="0.301" height="0.3"/>
<rect x="17.601" y="2.144" fill-rule="evenodd" clip-rule="evenodd" fill="#767885" width="0.9" height="0.299"/>
<rect x="17.302" y="2.443" fill-rule="evenodd" clip-rule="evenodd" fill="#767885" width="1.5" height="0.301"/>
<rect x="17.302" y="2.744" fill-rule="evenodd" clip-rule="evenodd" fill="#767885" width="1.5" height="0.3"/>
<rect x="17.302" y="3.044" fill-rule="evenodd" clip-rule="evenodd" fill="#767885" width="1.799" height="0.3"/>
<rect x="17.601" y="3.344" fill-rule="evenodd" clip-rule="evenodd" fill="#767885" width="1.201" height="0.301"/>
<rect x="17.902" y="3.644" fill-rule="evenodd" clip-rule="evenodd" fill="#767885" width="0.9" height="0.299"/>
<rect x="18.202" y="3.943" fill-rule="evenodd" clip-rule="evenodd" fill="#767885" width="0.299" height="0.301"/>
<rect x="25.252" y="5.144" fill-rule="evenodd" clip-rule="evenodd" fill="#767885" width="1.801" height="0.3"/>
<rect x="25.252" y="5.444" fill-rule="evenodd" clip-rule="evenodd" fill="#767885" width="1.801" height="0.3"/>
<rect x="25.553" y="5.743" fill-rule="evenodd" clip-rule="evenodd" fill="#767885" width="1.801" height="0.301"/>
<rect x="25.852" y="6.045" fill-rule="evenodd" clip-rule="evenodd" fill="#767885" width="1.201" height="0.299"/>
<rect x="26.153" y="6.344" fill-rule="evenodd" clip-rule="evenodd" fill="#767885" width="0.6" height="0.301"/>
<rect x="26.752" y="12.344" fill-rule="evenodd" clip-rule="evenodd" fill="#767885" width="1.201" height="0.301"/>
<rect x="26.752" y="12.645" fill-rule="evenodd" clip-rule="evenodd" fill="#767885" width="1.5" height="0.299"/>
<rect x="26.453" y="12.944" fill-rule="evenodd" clip-rule="evenodd" fill="#767885" width="1.799" height="0.301"/>
<rect x="26.752" y="13.244" fill-rule="evenodd" clip-rule="evenodd" fill="#767885" width="1.201" height="0.301"/>
<rect x="27.053" y="13.545" fill-rule="evenodd" clip-rule="evenodd" fill="#767885" width="1.199" height="0.299"/>
<rect x="27.653" y="13.844" fill-rule="evenodd" clip-rule="evenodd" fill="#767885" width="0.301" height="0.301"/>
<rect x="29.453" y="15.344" fill-rule="evenodd" clip-rule="evenodd" fill="#767885" width="1.199" height="0.301"/>
<rect x="30.953" y="15.344" fill-rule="evenodd" clip-rule="evenodd" fill="#767885" width="0.301" height="0.301"/>
<rect x="29.453" y="15.645" fill-rule="evenodd" clip-rule="evenodd" fill="#767885" width="1.801" height="0.299"/>
<rect x="29.754" y="15.944" fill-rule="evenodd" clip-rule="evenodd" fill="#767885" width="1.799" height="0.301"/>
<rect x="18.352" y="16.244" fill-rule="evenodd" clip-rule="evenodd" fill="#767885" width="1.199" height="0.301"/>
<rect x="29.453" y="16.244" fill-rule="evenodd" clip-rule="evenodd" fill="#767885" width="1.801" height="0.301"/>
<rect x="18.051" y="16.545" fill-rule="evenodd" clip-rule="evenodd" fill="#767885" width="1.5" height="0.299"/>
<rect x="30.053" y="16.545" fill-rule="evenodd" clip-rule="evenodd" fill="#767885" width="0.9" height="0.299"/>
<rect x="18.051" y="16.844" fill-rule="evenodd" clip-rule="evenodd" fill="#767885" width="1.801" height="0.301"/>
<rect x="18.051" y="17.145" fill-rule="evenodd" clip-rule="evenodd" fill="#767885" width="1.801" height="0.299"/>
<rect x="18.651" y="17.444" fill-rule="evenodd" clip-rule="evenodd" fill="#767885" width="1.201" height="0.301"/>
<rect x="18.951" y="17.744" fill-rule="evenodd" clip-rule="evenodd" fill="#767885" width="0.6" height="0.301"/>
<rect x="23.752" y="17.744" fill-rule="evenodd" clip-rule="evenodd" fill="#767885" width="0.9" height="0.301"/>
<rect x="23.451" y="18.045" fill-rule="evenodd" clip-rule="evenodd" fill="#767885" width="1.502" height="0.299"/>
<polyline fill-rule="evenodd" clip-rule="evenodd" fill="#767885" points="23.153,18.645 23.153,18.344 24.953,18.344 
	24.953,18.645 "/>
<polyline fill="none" stroke="#767885" stroke-width="0" stroke-linecap="round" stroke-linejoin="round" stroke-miterlimit="10" points="
	-5.869,19.844 -5.869,-4.154 34.215,-4.154 34.215,19.844 -5.869,19.844 "/>
</svg>
