<?xml version="1.0" encoding="utf-8"?>
<!-- Generator: Adobe Illustrator 14.0.0, SVG Export Plug-In . SVG Version: 6.00 Build 43363)  -->
<!DOCTYPE svg PUBLIC "-//W3C//DTD SVG 1.1//EN" "http://www.w3.org/Graphics/SVG/1.1/DTD/svg11.dtd">
<svg version="1.1"
	 id="Livello_1" sodipodi:docname="3331,9.svg" inkscape:version="0.48.0 r9654" xmlns:dc="http://purl.org/dc/elements/1.1/" xmlns:cc="http://creativecommons.org/ns#" xmlns:rdf="http://www.w3.org/1999/02/22-rdf-syntax-ns#" xmlns:svg="http://www.w3.org/2000/svg" xmlns:sodipodi="http://sodipodi.sourceforge.net/DTD/sodipodi-0.dtd" xmlns:inkscape="http://www.inkscape.org/namespaces/inkscape"
	 xmlns="http://www.w3.org/2000/svg" xmlns:xlink="http://www.w3.org/1999/xlink" x="0px" y="0px" width="19.01px"
	 height="11.414px" viewBox="0 0.387 19.01 11.414" enable-background="new 0 0.387 19.01 11.414" xml:space="preserve">
<sodipodi:namedview  id="namedview11439" inkscape:window-maximized="1" bordercolor="#666666" inkscape:cy="6.1132092" pagecolor="#ffffff" inkscape:cx="11.297519" inkscape:zoom="44.068527" guidetolerance="10" gridtolerance="10" objecttolerance="10" showgrid="true" borderopacity="1" inkscape:current-layer="Livello_1" inkscape:window-y="-9" inkscape:window-x="-9" inkscape:window-height="1019" inkscape:window-width="1920" inkscape:pageshadow="2" inkscape:pageopacity="0">
	<inkscape:grid  type="xygrid" id="grid11445"></inkscape:grid>
</sodipodi:namedview>
<g id="g11427" transform="matrix(1,0,0,0.56,0,2.68422)">
	<path id="path11429" inkscape:connector-curvature="0" sodipodi:nodetypes="cccccccccccccccc" fill="#004B95" d="M18.434,5.367H19
		v0.106v0.211v0.415v0.106v0.363v0.312l-0.404,0.003L0,6.86V6.486V6.092v-0.45V5.388l18.128-0.016L18.434,5.367z"/>
</g>
<g id="g11431">
	<path id="path11433" inkscape:connector-curvature="0" fill="#004B95" d="M6.572,5.809l3.11-5.503l3.002,5.503H6.572z"/>
</g>
<g id="g11435">
	<path id="path11437" inkscape:connector-curvature="0" fill="#004B95" d="M12.69,6.416l-3.042,5.385L6.712,6.416H12.69z"/>
</g>
<path id="path11447" inkscape:connector-curvature="0" fill="#0038F0" d="M8.212,9.141L6.784,6.525L3.398,6.519L0.011,6.513V6.116
	V5.719l3.315-0.006l3.316-0.006l1.492-2.637C8.954,1.619,9.64,0.412,9.657,0.387c0.028-0.042,0.149,0.172,1.487,2.626L12.6,5.685
	l3.19,0.006l3.19,0.006v0.422v0.423l-3.176-0.009c-2.098-0.005-3.183,0-3.197,0.015c-0.012,0.013-0.672,1.177-1.468,2.587
	c-0.795,1.41-1.458,2.578-1.474,2.594C9.645,11.751,9.348,11.224,8.212,9.141L8.212,9.141z"/>
</svg>
