<?xml version="1.0" encoding="utf-8"?>
<!-- Generator: Adobe Illustrator 14.0.0, SVG Export Plug-In . SVG Version: 6.00 Build 43363)  -->
<!DOCTYPE svg PUBLIC "-//W3C//DTD SVG 1.1//EN" "http://www.w3.org/Graphics/SVG/1.1/DTD/svg11.dtd">
<svg version="1.1" id="Livello_1" xmlns="http://www.w3.org/2000/svg" xmlns:xlink="http://www.w3.org/1999/xlink" x="0px" y="0px"
	 width="6.874px" height="8.12px" viewBox="0 0 6.874 8.12" enable-background="new 0 0 6.874 8.12" xml:space="preserve">
<g>
	<path fill="#E53045" d="M3.538,1.625C4.27,1.659,4.909,1.924,5.453,2.421l0.313,0.383c0.47,0.578,0.706,1.216,0.706,1.914
		c0,0.799-0.264,1.491-0.793,2.076l1.083,1.083l-0.23,0.24L5.443,7.029C4.878,7.54,4.189,7.794,3.376,7.794
		c-0.793,0-1.479-0.258-2.056-0.775L0.252,8.087l-0.24-0.23L1.09,6.779C0.558,6.194,0.292,5.504,0.292,4.711
		c0-0.847,0.262-1.533,0.786-2.058l0.292-0.282c0.464-0.464,1.075-0.712,1.834-0.746V0.053h0.333V1.625z M0.897,4.71
		c0,0.691,0.244,1.281,0.731,1.77c0.487,0.486,1.077,0.73,1.769,0.73V2.22c-0.692,0-1.282,0.244-1.769,0.731
		C1.141,3.438,0.897,4.025,0.897,4.71z M3.376,1.615l-0.171,0.01l0.333-0.01H3.376z"/>
</g>
</svg>
