<?xml version="1.0" encoding="utf-8"?>
<!-- Generator: Adobe Illustrator 14.0.0, SVG Export Plug-In . SVG Version: 6.00 Build 43363)  -->
<!DOCTYPE svg PUBLIC "-//W3C//DTD SVG 1.1//EN" "http://www.w3.org/Graphics/SVG/1.1/DTD/svg11.dtd">
<svg version="1.1" id="Livello_1" xmlns="http://www.w3.org/2000/svg" xmlns:xlink="http://www.w3.org/1999/xlink" x="0px" y="0px"
	 width="6.094px" height="6.039px" viewBox="0 0 6.094 6.039" enable-background="new 0 0 6.094 6.039" xml:space="preserve">
<g>
	<path fill="#058AC7" d="M4.915,0.633l0.51,0.509c0.444,0.54,0.667,1.165,0.667,1.876c0,0.835-0.294,1.544-0.882,2.128
		c-0.588,0.582-1.3,0.874-2.136,0.874c-0.844,0-1.558-0.29-2.142-0.868c-0.584-0.58-0.876-1.289-0.876-2.128
		c0-0.847,0.292-1.562,0.876-2.146s1.298-0.875,2.142-0.875C3.752,0.003,4.366,0.213,4.915,0.633z M0.708,3.018
		c0,0.447,0.058,0.791,0.174,1.031c0.08,0.16,0.252,0.373,0.516,0.641c0.46,0.459,1.018,0.689,1.674,0.689
		c0.664,0,1.224-0.227,1.68-0.68s0.684-1.012,0.684-1.675c0-0.663-0.228-1.225-0.684-1.687S3.738,0.646,3.078,0.646
		c-0.664,0-1.225,0.229-1.683,0.686C0.937,1.789,0.708,2.351,0.708,3.018z"/>
</g>
</svg>
