<?xml version="1.0" encoding="utf-8"?>
<!-- Generator: Adobe Illustrator 14.0.0, SVG Export Plug-In . SVG Version: 6.00 Build 43363)  -->
<!DOCTYPE svg PUBLIC "-//W3C//DTD SVG 1.1//EN" "http://www.w3.org/Graphics/SVG/1.1/DTD/svg11.dtd">
<svg version="1.1" id="Livello_1" xmlns="http://www.w3.org/2000/svg" xmlns:xlink="http://www.w3.org/1999/xlink" x="0px" y="0px"
	 width="6.734px" height="6.01px" viewBox="0 0 6.734 6.01" enable-background="new 0 0 6.734 6.01" xml:space="preserve">
<g>
	<path fill="#E53045" d="M6.68,5.938h-6.764l3.428-5.906L6.68,5.938z M6.297,5.736l-2.954-5.25l-3.014,5.25H6.297z"/>
</g>
<g>
	<path fill="#E53045" d="M4.675,4.031c0,0.195-0.038,0.381-0.112,0.555C4.487,4.76,4.385,4.911,4.256,5.041
		C4.126,5.17,3.975,5.271,3.8,5.346C3.626,5.421,3.441,5.459,3.245,5.459S2.863,5.421,2.689,5.346
		C2.515,5.271,2.363,5.17,2.233,5.041C2.104,4.911,2.001,4.76,1.927,4.586S1.814,4.227,1.814,4.031c0-0.196,0.038-0.381,0.112-0.556
		C2.001,3.302,2.104,3.15,2.233,3.021C2.363,2.892,2.515,2.79,2.689,2.715C2.863,2.64,3.048,2.603,3.245,2.603S3.626,2.64,3.8,2.715
		C3.975,2.79,4.126,2.892,4.256,3.021C4.385,3.15,4.487,3.302,4.563,3.476C4.637,3.65,4.675,3.835,4.675,4.031z M4.593,4.031
		c0-0.186-0.036-0.359-0.106-0.523C4.416,3.345,4.319,3.203,4.197,3.08s-0.266-0.219-0.429-0.29S3.43,2.685,3.245,2.685
		S2.885,2.72,2.722,2.791C2.558,2.861,2.415,2.958,2.292,3.08s-0.219,0.265-0.29,0.428C1.932,3.672,1.896,3.846,1.896,4.031
		c0,0.185,0.036,0.358,0.106,0.521S2.17,4.859,2.292,4.98C2.415,5.104,2.558,5.2,2.722,5.271c0.163,0.07,0.338,0.105,0.523,0.105
		s0.359-0.035,0.523-0.105C3.931,5.2,4.074,5.104,4.197,4.98c0.123-0.121,0.219-0.265,0.29-0.428S4.593,4.216,4.593,4.031z"/>
</g>
</svg>
