<?xml version="1.0" encoding="utf-8"?>
<!-- Generator: Adobe Illustrator 14.0.0, SVG Export Plug-In . SVG Version: 6.00 Build 43363)  -->
<!DOCTYPE svg PUBLIC "-//W3C//DTD SVG 1.1//EN" "http://www.w3.org/Graphics/SVG/1.1/DTD/svg11.dtd">
<svg version="1.1" id="Livello_1" xmlns="http://www.w3.org/2000/svg" xmlns:xlink="http://www.w3.org/1999/xlink" x="0px" y="0px"
	 width="14.708px" height="11.323px" viewBox="0 0 14.708 11.323" enable-background="new 0 0 14.708 11.323" xml:space="preserve">
<g>
	
		<line fill="none" stroke="#E42522" stroke-width="1.5" stroke-linejoin="round" stroke-miterlimit="8" x1="7.396" y1="10.516" x2="7.209" y2="2.5"/>
	<polygon fill-rule="evenodd" clip-rule="evenodd" fill="#E42522" points="5.721,3.034 7.15,0 8.721,2.964 	"/>
	<g>
		<path fill-rule="evenodd" clip-rule="evenodd" fill="#E42522" d="M13.433,5.199c-0.293,2.997-3.075,5.229-6.308,5.057
			c-3.233-0.17-5.766-2.68-5.743-5.69L0.459,4.552c-0.026,3.472,2.893,6.366,6.621,6.562c3.727,0.196,6.934-2.376,7.272-5.831
			L13.433,5.199z"/>
		
			<path fill="none" stroke="#E42522" stroke-width="0.75" stroke-linecap="round" stroke-linejoin="round" stroke-miterlimit="8" d="
			M13.433,5.199c-0.293,2.997-3.075,5.229-6.308,5.057c-3.233-0.17-5.766-2.68-5.743-5.69L0.459,4.552
			c-0.026,3.472,2.893,6.366,6.621,6.562c3.727,0.196,6.934-2.376,7.272-5.831L13.433,5.199z"/>
	</g>
</g>
</svg>
