<?xml version="1.0" encoding="utf-8"?>
<!-- Generator: Adobe Illustrator 14.0.0, SVG Export Plug-In . SVG Version: 6.00 Build 43363)  -->
<!DOCTYPE svg PUBLIC "-//W3C//DTD SVG 1.1//EN" "http://www.w3.org/Graphics/SVG/1.1/DTD/svg11.dtd">
<svg version="1.1" id="Livello_1" xmlns="http://www.w3.org/2000/svg" xmlns:xlink="http://www.w3.org/1999/xlink" x="0px" y="0px"
	 width="28.913px" height="28.914px" viewBox="0 0 28.913 28.914" enable-background="new 0 0 28.913 28.914" xml:space="preserve">
<path fill="#E42522" d="M1.962,2.751c0-0.587,0.478-1.063,1.063-1.063s1.062,0.476,1.062,1.063H5.15
	c0-1.174-0.952-2.125-2.125-2.125c-1.175,0-2.126,0.951-2.126,2.125H1.962z"/>
<path fill="#E42522" d="M7.287,2.652c0,0.587-0.476,1.063-1.063,1.063c-0.586,0-1.063-0.476-1.063-1.063H4.099
	c0,1.174,0.952,2.125,2.125,2.125c1.175,0,2.127-0.951,2.127-2.125H7.287z"/>
<path fill="#E42522" d="M10.962,8.001c0-0.587,0.478-1.063,1.063-1.063s1.062,0.476,1.062,1.063h1.063
	c0-1.174-0.952-2.125-2.125-2.125c-1.175,0-2.126,0.951-2.126,2.125H10.962z"/>
<path fill="#E42522" d="M16.287,7.902c0,0.587-0.476,1.063-1.063,1.063c-0.586,0-1.063-0.476-1.063-1.063h-1.063
	c0,1.174,0.952,2.125,2.125,2.125c1.175,0,2.127-0.951,2.127-2.125H16.287z"/>
<path fill="#E42522" d="M1.063,12.051c0-0.587,0.476-1.063,1.063-1.063c0.586,0,1.063,0.476,1.063,1.063h1.063
	c0-1.174-0.953-2.125-2.125-2.125c-1.175,0-2.127,0.951-2.127,2.125H1.063z"/>
<path fill="#E42522" d="M6.388,11.952c0,0.587-0.478,1.063-1.063,1.063c-0.587,0-1.063-0.476-1.063-1.063H3.199
	c0,1.174,0.952,2.125,2.126,2.125s2.125-0.951,2.125-2.125H6.388z"/>
<path fill="#E42522" d="M10.662,17.902c0-0.588,0.477-1.064,1.063-1.064c0.586,0,1.062,0.477,1.062,1.064h1.063
	c0-1.174-0.952-2.125-2.125-2.125c-1.175,0-2.127,0.951-2.127,2.125H10.662z"/>
<path fill="#E42522" d="M15.987,17.8c0,0.589-0.478,1.064-1.063,1.064s-1.063-0.478-1.063-1.064H12.8
	c0,1.177,0.951,2.125,2.125,2.125c1.175,0,2.125-0.948,2.125-2.125H15.987z"/>
<path fill="#E42522" d="M1.662,22.402c0-0.588,0.477-1.064,1.063-1.064c0.586,0,1.062,0.477,1.062,1.064H4.85
	c0-1.174-0.952-2.125-2.125-2.125c-1.175,0-2.127,0.951-2.127,2.125H1.662z"/>
<path fill="#E42522" d="M6.987,22.3c0,0.589-0.478,1.064-1.063,1.064S4.862,22.889,4.862,22.3H3.8c0,1.177,0.951,2.125,2.125,2.125
	c1.175,0,2.125-0.948,2.125-2.125H6.987z"/>
<g>
	<path fill="#E42522" d="M11.342,26.243c0-0.586,0.478-1.063,1.063-1.063s1.063,0.478,1.063,1.063h1.063
		c0-1.175-0.951-2.125-2.125-2.125s-2.125,0.95-2.125,2.125H11.342z"/>
	<path fill="#E42522" d="M16.667,26.143c0,0.588-0.476,1.063-1.063,1.063c-0.586,0-1.063-0.476-1.063-1.063h-1.063
		c0,1.174,0.952,2.125,2.125,2.125c1.174,0,2.127-0.951,2.127-2.125H16.667z"/>
</g>
<g>
	<path fill="#E42522" d="M19.467,3.243c0-0.586,0.478-1.063,1.063-1.063s1.063,0.477,1.063,1.063h1.063
		c0-1.174-0.951-2.125-2.125-2.125s-2.125,0.951-2.125,2.125H19.467z"/>
	<path fill="#E42522" d="M24.792,3.143c0,0.588-0.476,1.063-1.063,1.063c-0.586,0-1.063-0.475-1.063-1.063h-1.063
		c0,1.174,0.952,2.125,2.125,2.125c1.174,0,2.127-0.951,2.127-2.125H24.792z"/>
</g>
<g>
	<path fill="#E42522" d="M19.467,13.167c0-0.586,0.478-1.063,1.063-1.063s1.063,0.477,1.063,1.063h1.063
		c0-1.174-0.951-2.125-2.125-2.125s-2.125,0.951-2.125,2.125H19.467z"/>
	<path fill="#E42522" d="M24.792,13.068c0,0.588-0.476,1.063-1.063,1.063c-0.586,0-1.063-0.475-1.063-1.063h-1.063
		c0,1.174,0.952,2.125,2.125,2.125c1.174,0,2.127-0.951,2.127-2.125H24.792z"/>
</g>
<g>
	<path fill="#E42522" d="M19.467,22.352c0-0.586,0.478-1.063,1.063-1.063s1.063,0.478,1.063,1.063h1.063
		c0-1.175-0.951-2.125-2.125-2.125s-2.125,0.95-2.125,2.125H19.467z"/>
	<path fill="#E42522" d="M24.792,22.251c0,0.588-0.476,1.063-1.063,1.063c-0.586,0-1.063-0.476-1.063-1.063h-1.063
		c0,1.174,0.952,2.125,2.125,2.125c1.174,0,2.127-0.951,2.127-2.125H24.792z"/>
</g>
</svg>
