<?xml version="1.0" encoding="utf-8"?>
<!-- Generator: Adobe Illustrator 14.0.0, SVG Export Plug-In . SVG Version: 6.00 Build 43363)  -->
<!DOCTYPE svg PUBLIC "-//W3C//DTD SVG 1.1//EN" "http://www.w3.org/Graphics/SVG/1.1/DTD/svg11.dtd">
<svg version="1.1" id="Livello_1" xmlns="http://www.w3.org/2000/svg" xmlns:xlink="http://www.w3.org/1999/xlink" x="0px" y="0px"
	 width="4.649px" height="20.326px" viewBox="0 0 4.649 20.326" enable-background="new 0 0 4.649 20.326" xml:space="preserve">
<g enable-background="new    ">
	<path fill="#E42522" d="M2.646,6.296H2.004L0,7.218l2.325-7.135l2.324,7.135L2.646,6.296z M2.646,6.276
		c0.013,0.575,0.013,1.016,0,1.323C2.632,7.919,2.792,8.28,3.126,8.681c0.667,0.814,0.968,1.717,0.901,2.705
		c-0.027,0.4-0.133,0.775-0.32,1.123C3.6,12.708,3.426,12.942,3.186,13.21c-0.561,0.467-1.009,0.795-1.342,0.982
		c-0.468,0.467-0.662,1.029-0.581,1.684c0.04,0.334,0.22,0.713,0.541,1.141c0.093,0.107,0.387,0.436,0.882,0.982
		c0.267,0.4,0.368,1.109,0.3,2.125H2.305c-0.014-0.16-0.014-0.494,0-1.002c0-0.375-0.281-0.861-0.842-1.463
		c-0.281-0.295-0.528-0.695-0.741-1.203c-0.107-0.254-0.161-0.527-0.161-0.822c0-0.439,0.107-0.881,0.321-1.322
		c0.147-0.293,0.394-0.574,0.741-0.842c0.267-0.172,0.501-0.32,0.702-0.439c0.762-0.469,1.109-1.203,1.042-2.205
		C3.34,10.438,3.213,10.05,2.986,9.663C2.759,9.356,2.532,9.039,2.305,8.711C2.077,8.383,1.964,8.006,1.964,7.579l0.02-1.282
		L2.646,6.276z"/>
</g>
</svg>
