<?xml version="1.0" encoding="utf-8"?>
<!-- Generator: Adobe Illustrator 14.0.0, SVG Export Plug-In . SVG Version: 6.00 Build 43363)  -->
<!DOCTYPE svg PUBLIC "-//W3C//DTD SVG 1.1//EN" "http://www.w3.org/Graphics/SVG/1.1/DTD/svg11.dtd">
<svg version="1.1"
	 id="Livello_1" inkscape:version="0.48.0 r9654" sodipodi:docname="3210,1.svg" xmlns:dc="http://purl.org/dc/elements/1.1/" xmlns:cc="http://creativecommons.org/ns#" xmlns:rdf="http://www.w3.org/1999/02/22-rdf-syntax-ns#" xmlns:svg="http://www.w3.org/2000/svg" xmlns:sodipodi="http://sodipodi.sourceforge.net/DTD/sodipodi-0.dtd" xmlns:inkscape="http://www.inkscape.org/namespaces/inkscape"
	 xmlns="http://www.w3.org/2000/svg" xmlns:xlink="http://www.w3.org/1999/xlink" x="0px" y="0px" width="15.362px"
	 height="6.789px" viewBox="0 3.066 15.362 6.789" enable-background="new 0 3.066 15.362 6.789" xml:space="preserve">
<sodipodi:namedview  id="namedview3067" inkscape:window-maximized="1" objecttolerance="10" gridtolerance="10" inkscape:zoom="67.119348" guidetolerance="10" inkscape:cx="8.9380868" pagecolor="#ffffff" showgrid="true" inkscape:cy="4.1958485" borderopacity="1" bordercolor="#666666" showguides="true" inkscape:pageopacity="0" inkscape:pageshadow="2" inkscape:window-width="1920" inkscape:window-height="1019" inkscape:guide-bbox="true" inkscape:window-x="-9" inkscape:window-y="-9" inkscape:current-layer="Livello_1">
	<inkscape:grid  type="xygrid" id="grid6297"></inkscape:grid>
	<sodipodi:guide  id="guide6299" orientation="1,0" position="7.3932648,8.2156258"></sodipodi:guide>
	<sodipodi:guide  id="guide6301" orientation="1,0" position="8,8.143769"></sodipodi:guide>
	<sodipodi:guide  id="guide6303" orientation="-0.70710678,0.70710678" position="2.4990193,7.4970579"></sodipodi:guide>
	<sodipodi:guide  id="guide6305" orientation="0,1" position="3.2814599,6.8343787"></sodipodi:guide>
</sodipodi:namedview>
<g id="g3063" transform="matrix(1,0.00166472,0.00259972,1.0000043,-0.01286993,-0.01282682)">
	<path id="path3065" inkscape:connector-curvature="0" sodipodi:nodetypes="cccccccccccc" d="M7.991,9.199l7.353-0.013l0.014,0.686
		L-0.004,9.871l-0.001-0.659l7.394-0.026l0.24-4.768l0.046-1.352l0.112,0l0.1,0l0.079,0.645L7.991,9.199z"/>
</g>
<g id="g3073" transform="matrix(1,0.00166472,0.00259972,1.0000043,-0.01286993,-0.01282682)">
	<path id="path3075" inkscape:connector-curvature="0" sodipodi:nodetypes="cccccccccccc" d="M7.991,9.199l7.353-0.013l0.014,0.686
		L-0.004,9.871l-0.001-0.659l7.394-0.026L7.376,3.711l0.017-0.646l0.336-0.001l0.271,0L7.999,3.719L7.991,9.199z"/>
</g>
<path id="path6307" inkscape:connector-curvature="0" fill="#0038F0" d="M7.135,9.863c-2.766-0.005-5.5-0.011-6.075-0.012
	L0.014,9.849V9.531V9.214l1.478-0.012c0.813-0.005,2.476-0.01,3.697-0.01h2.22L7.397,6.312c-0.006-1.585-0.006-2.963,0-3.062
	l0.01-0.18h0.296h0.296v3.069v3.069h3.68h3.68v0.287c0,0.159,0.005,0.311,0.01,0.336l0.01,0.047l-1.606-0.004
	C12.886,9.875,9.901,9.869,7.135,9.863z"/>
<path fill="#0038F0" d="M13.234,9.869c-0.006-0.024-0.01-0.176-0.01-0.334V9.246h-7.36V3.107H5.272L5.261,3.288
	c-0.006,0.099-0.006,1.477,0,3.062l0.011,2.88h-2.22c-1.22,0-2.24,0.018-3.052,0.01l-0.153-0.001C-0.123,9.455-0.106,9.673-0.1,9.89
	C1.066,9.892,3.018,9.896,5,9.9c2.766,0.005,5.751,0.012,6.636,0.014l1.605,0.002L13.234,9.869z"/>
<path fill="#0038F0" d="M15.4,9.809c0.02-0.119,0.028-0.239,0.031-0.358c0.005-0.084,0.023-0.164,0.029-0.246H9.999v-6.14H9.408
	L9.397,3.246c-0.006,0.1-0.006,1.478,0.001,3.062l0.01,2.882H7.189c-1.221,0-2.885,0.004-3.697,0.011L2.014,9.21v0.636l1.047,0.002
	c0.576,0,3.309,0.005,6.075,0.01c2.49,0.006,5.113,0.011,6.262,0.015C15.4,9.851,15.398,9.83,15.4,9.809z"/>
</svg>
