<?xml version="1.0" encoding="utf-8"?>
<!-- Generator: Adobe Illustrator 14.0.0, SVG Export Plug-In . SVG Version: 6.00 Build 43363)  -->
<!DOCTYPE svg PUBLIC "-//W3C//DTD SVG 1.1//EN" "http://www.w3.org/Graphics/SVG/1.1/DTD/svg11.dtd">
<svg version="1.1" id="Livello_1" xmlns="http://www.w3.org/2000/svg" xmlns:xlink="http://www.w3.org/1999/xlink" x="0px" y="0px"
	 width="18.004px" height="11.106px" viewBox="0 0 18.004 11.106" enable-background="new 0 0 18.004 11.106" xml:space="preserve">
<rect x="0.6" y="0.886" fill-rule="evenodd" clip-rule="evenodd" width="0.6" height="0.3"/>
<rect x="6.902" y="0.886" fill-rule="evenodd" clip-rule="evenodd" width="1.5" height="0.3"/>
<rect y="1.186" fill-rule="evenodd" clip-rule="evenodd" width="1.2" height="0.3"/>
<rect x="6.001" y="1.186" fill-rule="evenodd" clip-rule="evenodd" width="3.601" height="0.3"/>
<rect y="1.486" fill-rule="evenodd" clip-rule="evenodd" width="1.2" height="0.3"/>
<rect x="5.701" y="1.486" fill-rule="evenodd" clip-rule="evenodd" width="1.5" height="0.3"/>
<rect x="8.102" y="1.486" fill-rule="evenodd" clip-rule="evenodd" width="2.4" height="0.3"/>
<rect x="13.203" y="1.486" fill-rule="evenodd" clip-rule="evenodd" width="0.6" height="0.3"/>
<rect y="1.787" fill-rule="evenodd" clip-rule="evenodd" width="0.3" height="0.3"/>
<rect x="5.701" y="1.787" fill-rule="evenodd" clip-rule="evenodd" width="0.9" height="0.3"/>
<rect x="9.002" y="1.787" fill-rule="evenodd" clip-rule="evenodd" width="2.101" height="0.3"/>
<rect x="12.603" y="1.787" fill-rule="evenodd" clip-rule="evenodd" width="1.2" height="0.3"/>
<rect x="9.902" y="2.086" fill-rule="evenodd" clip-rule="evenodd" width="3.901" height="0.3"/>
<rect x="10.803" y="2.386" fill-rule="evenodd" clip-rule="evenodd" width="2.101" height="0.3"/>
<rect x="11.703" y="2.687" fill-rule="evenodd" clip-rule="evenodd" width="0.9" height="0.3"/>
<rect x="1.2" y="4.788" fill-rule="evenodd" clip-rule="evenodd" width="1.5" height="0.3"/>
<rect x="13.803" y="4.788" fill-rule="evenodd" clip-rule="evenodd" width="1.5" height="0.3"/>
<rect x="0.3" y="5.087" fill-rule="evenodd" clip-rule="evenodd" width="3.601" height="0.3"/>
<rect x="12.903" y="5.087" fill-rule="evenodd" clip-rule="evenodd" width="3.601" height="0.3"/>
<rect y="5.388" fill-rule="evenodd" clip-rule="evenodd" width="1.5" height="0.3"/>
<rect x="2.4" y="5.388" fill-rule="evenodd" clip-rule="evenodd" width="2.401" height="0.3"/>
<rect x="7.502" y="5.388" fill-rule="evenodd" clip-rule="evenodd" width="0.6" height="0.3"/>
<rect x="12.603" y="5.388" fill-rule="evenodd" clip-rule="evenodd" width="1.5" height="0.3"/>
<rect x="15.003" y="5.388" fill-rule="evenodd" clip-rule="evenodd" width="2.401" height="0.3"/>
<rect y="5.688" fill-rule="evenodd" clip-rule="evenodd" width="0.9" height="0.3"/>
<rect x="3.301" y="5.688" fill-rule="evenodd" clip-rule="evenodd" width="2.101" height="0.3"/>
<rect x="6.902" y="5.688" fill-rule="evenodd" clip-rule="evenodd" width="1.2" height="0.3"/>
<rect x="12.603" y="5.688" fill-rule="evenodd" clip-rule="evenodd" width="0.9" height="0.3"/>
<rect x="15.904" y="5.688" fill-rule="evenodd" clip-rule="evenodd" width="2.101" height="0.3"/>
<rect x="4.201" y="5.988" fill-rule="evenodd" clip-rule="evenodd" width="3.901" height="0.3"/>
<path fill-rule="evenodd" clip-rule="evenodd" d="M16.804,5.988"/>
<rect x="5.101" y="6.288" fill-rule="evenodd" clip-rule="evenodd" width="2.101" height="0.3"/>
<path fill-rule="evenodd" clip-rule="evenodd" d="M17.704,6.288"/>
<path fill-rule="evenodd" clip-rule="evenodd" d="M17.704,6.588"/>
<rect x="6.001" y="6.588" fill-rule="evenodd" clip-rule="evenodd" width="0.9" height="0.3"/>
<path fill-rule="evenodd" clip-rule="evenodd" d="M18.604,6.588"/>
<rect x="0.6" y="8.689" fill-rule="evenodd" clip-rule="evenodd" width="0.6" height="0.3"/>
<rect x="6.902" y="8.689" fill-rule="evenodd" clip-rule="evenodd" width="1.5" height="0.3"/>
<rect y="8.989" fill-rule="evenodd" clip-rule="evenodd" width="1.2" height="0.3"/>
<rect x="6.001" y="8.989" fill-rule="evenodd" clip-rule="evenodd" width="3.601" height="0.3"/>
<rect y="9.289" fill-rule="evenodd" clip-rule="evenodd" width="1.2" height="0.3"/>
<rect x="5.701" y="9.289" fill-rule="evenodd" clip-rule="evenodd" width="1.5" height="0.3"/>
<rect x="8.102" y="9.289" fill-rule="evenodd" clip-rule="evenodd" width="2.4" height="0.3"/>
<rect x="13.203" y="9.289" fill-rule="evenodd" clip-rule="evenodd" width="0.6" height="0.3"/>
<rect y="9.589" fill-rule="evenodd" clip-rule="evenodd" width="0.3" height="0.3"/>
<rect x="5.701" y="9.589" fill-rule="evenodd" clip-rule="evenodd" width="0.9" height="0.3"/>
<rect x="9.002" y="9.589" fill-rule="evenodd" clip-rule="evenodd" width="2.101" height="0.3"/>
<rect x="12.603" y="9.589" fill-rule="evenodd" clip-rule="evenodd" width="1.2" height="0.3"/>
<rect x="9.902" y="9.889" fill-rule="evenodd" clip-rule="evenodd" width="3.901" height="0.3"/>
<rect x="10.803" y="10.189" fill-rule="evenodd" clip-rule="evenodd" width="2.101" height="0.3"/>
<rect x="11.703" y="10.489" fill-rule="evenodd" clip-rule="evenodd" width="0.9" height="0.3"/>
</svg>
