<?xml version="1.0" encoding="utf-8"?>
<!-- Generator: Adobe Illustrator 14.0.0, SVG Export Plug-In . SVG Version: 6.00 Build 43363)  -->
<!DOCTYPE svg PUBLIC "-//W3C//DTD SVG 1.1//EN" "http://www.w3.org/Graphics/SVG/1.1/DTD/svg11.dtd">
<svg version="1.1"
	 id="Livello_1" inkscape:version="0.48.0 r9654" sodipodi:docname="3411,9.svg" xmlns:dc="http://purl.org/dc/elements/1.1/" xmlns:cc="http://creativecommons.org/ns#" xmlns:rdf="http://www.w3.org/1999/02/22-rdf-syntax-ns#" xmlns:svg="http://www.w3.org/2000/svg" xmlns:sodipodi="http://sodipodi.sourceforge.net/DTD/sodipodi-0.dtd" xmlns:inkscape="http://www.inkscape.org/namespaces/inkscape"
	 xmlns="http://www.w3.org/2000/svg" xmlns:xlink="http://www.w3.org/1999/xlink" x="0px" y="0px" width="2.282px"
	 height="20.336px" viewBox="0.753 1.097 2.282 20.336" enable-background="new 0.753 1.097 2.282 20.336" xml:space="preserve">
<sodipodi:namedview  id="namedview14667" inkscape:window-maximized="1" objecttolerance="10" gridtolerance="10" inkscape:zoom="18.27702" guidetolerance="10" inkscape:cx="7.0759764" pagecolor="#ffffff" showgrid="true" inkscape:cy="2.9652713" borderopacity="1" bordercolor="#666666" showguides="true" inkscape:pageopacity="0" inkscape:pageshadow="2" inkscape:window-width="1920" inkscape:window-height="1019" inkscape:guide-bbox="true" inkscape:window-x="-9" inkscape:window-y="-9" inkscape:current-layer="Livello_1">
	<inkscape:grid  type="xygrid" id="grid14673"></inkscape:grid>
	<sodipodi:guide  id="guide14675" orientation="0,1" position="-2.8712301,21"></sodipodi:guide>
	<sodipodi:guide  id="guide14677" orientation="0,1" position="-2.1471075,0.66518233"></sodipodi:guide>
	<sodipodi:guide  id="guide14679" orientation="1,0" position="1.8945066,4"></sodipodi:guide>
	<sodipodi:guide  id="guide14681" orientation="0,1" position="-2.8038698,17.22738"></sodipodi:guide>
	<sodipodi:guide  id="guide14683" orientation="0,1" position="-2.6607293,4.4289355"></sodipodi:guide>
</sodipodi:namedview>
<g id="g14655">
	<path id="path14657" fill="#004B95" d="M0,15.714V14.64 M19.862,14.64v1.074"/>
</g>
<g id="g14659">
	<path id="path14661" fill="#004B95" d="M0,10.705V9.642 M19.625,9.642v1.063"/>
</g>
<g id="g14663">
	<path id="path14665" inkscape:connector-curvature="0" sodipodi:nodetypes="ccccccccccc" fill="#004494" d="M1.632,18.091V4.518
		L0.753,4.884l1.143-3.787l1.14,3.812L2.139,4.518v13.563L3,17.669l-1.104,3.764l-1.114-3.764L1.632,18.091z"/>
</g>
<path id="path14685" inkscape:connector-curvature="0" fill="#0038F0" d="M1.369,19.552c-0.28-0.949-0.497-1.74-0.48-1.756
	c0.016-0.016,0.181,0.049,0.366,0.145c0.188,0.094,0.35,0.16,0.361,0.148s0.016-3.078,0.008-6.811L1.61,4.489L1.233,4.65
	C1.025,4.738,0.847,4.802,0.836,4.792c-0.01-0.011,0.221-0.812,0.513-1.78C1.64,2.044,1.895,1.283,1.916,1.32
	c0.071,0.133,1.042,3.445,1.017,3.47c-0.015,0.014-0.2-0.049-0.413-0.14L2.13,4.485v6.81c0,3.746,0.014,6.811,0.029,6.811
	s0.204-0.09,0.418-0.197c0.221-0.111,0.378-0.164,0.362-0.123S2.697,18.597,2.433,19.5c-0.266,0.902-0.498,1.672-0.519,1.711
	C1.895,21.25,1.648,20.503,1.369,19.552L1.369,19.552z"/>
</svg>
