<?xml version="1.0" encoding="UTF-8" standalone="no"?>
<!-- Generator: Adobe Illustrator 14.0.0, SVG Export Plug-In . SVG Version: 6.00 Build 43363)  -->

<svg
   xmlns:dc="http://purl.org/dc/elements/1.1/"
   xmlns:cc="http://creativecommons.org/ns#"
   xmlns:rdf="http://www.w3.org/1999/02/22-rdf-syntax-ns#"
   xmlns:svg="http://www.w3.org/2000/svg"
   xmlns="http://www.w3.org/2000/svg"
   xmlns:sodipodi="http://sodipodi.sourceforge.net/DTD/sodipodi-0.dtd"
   xmlns:inkscape="http://www.inkscape.org/namespaces/inkscape"
   version="1.1"
   id="Livello_1"
   x="0px"
   y="0px"
   width="15.677454"
   height="11.18033"
   viewBox="0 0 15.677454 11.18033"
   enable-background="new 0 0 15.819 11.427"
   xml:space="preserve"
   inkscape:version="0.48.5 r10040"
   sodipodi:docname="rt_3110-9.svg"><metadata
   id="metadata3348"><rdf:RDF><cc:Work
       rdf:about=""><dc:format>image/svg+xml</dc:format><dc:type
         rdf:resource="http://purl.org/dc/dcmitype/StillImage" /><dc:title /></cc:Work></rdf:RDF></metadata><defs
   id="defs3346">
	
</defs><sodipodi:namedview
   pagecolor="#ffffff"
   bordercolor="#666666"
   borderopacity="1"
   objecttolerance="10"
   gridtolerance="10"
   guidetolerance="10"
   inkscape:pageopacity="0"
   inkscape:pageshadow="2"
   inkscape:window-width="1496"
   inkscape:window-height="862"
   id="namedview3344"
   showgrid="true"
   showguides="true"
   inkscape:guide-bbox="true"
   inkscape:zoom="22.627417"
   inkscape:cx="0.54713905"
   inkscape:cy="0.78955542"
   inkscape:window-x="0"
   inkscape:window-y="0"
   inkscape:window-maximized="0"
   inkscape:current-layer="Livello_1"
   fit-margin-top="0"
   fit-margin-left="0"
   fit-margin-right="0"
   fit-margin-bottom="0"><inkscape:grid
     type="xygrid"
     id="grid3350"
     empspacing="1"
     visible="true"
     enabled="true"
     snapvisiblegridlinesonly="true"
     originx="-0.041043567px"
     originy="-0.012154px" /><sodipodi:guide
     orientation="0,1"
     position="-2.0410436,5.7871667"
     id="guide3352" /><sodipodi:guide
     orientation="-0.70710678,0.70710678"
     position="6.9589564,10.987846"
     id="guide3354" /><sodipodi:guide
     orientation="1,0"
     position="7.4695521,10.179439"
     id="guide3356" /><sodipodi:guide
     orientation="1,0"
     position="8.2871612,8.2590083"
     id="guide3358" /></sodipodi:namedview>
<path
   sodipodi:nodetypes="ccccccccccccc"
   inkscape:connector-curvature="0"
   id="path3342"
   d="m 7.469552,11.192484 0.039063,-5.0680001 -7.49659557,0.068 -0.0022813,-0.7993207 7.45981437,0 0,-5.40704824 0.8176091,-0.002518 0,5.40956594 7.3907954,0 0,0.799321 -7.3907954,-3e-7 0,5.0000004 z" />
<path
   style="fill:#000000;fill-opacity:1;stroke:none"
   d="m 7.4823481,8.6797608 0,-2.5005698 -0.9269406,0.011204 c -2.110292,0.025507 -6.54409946,0.010677 -6.55292215,0.00209 -0.0052289,-0.00509 -7.5318e-4,-0.1425465 3.3519e-4,-0.3717877 l 0.0020298,-0.427533 3.72117066,0.00686 3.7563271,0 0,-2.7000116 0,-2.7000116 0.3992975,0 0.3992975,0 0,2.7000116 0,2.7000116 3.6982549,0 3.698255,0 0,0.428644 -0.01172,0.3638167 -0.525431,0 c -0.295432,-0.00584 -1.63776,0.010174 -2.997273,0 -1.359512,-0.010174 -2.8050389,0.00935 -3.1840727,0 l -0.6780142,-0.016731 0,2.5022886 0,2.5022885 -0.3992975,0 -0.3992975,0 z"
   id="path6928"
   inkscape:connector-curvature="0"
   sodipodi:nodetypes="ccscsccccccccccccccsscccccc" /></svg>