<?xml version="1.0" encoding="utf-8"?>
<!-- Generator: Adobe Illustrator 14.0.0, SVG Export Plug-In . SVG Version: 6.00 Build 43363)  -->
<!DOCTYPE svg PUBLIC "-//W3C//DTD SVG 1.1//EN" "http://www.w3.org/Graphics/SVG/1.1/DTD/svg11.dtd">
<svg version="1.1" id="Livello_1" xmlns="http://www.w3.org/2000/svg" xmlns:xlink="http://www.w3.org/1999/xlink" x="0px" y="0px"
	 width="13.249px" height="6.928px" viewBox="0 0 13.249 6.928" enable-background="new 0 0 13.249 6.928" xml:space="preserve">
<g>
	<path d="M12.693,1.595V1.587c0-0.276-0.098-0.513-0.294-0.708s-0.432-0.294-0.708-0.294c-0.283,0-0.523,0.1-0.722,0.298
		s-0.29,0.436-0.272,0.712c0,0.018,0,0.032,0,0.043c0,0.432-0.149,0.798-0.448,1.097C9.951,3.035,9.586,3.185,9.154,3.185
		c-0.43,0-0.795-0.15-1.094-0.449S7.613,2.071,7.613,1.639c0-0.006,0-0.012,0-0.017V1.595c0-0.276-0.096-0.514-0.289-0.712
		C7.132,0.684,6.898,0.584,6.623,0.584s-0.51,0.098-0.706,0.294C5.723,1.074,5.625,1.311,5.625,1.587v0.052
		c0,0.432-0.15,0.798-0.449,1.097S4.513,3.185,4.087,3.185s-0.789-0.15-1.088-0.449c-0.3-0.299-0.45-0.665-0.45-1.097l0.009-0.052
		c0-0.276-0.098-0.513-0.294-0.708S1.832,0.584,1.555,0.584c-0.276,0-0.511,0.1-0.704,0.298s-0.29,0.436-0.29,0.712H0.009V1.561
		c0-0.432,0.149-0.798,0.449-1.097c0.299-0.3,0.666-0.449,1.097-0.449c0.426,0,0.79,0.149,1.089,0.449
		c0.299,0.299,0.449,0.665,0.449,1.097v0.034c0,0.277,0.097,0.514,0.29,0.713s0.428,0.298,0.704,0.298
		c0.277,0,0.513-0.098,0.709-0.294C4.991,2.117,5.089,1.88,5.089,1.604V1.561c0-0.432,0.149-0.798,0.448-1.097
		c0.298-0.3,0.663-0.449,1.094-0.449c0.425,0,0.786,0.149,1.082,0.449c0.295,0.299,0.443,0.665,0.443,1.097v0.043
		c0,0.276,0.098,0.513,0.294,0.708c0.195,0.196,0.432,0.294,0.708,0.294c0.282,0,0.517-0.098,0.704-0.294s0.281-0.435,0.281-0.717
		V1.561c0-0.432,0.149-0.798,0.449-1.097c0.299-0.3,0.665-0.449,1.098-0.449c0.426,0,0.789,0.149,1.088,0.449
		c0.3,0.299,0.449,0.665,0.449,1.097v0.034H12.693z M12.693,5.345V5.336c0-0.276-0.098-0.512-0.294-0.708s-0.432-0.294-0.708-0.294
		c-0.283,0-0.523,0.098-0.722,0.295c-0.198,0.196-0.29,0.436-0.272,0.719c0,0.018,0,0.029,0,0.035c0,0.433-0.149,0.8-0.448,1.101
		C9.951,6.785,9.586,6.935,9.154,6.935c-0.43,0-0.795-0.15-1.094-0.451S7.613,5.816,7.613,5.383V5.365V5.348
		c0-0.277-0.096-0.516-0.289-0.715c-0.192-0.2-0.426-0.299-0.701-0.299s-0.51,0.098-0.706,0.295
		c-0.195,0.196-0.292,0.434-0.292,0.71v0.043c0,0.433-0.15,0.8-0.449,1.101S4.513,6.935,4.087,6.935s-0.789-0.15-1.088-0.451
		c-0.3-0.301-0.45-0.668-0.45-1.101l0.009-0.043c0-0.277-0.098-0.514-0.294-0.71C2.068,4.432,1.832,4.334,1.555,4.334
		c-0.282,0-0.518,0.098-0.708,0.294c-0.19,0.196-0.285,0.435-0.285,0.717H0.009V5.302c0-0.432,0.149-0.798,0.449-1.097
		c0.299-0.299,0.666-0.449,1.097-0.449c0.426,0,0.79,0.15,1.089,0.451c0.299,0.3,0.449,0.667,0.449,1.101V5.35
		c0,0.277,0.097,0.516,0.29,0.716c0.193,0.199,0.428,0.299,0.704,0.299c0.277,0,0.513-0.099,0.709-0.295
		c0.195-0.197,0.293-0.434,0.293-0.711c0-0.029,0-0.046,0-0.052c0-0.433,0.149-0.8,0.448-1.101c0.298-0.301,0.663-0.451,1.094-0.451
		c0.425,0,0.786,0.15,1.082,0.451c0.295,0.3,0.443,0.667,0.443,1.101v0.052c0,0.277,0.098,0.514,0.294,0.711
		c0.195,0.196,0.432,0.295,0.708,0.295s0.51-0.1,0.7-0.299c0.189-0.2,0.285-0.438,0.285-0.716V5.307c0-0.433,0.149-0.8,0.449-1.101
		c0.299-0.301,0.665-0.451,1.098-0.451c0.426,0,0.789,0.15,1.088,0.449c0.3,0.299,0.449,0.665,0.449,1.097v0.043H12.693z"/>
</g>
</svg>
