<?xml version="1.0" encoding="utf-8"?>
<!-- Generator: Adobe Illustrator 14.0.0, SVG Export Plug-In . SVG Version: 6.00 Build 43363)  -->
<!DOCTYPE svg PUBLIC "-//W3C//DTD SVG 1.1//EN" "http://www.w3.org/Graphics/SVG/1.1/DTD/svg11.dtd">
<svg version="1.1"
	 id="Livello_1" sodipodi:docname="3351,9.svg" inkscape:version="0.48.0 r9654" xmlns:dc="http://purl.org/dc/elements/1.1/" xmlns:cc="http://creativecommons.org/ns#" xmlns:rdf="http://www.w3.org/1999/02/22-rdf-syntax-ns#" xmlns:svg="http://www.w3.org/2000/svg" xmlns:sodipodi="http://sodipodi.sourceforge.net/DTD/sodipodi-0.dtd" xmlns:inkscape="http://www.inkscape.org/namespaces/inkscape"
	 xmlns="http://www.w3.org/2000/svg" xmlns:xlink="http://www.w3.org/1999/xlink" x="0px" y="0px" width="19.624px"
	 height="10.92px" viewBox="0 0.871 19.624 10.92" enable-background="new 0 0.871 19.624 10.92" xml:space="preserve">
<sodipodi:namedview  id="namedview13430" inkscape:window-maximized="1" bordercolor="#666666" inkscape:cy="5.6239336" pagecolor="#ffffff" inkscape:cx="11.424414" inkscape:zoom="57.944533" guidetolerance="10" gridtolerance="10" objecttolerance="10" showgrid="false" borderopacity="1" inkscape:current-layer="Livello_1" inkscape:window-y="-9" inkscape:window-x="-9" inkscape:window-height="1019" inkscape:window-width="1920" inkscape:pageshadow="2" inkscape:pageopacity="0">
	</sodipodi:namedview>
<g id="g13414">
	<path id="path13416" fill="#004B95" d="M0,11.876v-1.074 M19.862,10.802v1.074"/>
</g>
<g id="g13418">
	<path id="path13420" inkscape:connector-curvature="0" fill="#004B95" d="M0,5.937h19.624v0.797H0V5.937z"/>
</g>
<g id="g13422" transform="translate(-0.03451577,-0.15532095)">
	<path id="path13424" inkscape:connector-curvature="0" fill="#004B95" d="M6.887,6.63h6.088L9.89,11.946L6.887,6.63z M7.232,6.811
		l2.659,4.727l2.712-4.727H7.232z"/>
</g>
<g id="g13426">
	<path id="path13428" inkscape:connector-curvature="0" fill="#004B95" d="M12.945,6.186H6.857l3.086-5.315L12.945,6.186z
		 M12.6,6.005L9.943,1.278L7.23,6.005H12.6z"/>
</g>
<path id="path13436" inkscape:connector-curvature="0" fill="#0038F0" d="M8.43,9.245l-1.422-2.52L3.51,6.724H0.01V6.336V5.947H3.51
	h3.499L8.474,3.42c0.866-1.492,1.472-2.519,1.479-2.507c0.007,0.012,0.648,1.147,1.426,2.523l1.414,2.502l3.41,0.004l3.411,0.004
	v0.388v0.388l-3.418,0.004l-3.418,0.005L11.324,9.24c-0.801,1.38-1.46,2.512-1.464,2.517C9.855,11.761,9.212,10.63,8.43,9.245
	L8.43,9.245z M11.211,9.042l1.325-2.311l-1.327-0.004c-0.729-0.002-1.924-0.002-2.653,0L7.228,6.732l1.297,2.305
	c0.713,1.268,1.303,2.314,1.312,2.327c0.01,0.015,0.021,0.017,0.031,0.006C9.878,11.361,10.481,10.313,11.211,9.042z M12.532,5.865
	c-0.16-0.308-2.58-4.585-2.593-4.581c-0.012,0.004-2.681,4.64-2.681,4.657c0,0.003,1.196,0.006,2.658,0.006h2.657L12.532,5.865z"/>
</svg>
