<?xml version="1.0" encoding="utf-8"?>
<!-- Generator: Adobe Illustrator 14.0.0, SVG Export Plug-In . SVG Version: 6.00 Build 43363)  -->
<!DOCTYPE svg PUBLIC "-//W3C//DTD SVG 1.1//EN" "http://www.w3.org/Graphics/SVG/1.1/DTD/svg11.dtd">
<svg version="1.1"
	 id="Livello_1" inkscape:version="0.48.0 r9654" sodipodi:docname="3100,9.svg" xmlns:dc="http://purl.org/dc/elements/1.1/" xmlns:cc="http://creativecommons.org/ns#" xmlns:rdf="http://www.w3.org/1999/02/22-rdf-syntax-ns#" xmlns:svg="http://www.w3.org/2000/svg" xmlns:sodipodi="http://sodipodi.sourceforge.net/DTD/sodipodi-0.dtd" xmlns:inkscape="http://www.inkscape.org/namespaces/inkscape"
	 xmlns="http://www.w3.org/2000/svg" xmlns:xlink="http://www.w3.org/1999/xlink" x="0px" y="0px" width="2.04px" height="10.207px"
	 viewBox="6.29 0 2.04 10.207" enable-background="new 6.29 0 2.04 10.207" xml:space="preserve">
<sodipodi:namedview  id="namedview3067" inkscape:window-maximized="1" objecttolerance="10" gridtolerance="10" inkscape:zoom="78.190123" guidetolerance="10" inkscape:cx="7.6810002" pagecolor="#ffffff" showgrid="false" inkscape:cy="4.9499998" borderopacity="1" bordercolor="#666666" showguides="true" inkscape:pageopacity="0" inkscape:pageshadow="2" inkscape:window-width="1920" inkscape:window-height="1019" inkscape:guide-bbox="true" inkscape:window-x="0" inkscape:window-y="0" inkscape:current-layer="Livello_1">
	</sodipodi:namedview>
<g>
	<path fill="#004B94" d="M7.633,30.302h-0.65"/>
</g>
<g>
	<path fill="#004B94" d="M8.33,3.096L7.476,2.714v5.593H7.093v-5.58L6.29,3.097L7.317,0L8.33,3.096z M6.291,9.18
		c0-0.281,0.1-0.523,0.3-0.726c0.199-0.199,0.438-0.3,0.719-0.3s0.521,0.101,0.72,0.302C8.229,8.657,8.33,8.899,8.33,9.18
		c0,0.282-0.101,0.522-0.3,0.725c-0.198,0.202-0.439,0.302-0.72,0.302s-0.521-0.101-0.72-0.302C6.39,9.705,6.291,9.464,6.291,9.18z
		 M6.673,9.18c0,0.172,0.063,0.319,0.188,0.444C6.987,9.75,7.137,9.811,7.31,9.811s0.323-0.063,0.449-0.187
		C7.884,9.501,7.947,9.352,7.947,9.18c0-0.173-0.063-0.32-0.188-0.443C7.633,8.612,7.483,8.55,7.31,8.55S6.987,8.612,6.861,8.737
		C6.736,8.86,6.673,9.009,6.673,9.18z"/>
</g>
</svg>
