<?xml version="1.0" encoding="UTF-8" standalone="no"?>
<!-- Generator: Adobe Illustrator 14.0.0, SVG Export Plug-In . SVG Version: 6.00 Build 43363)  -->

<svg
   xmlns:dc="http://purl.org/dc/elements/1.1/"
   xmlns:cc="http://creativecommons.org/ns#"
   xmlns:rdf="http://www.w3.org/1999/02/22-rdf-syntax-ns#"
   xmlns:svg="http://www.w3.org/2000/svg"
   xmlns="http://www.w3.org/2000/svg"
   xmlns:sodipodi="http://sodipodi.sourceforge.net/DTD/sodipodi-0.dtd"
   xmlns:inkscape="http://www.inkscape.org/namespaces/inkscape"
   version="1.1"
   id="Livello_1"
   x="0px"
   y="0px"
   width="13.892px"
   height="9.127px"
   viewBox="0 0 13.892 9.127"
   enable-background="new 0 0 13.892 9.127"
   xml:space="preserve"
   inkscape:version="0.48.0 r9654"
   sodipodi:docname="3140,9.svg"><metadata
   id="metadata3764"><rdf:RDF><cc:Work
       rdf:about=""><dc:format>image/svg+xml</dc:format><dc:type
         rdf:resource="http://purl.org/dc/dcmitype/StillImage" /></cc:Work></rdf:RDF></metadata><defs
   id="defs3762" /><sodipodi:namedview
   pagecolor="#ffffff"
   bordercolor="#666666"
   borderopacity="1"
   objecttolerance="10"
   gridtolerance="10"
   guidetolerance="10"
   inkscape:pageopacity="0"
   inkscape:pageshadow="2"
   inkscape:window-width="1678"
   inkscape:window-height="816"
   id="namedview3760"
   showgrid="true"
   showguides="true"
   inkscape:guide-bbox="true"
   inkscape:zoom="36.34907"
   inkscape:cx="8.2029658"
   inkscape:cy="3.1689079"
   inkscape:window-x="0"
   inkscape:window-y="0"
   inkscape:window-maximized="0"
   inkscape:current-layer="Livello_1"><inkscape:grid
     type="xygrid"
     id="grid3766" /><sodipodi:guide
     orientation="0,1"
     position="-4,0.72783762"
     id="guide3768" /></sodipodi:namedview>
<g
   id="g3756"
   transform="translate(0.0399999,0.04799998)">
	<path
   d="M -2.0950116e-7,8.3991624 13.81006,8.3511624 13.798406,9.079 0.011,9.138 z M 6.96,8.4628919 C 6.967,8.1388919 6.967,7.533 6.96,7.413 6.953,7.285 6.938,7.187 6.916,7.12 6.863,6.977 6.753,6.829 6.588,6.674 6.422,6.52 6.275,6.299 6.148,6.014 5.99,5.683 5.926,5.364 5.957,5.055 6.002,4.559 6.307,4.089 6.871,3.645 7.111,3.45 7.265,3.311 7.333,3.228 7.483,3.047 7.574,2.819 7.604,2.54 7.656,2.12 7.483,1.635 7.085,1.085 6.852,0.754 6.75,0.427 6.78,0.104 L 7.333,0.115 C 7.295,0.341 7.367,0.559 7.547,0.77 8.006,1.319 8.216,1.897 8.179,2.507 8.142,3.116 7.832,3.63 7.249,4.051 6.763,4.405 6.521,4.795 6.521,5.225 c 0,0.24 0.07,0.473 0.212,0.699 C 6.799,6.037 6.952,6.229 7.19,6.499 7.398,6.726 7.51,7.033 7.524,7.425 7.54,7.762 7.52083,8.7574002 7.490827,8.4852378 z"
   id="path3758"
   inkscape:connector-curvature="0"
   sodipodi:nodetypes="ccccccccccccccccccccsccccc" />
</g>
</svg>