<?xml version="1.0" encoding="utf-8"?>
<!-- Generator: Adobe Illustrator 14.0.0, SVG Export Plug-In . SVG Version: 6.00 Build 43363)  -->
<!DOCTYPE svg PUBLIC "-//W3C//DTD SVG 1.1//EN" "http://www.w3.org/Graphics/SVG/1.1/DTD/svg11.dtd">
<svg version="1.1" id="Livello_1" xmlns="http://www.w3.org/2000/svg" xmlns:xlink="http://www.w3.org/1999/xlink" x="0px" y="0px"
	 width="4.146px" height="4.015px" viewBox="0 0 4.146 4.015" enable-background="new 0 0 4.146 4.015" xml:space="preserve">
<g>
	<path fill="#A84C21" d="M0,2.489l0.876-0.32l0.093,0.26L0.095,2.754L0,2.489z M0.783,0.071l0.592,0.722L1.156,0.97L0.564,0.248
		L0.783,0.071z M0.913,1.832c0-0.324,0.114-0.601,0.341-0.828c0.228-0.228,0.504-0.341,0.828-0.341c0.321,0,0.596,0.114,0.826,0.341
		c0.229,0.227,0.343,0.503,0.343,0.828c0,0.322-0.114,0.597-0.343,0.826C2.679,2.887,2.404,3.001,2.083,3.001
		c-0.324,0-0.6-0.114-0.828-0.343C1.027,2.429,0.913,2.154,0.913,1.832z M1.942,4.015V3.082h0.281v0.933H1.942z M2.716,0.747
		L3.277,0l0.226,0.171l-0.56,0.74L2.716,0.747z M4.036,2.813L3.173,2.453l0.109-0.26l0.863,0.367L4.036,2.813z"/>
</g>
</svg>
