<?xml version="1.0" encoding="utf-8"?>
<!-- Generator: Adobe Illustrator 14.0.0, SVG Export Plug-In . SVG Version: 6.00 Build 43363)  -->
<!DOCTYPE svg PUBLIC "-//W3C//DTD SVG 1.1//EN" "http://www.w3.org/Graphics/SVG/1.1/DTD/svg11.dtd">
<svg version="1.1"
	 id="Livello_1" sodipodi:docname="3120,9.svg" inkscape:version="0.48.0 r9654" xmlns:dc="http://purl.org/dc/elements/1.1/" xmlns:cc="http://creativecommons.org/ns#" xmlns:rdf="http://www.w3.org/1999/02/22-rdf-syntax-ns#" xmlns:svg="http://www.w3.org/2000/svg" xmlns:sodipodi="http://sodipodi.sourceforge.net/DTD/sodipodi-0.dtd" xmlns:inkscape="http://www.inkscape.org/namespaces/inkscape"
	 xmlns="http://www.w3.org/2000/svg" xmlns:xlink="http://www.w3.org/1999/xlink" x="0px" y="0px" width="15.652px"
	 height="5.862px" viewBox="0.686 0.578 15.652 5.862" enable-background="new 0.686 0.578 15.652 5.862" xml:space="preserve">
<sodipodi:namedview  id="namedview3485" inkscape:window-maximized="0" bordercolor="#666666" inkscape:cy="3.0671565" pagecolor="#ffffff" inkscape:cx="7.7639978" inkscape:zoom="63.098207" guidetolerance="10" gridtolerance="10" objecttolerance="10" showguides="true" showgrid="true" borderopacity="1" inkscape:current-layer="Livello_1" inkscape:window-y="0" inkscape:window-x="0" inkscape:guide-bbox="true" inkscape:window-height="804" inkscape:window-width="1410" inkscape:pageshadow="2" inkscape:pageopacity="0">
	<inkscape:grid  type="xygrid" id="grid3491"></inkscape:grid>
	<sodipodi:guide  id="guide3493" position="-0.45960102,0.82411217" orientation="0,1"></sodipodi:guide>
</sodipodi:namedview>
<g id="g3481">
	<path id="path3483" inkscape:connector-curvature="0" sodipodi:nodetypes="cccccscsssssss" d="M0.662,5.68l15.676,0.016V6.44
		L0.686,6.431L0.662,5.68z M6.758,2.359c0-0.498,0.115-0.892,0.459-1.238C7.562,0.777,8.042,0.578,8.54,0.578
		c0.492,0,0.91,0.173,1.255,0.52c0.346,0.348,0.518,0.768,0.518,1.261c0,0.491-0.173,0.909-0.518,1.255
		C9.451,3.959,9.032,4.131,8.54,4.131c-0.493,0-0.913-0.172-1.26-0.517S6.758,2.85,6.758,2.359z"/>
</g>
</svg>
