<?xml version="1.0" encoding="utf-8"?>
<!-- Generator: Adobe Illustrator 14.0.0, SVG Export Plug-In . SVG Version: 6.00 Build 43363)  -->
<!DOCTYPE svg PUBLIC "-//W3C//DTD SVG 1.1//EN" "http://www.w3.org/Graphics/SVG/1.1/DTD/svg11.dtd">
<svg version="1.1" id="Livello_1" xmlns="http://www.w3.org/2000/svg" xmlns:xlink="http://www.w3.org/1999/xlink" x="0px" y="0px"
	 width="14.144px" height="11.105px" viewBox="0 0 14.144 11.105" enable-background="new 0 0 14.144 11.105" xml:space="preserve">
<rect x="0.941" y="0.265" fill-rule="evenodd" clip-rule="evenodd" fill="#767885" width="0.6" height="0.3"/>
<rect x="7.242" y="0.265" fill-rule="evenodd" clip-rule="evenodd" fill="#767885" width="1.5" height="0.3"/>
<rect x="19.846" y="0.265" fill-rule="evenodd" clip-rule="evenodd" fill="#767885" width="1.5" height="0.3"/>
<rect x="0.341" y="0.565" fill-rule="evenodd" clip-rule="evenodd" fill="#767885" width="1.2" height="0.3"/>
<rect x="6.342" y="0.565" fill-rule="evenodd" clip-rule="evenodd" fill="#767885" width="3.602" height="0.3"/>
<rect x="18.946" y="0.565" fill-rule="evenodd" clip-rule="evenodd" fill="#767885" width="3.601" height="0.3"/>
<rect x="0.341" y="0.865" fill-rule="evenodd" clip-rule="evenodd" fill="#767885" width="1.2" height="0.3"/>
<rect x="6.042" y="0.865" fill-rule="evenodd" clip-rule="evenodd" fill="#767885" width="1.5" height="0.3"/>
<rect x="8.443" y="0.865" fill-rule="evenodd" clip-rule="evenodd" fill="#767885" width="2.4" height="0.3"/>
<rect x="13.543" y="0.865" fill-rule="evenodd" clip-rule="evenodd" fill="#767885" width="0.601" height="0.3"/>
<rect x="18.645" y="0.865" fill-rule="evenodd" clip-rule="evenodd" fill="#767885" width="1.5" height="0.3"/>
<rect x="21.045" y="0.865" fill-rule="evenodd" clip-rule="evenodd" fill="#767885" width="2.4" height="0.3"/>
<rect x="0.341" y="1.165" fill-rule="evenodd" clip-rule="evenodd" fill="#767885" width="0.3" height="0.3"/>
<rect x="6.042" y="1.165" fill-rule="evenodd" clip-rule="evenodd" fill="#767885" width="0.9" height="0.3"/>
<rect x="9.343" y="1.165" fill-rule="evenodd" clip-rule="evenodd" fill="#767885" width="2.101" height="0.3"/>
<rect x="12.944" y="1.165" fill-rule="evenodd" clip-rule="evenodd" fill="#767885" width="1.2" height="0.3"/>
<rect x="18.645" y="1.165" fill-rule="evenodd" clip-rule="evenodd" fill="#767885" width="0.9" height="0.3"/>
<rect x="21.946" y="1.165" fill-rule="evenodd" clip-rule="evenodd" fill="#767885" width="2.101" height="0.3"/>
<rect x="10.242" y="1.465" fill-rule="evenodd" clip-rule="evenodd" fill="#767885" width="3.901" height="0.3"/>
<rect x="22.846" y="1.465" fill-rule="evenodd" clip-rule="evenodd" fill="#767885" width="2.701" height="0.3"/>
<rect x="11.143" y="1.765" fill-rule="evenodd" clip-rule="evenodd" fill="#767885" width="2.102" height="0.301"/>
<rect x="23.746" y="1.765" fill-rule="evenodd" clip-rule="evenodd" fill="#767885" width="1.801" height="0.301"/>
<rect x="12.043" y="2.066" fill-rule="evenodd" clip-rule="evenodd" fill="#767885" width="0.9" height="0.3"/>
<rect x="24.647" y="2.066" fill-rule="evenodd" clip-rule="evenodd" fill="#767885" width="0.9" height="0.3"/>
<rect x="1.541" y="4.166" fill-rule="evenodd" clip-rule="evenodd" fill="#767885" width="1.5" height="0.3"/>
<rect x="14.144" y="4.166" fill-rule="evenodd" clip-rule="evenodd" fill="#767885" width="1.501" height="0.3"/>
<rect x="0.641" y="4.466" fill-rule="evenodd" clip-rule="evenodd" fill="#767885" width="3.601" height="0.301"/>
<rect x="13.244" y="4.466" fill-rule="evenodd" clip-rule="evenodd" fill="#767885" width="3.6" height="0.301"/>
<rect x="0.341" y="4.767" fill-rule="evenodd" clip-rule="evenodd" fill="#767885" width="1.5" height="0.299"/>
<rect x="2.741" y="4.767" fill-rule="evenodd" clip-rule="evenodd" fill="#767885" width="2.401" height="0.299"/>
<rect x="7.843" y="4.767" fill-rule="evenodd" clip-rule="evenodd" fill="#767885" width="0.6" height="0.299"/>
<rect x="12.944" y="4.767" fill-rule="evenodd" clip-rule="evenodd" fill="#767885" width="1.5" height="0.299"/>
<rect x="15.344" y="4.767" fill-rule="evenodd" clip-rule="evenodd" fill="#767885" width="2.4" height="0.299"/>
<rect x="20.446" y="4.767" fill-rule="evenodd" clip-rule="evenodd" fill="#767885" width="0.6" height="0.299"/>
<rect x="0.341" y="5.066" fill-rule="evenodd" clip-rule="evenodd" fill="#767885" width="0.9" height="0.301"/>
<rect x="3.641" y="5.066" fill-rule="evenodd" clip-rule="evenodd" fill="#767885" width="2.101" height="0.301"/>
<rect x="7.242" y="5.066" fill-rule="evenodd" clip-rule="evenodd" fill="#767885" width="1.2" height="0.301"/>
<rect x="12.944" y="5.066" fill-rule="evenodd" clip-rule="evenodd" fill="#767885" width="0.9" height="0.301"/>
<rect x="16.244" y="5.066" fill-rule="evenodd" clip-rule="evenodd" fill="#767885" width="2.101" height="0.301"/>
<rect x="19.846" y="5.066" fill-rule="evenodd" clip-rule="evenodd" fill="#767885" width="1.199" height="0.301"/>
<rect x="4.542" y="5.366" fill-rule="evenodd" clip-rule="evenodd" fill="#767885" width="3.901" height="0.3"/>
<rect x="17.145" y="5.366" fill-rule="evenodd" clip-rule="evenodd" fill="#767885" width="3.9" height="0.3"/>
<rect x="5.442" y="5.666" fill-rule="evenodd" clip-rule="evenodd" fill="#767885" width="2.101" height="0.3"/>
<rect x="18.045" y="5.666" fill-rule="evenodd" clip-rule="evenodd" fill="#767885" width="2.1" height="0.3"/>
<rect x="6.342" y="5.966" fill-rule="evenodd" clip-rule="evenodd" fill="#767885" width="0.9" height="0.301"/>
<rect x="18.946" y="5.966" fill-rule="evenodd" clip-rule="evenodd" fill="#767885" width="0.9" height="0.301"/>
<rect x="0.941" y="8.068" fill-rule="evenodd" clip-rule="evenodd" fill="#767885" width="0.6" height="0.3"/>
<rect x="7.242" y="8.068" fill-rule="evenodd" clip-rule="evenodd" fill="#767885" width="1.5" height="0.3"/>
<rect x="19.846" y="8.068" fill-rule="evenodd" clip-rule="evenodd" fill="#767885" width="1.5" height="0.3"/>
<rect x="0.341" y="8.367" fill-rule="evenodd" clip-rule="evenodd" fill="#767885" width="1.2" height="0.3"/>
<rect x="6.342" y="8.367" fill-rule="evenodd" clip-rule="evenodd" fill="#767885" width="3.602" height="0.3"/>
<rect x="18.946" y="8.367" fill-rule="evenodd" clip-rule="evenodd" fill="#767885" width="3.601" height="0.3"/>
<rect x="0.341" y="8.667" fill-rule="evenodd" clip-rule="evenodd" fill="#767885" width="1.2" height="0.301"/>
<rect x="6.042" y="8.667" fill-rule="evenodd" clip-rule="evenodd" fill="#767885" width="1.5" height="0.301"/>
<rect x="8.443" y="8.667" fill-rule="evenodd" clip-rule="evenodd" fill="#767885" width="2.4" height="0.301"/>
<rect x="13.543" y="8.667" fill-rule="evenodd" clip-rule="evenodd" fill="#767885" width="0.601" height="0.301"/>
<rect x="18.645" y="8.667" fill-rule="evenodd" clip-rule="evenodd" fill="#767885" width="1.5" height="0.301"/>
<rect x="21.045" y="8.667" fill-rule="evenodd" clip-rule="evenodd" fill="#767885" width="2.4" height="0.301"/>
<rect x="0.341" y="8.968" fill-rule="evenodd" clip-rule="evenodd" fill="#767885" width="0.3" height="0.3"/>
<rect x="6.042" y="8.968" fill-rule="evenodd" clip-rule="evenodd" fill="#767885" width="0.9" height="0.3"/>
<rect x="9.343" y="8.968" fill-rule="evenodd" clip-rule="evenodd" fill="#767885" width="2.101" height="0.3"/>
<rect x="12.944" y="8.968" fill-rule="evenodd" clip-rule="evenodd" fill="#767885" width="1.2" height="0.3"/>
<rect x="18.645" y="8.968" fill-rule="evenodd" clip-rule="evenodd" fill="#767885" width="0.9" height="0.3"/>
<rect x="21.946" y="8.968" fill-rule="evenodd" clip-rule="evenodd" fill="#767885" width="2.101" height="0.3"/>
<rect x="10.242" y="9.268" fill-rule="evenodd" clip-rule="evenodd" fill="#767885" width="3.901" height="0.3"/>
<rect x="22.846" y="9.268" fill-rule="evenodd" clip-rule="evenodd" fill="#767885" width="2.701" height="0.3"/>
<rect x="11.143" y="9.568" fill-rule="evenodd" clip-rule="evenodd" fill="#767885" width="2.102" height="0.301"/>
<rect x="23.746" y="9.568" fill-rule="evenodd" clip-rule="evenodd" fill="#767885" width="1.801" height="0.301"/>
<rect x="12.043" y="9.868" fill-rule="evenodd" clip-rule="evenodd" fill="#767885" width="0.9" height="0.3"/>
<rect x="24.647" y="9.868" fill-rule="evenodd" clip-rule="evenodd" fill="#767885" width="0.9" height="0.3"/>
<rect x="1.541" y="11.969" fill-rule="evenodd" clip-rule="evenodd" fill="#767885" width="1.5" height="0.3"/>
<rect x="14.144" y="11.969" fill-rule="evenodd" clip-rule="evenodd" fill="#767885" width="1.501" height="0.3"/>
<rect x="0.641" y="12.269" fill-rule="evenodd" clip-rule="evenodd" fill="#767885" width="3.601" height="0.301"/>
<rect x="13.244" y="12.269" fill-rule="evenodd" clip-rule="evenodd" fill="#767885" width="3.6" height="0.301"/>
<rect x="0.341" y="12.57" fill-rule="evenodd" clip-rule="evenodd" fill="#767885" width="1.5" height="0.3"/>
<rect x="2.741" y="12.57" fill-rule="evenodd" clip-rule="evenodd" fill="#767885" width="2.401" height="0.3"/>
<rect x="7.843" y="12.57" fill-rule="evenodd" clip-rule="evenodd" fill="#767885" width="0.6" height="0.3"/>
<rect x="12.944" y="12.57" fill-rule="evenodd" clip-rule="evenodd" fill="#767885" width="1.5" height="0.3"/>
<rect x="15.344" y="12.57" fill-rule="evenodd" clip-rule="evenodd" fill="#767885" width="2.4" height="0.3"/>
<rect x="20.446" y="12.57" fill-rule="evenodd" clip-rule="evenodd" fill="#767885" width="0.6" height="0.3"/>
<rect x="0.341" y="12.869" fill-rule="evenodd" clip-rule="evenodd" fill="#767885" width="0.9" height="0.3"/>
<rect x="3.641" y="12.869" fill-rule="evenodd" clip-rule="evenodd" fill="#767885" width="2.101" height="0.3"/>
<rect x="7.242" y="12.869" fill-rule="evenodd" clip-rule="evenodd" fill="#767885" width="1.2" height="0.3"/>
<rect x="12.944" y="12.869" fill-rule="evenodd" clip-rule="evenodd" fill="#767885" width="0.9" height="0.3"/>
<rect x="16.244" y="12.869" fill-rule="evenodd" clip-rule="evenodd" fill="#767885" width="2.101" height="0.3"/>
<rect x="19.846" y="12.869" fill-rule="evenodd" clip-rule="evenodd" fill="#767885" width="1.199" height="0.3"/>
<rect x="4.542" y="13.169" fill-rule="evenodd" clip-rule="evenodd" fill="#767885" width="3.901" height="0.301"/>
<rect x="17.145" y="13.169" fill-rule="evenodd" clip-rule="evenodd" fill="#767885" width="3.9" height="0.301"/>
<rect x="5.442" y="13.47" fill-rule="evenodd" clip-rule="evenodd" fill="#767885" width="2.101" height="0.299"/>
<rect x="18.045" y="13.47" fill-rule="evenodd" clip-rule="evenodd" fill="#767885" width="2.1" height="0.299"/>
<rect x="6.342" y="13.769" fill-rule="evenodd" clip-rule="evenodd" fill="#767885" width="0.9" height="0.301"/>
<rect x="18.946" y="13.769" fill-rule="evenodd" clip-rule="evenodd" fill="#767885" width="0.9" height="0.301"/>
<rect x="0.941" y="15.87" fill-rule="evenodd" clip-rule="evenodd" fill="#767885" width="0.6" height="0.3"/>
<rect x="7.242" y="15.87" fill-rule="evenodd" clip-rule="evenodd" fill="#767885" width="1.5" height="0.3"/>
<rect x="19.846" y="15.87" fill-rule="evenodd" clip-rule="evenodd" fill="#767885" width="1.5" height="0.3"/>
<rect x="0.341" y="16.17" fill-rule="evenodd" clip-rule="evenodd" fill="#767885" width="1.2" height="0.3"/>
<rect x="6.342" y="16.17" fill-rule="evenodd" clip-rule="evenodd" fill="#767885" width="3.602" height="0.3"/>
<rect x="18.946" y="16.17" fill-rule="evenodd" clip-rule="evenodd" fill="#767885" width="3.601" height="0.3"/>
<rect x="0.341" y="16.47" fill-rule="evenodd" clip-rule="evenodd" fill="#767885" width="1.2" height="0.301"/>
<rect x="6.042" y="16.47" fill-rule="evenodd" clip-rule="evenodd" fill="#767885" width="1.5" height="0.301"/>
<rect x="8.443" y="16.47" fill-rule="evenodd" clip-rule="evenodd" fill="#767885" width="2.4" height="0.301"/>
<rect x="13.543" y="16.47" fill-rule="evenodd" clip-rule="evenodd" fill="#767885" width="0.601" height="0.301"/>
<rect x="18.645" y="16.47" fill-rule="evenodd" clip-rule="evenodd" fill="#767885" width="1.5" height="0.301"/>
<rect x="21.045" y="16.47" fill-rule="evenodd" clip-rule="evenodd" fill="#767885" width="2.4" height="0.301"/>
<rect x="0.341" y="16.771" fill-rule="evenodd" clip-rule="evenodd" fill="#767885" width="0.3" height="0.3"/>
<rect x="6.042" y="16.771" fill-rule="evenodd" clip-rule="evenodd" fill="#767885" width="0.9" height="0.3"/>
<rect x="9.343" y="16.771" fill-rule="evenodd" clip-rule="evenodd" fill="#767885" width="2.101" height="0.3"/>
<rect x="12.944" y="16.771" fill-rule="evenodd" clip-rule="evenodd" fill="#767885" width="1.2" height="0.3"/>
<rect x="18.645" y="16.771" fill-rule="evenodd" clip-rule="evenodd" fill="#767885" width="0.9" height="0.3"/>
<rect x="21.946" y="16.771" fill-rule="evenodd" clip-rule="evenodd" fill="#767885" width="2.101" height="0.3"/>
<rect x="10.242" y="17.071" fill-rule="evenodd" clip-rule="evenodd" fill="#767885" width="3.901" height="0.3"/>
<rect x="22.846" y="17.071" fill-rule="evenodd" clip-rule="evenodd" fill="#767885" width="2.701" height="0.3"/>
<rect x="11.143" y="17.37" fill-rule="evenodd" clip-rule="evenodd" fill="#767885" width="2.102" height="0.301"/>
<rect x="23.746" y="17.37" fill-rule="evenodd" clip-rule="evenodd" fill="#767885" width="1.801" height="0.301"/>
<rect x="12.043" y="17.671" fill-rule="evenodd" clip-rule="evenodd" fill="#767885" width="0.9" height="0.3"/>
<rect x="24.647" y="17.671" fill-rule="evenodd" clip-rule="evenodd" fill="#767885" width="0.9" height="0.3"/>
<rect x="1.541" y="18.871" fill-rule="evenodd" clip-rule="evenodd" fill="#767885" width="1.5" height="0.3"/>
<rect x="14.144" y="18.871" fill-rule="evenodd" clip-rule="evenodd" fill="#767885" width="1.501" height="0.3"/>
<rect x="0.641" y="19.171" fill-rule="evenodd" clip-rule="evenodd" fill="#767885" width="3.601" height="0.301"/>
<rect x="13.244" y="19.171" fill-rule="evenodd" clip-rule="evenodd" fill="#767885" width="3.6" height="0.301"/>
<rect x="0.341" y="19.472" fill-rule="evenodd" clip-rule="evenodd" fill="#767885" width="1.5" height="0.3"/>
<rect x="2.741" y="19.472" fill-rule="evenodd" clip-rule="evenodd" fill="#767885" width="2.401" height="0.3"/>
<rect x="7.843" y="19.472" fill-rule="evenodd" clip-rule="evenodd" fill="#767885" width="0.6" height="0.3"/>
<rect x="12.944" y="19.472" fill-rule="evenodd" clip-rule="evenodd" fill="#767885" width="1.5" height="0.3"/>
<rect x="15.344" y="19.472" fill-rule="evenodd" clip-rule="evenodd" fill="#767885" width="2.4" height="0.3"/>
<rect x="20.446" y="19.472" fill-rule="evenodd" clip-rule="evenodd" fill="#767885" width="0.6" height="0.3"/>
<rect x="0.341" y="19.772" fill-rule="evenodd" clip-rule="evenodd" fill="#767885" width="0.9" height="0.3"/>
<rect x="3.641" y="19.772" fill-rule="evenodd" clip-rule="evenodd" fill="#767885" width="2.101" height="0.3"/>
<rect x="7.242" y="19.772" fill-rule="evenodd" clip-rule="evenodd" fill="#767885" width="1.2" height="0.3"/>
<rect x="12.944" y="19.772" fill-rule="evenodd" clip-rule="evenodd" fill="#767885" width="0.9" height="0.3"/>
<rect x="16.244" y="19.772" fill-rule="evenodd" clip-rule="evenodd" fill="#767885" width="2.101" height="0.3"/>
<rect x="19.846" y="19.772" fill-rule="evenodd" clip-rule="evenodd" fill="#767885" width="1.199" height="0.3"/>
<rect x="4.542" y="20.072" fill-rule="evenodd" clip-rule="evenodd" fill="#767885" width="3.901" height="0.301"/>
<rect x="17.145" y="20.072" fill-rule="evenodd" clip-rule="evenodd" fill="#767885" width="3.9" height="0.301"/>
<rect x="5.442" y="20.372" fill-rule="evenodd" clip-rule="evenodd" fill="#767885" width="2.101" height="0.3"/>
<rect x="18.045" y="20.372" fill-rule="evenodd" clip-rule="evenodd" fill="#767885" width="2.1" height="0.3"/>
<rect x="6.342" y="20.672" fill-rule="evenodd" clip-rule="evenodd" fill="#767885" width="0.9" height="0.3"/>
<rect x="18.946" y="20.672" fill-rule="evenodd" clip-rule="evenodd" fill="#767885" width="0.9" height="0.3"/>
<rect x="0.941" y="22.773" fill-rule="evenodd" clip-rule="evenodd" fill="#767885" width="0.6" height="0.3"/>
<rect x="7.242" y="22.773" fill-rule="evenodd" clip-rule="evenodd" fill="#767885" width="1.5" height="0.3"/>
<rect x="19.846" y="22.773" fill-rule="evenodd" clip-rule="evenodd" fill="#767885" width="1.5" height="0.3"/>
<rect x="0.341" y="23.073" fill-rule="evenodd" clip-rule="evenodd" fill="#767885" width="1.2" height="0.3"/>
<rect x="6.342" y="23.073" fill-rule="evenodd" clip-rule="evenodd" fill="#767885" width="3.602" height="0.3"/>
<rect x="18.946" y="23.073" fill-rule="evenodd" clip-rule="evenodd" fill="#767885" width="3.601" height="0.3"/>
<rect x="0.341" y="23.372" fill-rule="evenodd" clip-rule="evenodd" fill="#767885" width="1.2" height="0.301"/>
<rect x="6.042" y="23.372" fill-rule="evenodd" clip-rule="evenodd" fill="#767885" width="1.5" height="0.301"/>
<rect x="8.443" y="23.372" fill-rule="evenodd" clip-rule="evenodd" fill="#767885" width="2.4" height="0.301"/>
<rect x="13.543" y="23.372" fill-rule="evenodd" clip-rule="evenodd" fill="#767885" width="0.601" height="0.301"/>
<rect x="18.645" y="23.372" fill-rule="evenodd" clip-rule="evenodd" fill="#767885" width="1.5" height="0.301"/>
<rect x="21.045" y="23.372" fill-rule="evenodd" clip-rule="evenodd" fill="#767885" width="2.4" height="0.301"/>
<rect x="0.341" y="23.673" fill-rule="evenodd" clip-rule="evenodd" fill="#767885" width="0.3" height="0.3"/>
<rect x="6.042" y="23.673" fill-rule="evenodd" clip-rule="evenodd" fill="#767885" width="0.9" height="0.3"/>
<rect x="9.343" y="23.673" fill-rule="evenodd" clip-rule="evenodd" fill="#767885" width="2.101" height="0.3"/>
<rect x="12.944" y="23.673" fill-rule="evenodd" clip-rule="evenodd" fill="#767885" width="1.2" height="0.3"/>
<rect x="18.645" y="23.673" fill-rule="evenodd" clip-rule="evenodd" fill="#767885" width="0.9" height="0.3"/>
<rect x="21.946" y="23.673" fill-rule="evenodd" clip-rule="evenodd" fill="#767885" width="2.101" height="0.3"/>
<rect x="10.242" y="23.973" fill-rule="evenodd" clip-rule="evenodd" fill="#767885" width="3.901" height="0.3"/>
<rect x="22.846" y="23.973" fill-rule="evenodd" clip-rule="evenodd" fill="#767885" width="2.701" height="0.3"/>
<rect x="11.143" y="24.273" fill-rule="evenodd" clip-rule="evenodd" fill="#767885" width="2.102" height="0.301"/>
<rect x="23.746" y="24.273" fill-rule="evenodd" clip-rule="evenodd" fill="#767885" width="1.801" height="0.301"/>
<rect x="12.043" y="24.573" fill-rule="evenodd" clip-rule="evenodd" fill="#767885" width="0.9" height="0.3"/>
<rect x="24.647" y="24.573" fill-rule="evenodd" clip-rule="evenodd" fill="#767885" width="0.9" height="0.3"/>
<rect x="1.541" y="26.674" fill-rule="evenodd" clip-rule="evenodd" fill="#767885" width="1.5" height="0.3"/>
<rect x="14.144" y="26.674" fill-rule="evenodd" clip-rule="evenodd" fill="#767885" width="1.501" height="0.3"/>
<rect x="0.641" y="26.974" fill-rule="evenodd" clip-rule="evenodd" fill="#767885" width="3.601" height="0.301"/>
<rect x="13.244" y="26.974" fill-rule="evenodd" clip-rule="evenodd" fill="#767885" width="3.6" height="0.301"/>
<rect x="0.341" y="27.275" fill-rule="evenodd" clip-rule="evenodd" fill="#767885" width="1.5" height="0.3"/>
<rect x="2.741" y="27.275" fill-rule="evenodd" clip-rule="evenodd" fill="#767885" width="2.401" height="0.3"/>
<rect x="7.843" y="27.275" fill-rule="evenodd" clip-rule="evenodd" fill="#767885" width="0.6" height="0.3"/>
<rect x="12.944" y="27.275" fill-rule="evenodd" clip-rule="evenodd" fill="#767885" width="1.5" height="0.3"/>
<rect x="15.344" y="27.275" fill-rule="evenodd" clip-rule="evenodd" fill="#767885" width="2.4" height="0.3"/>
<rect x="20.446" y="27.275" fill-rule="evenodd" clip-rule="evenodd" fill="#767885" width="0.6" height="0.3"/>
<rect x="0.341" y="27.574" fill-rule="evenodd" clip-rule="evenodd" fill="#767885" width="0.9" height="0.3"/>
<rect x="3.641" y="27.574" fill-rule="evenodd" clip-rule="evenodd" fill="#767885" width="2.101" height="0.3"/>
<rect x="7.242" y="27.574" fill-rule="evenodd" clip-rule="evenodd" fill="#767885" width="1.2" height="0.3"/>
<rect x="12.944" y="27.574" fill-rule="evenodd" clip-rule="evenodd" fill="#767885" width="0.9" height="0.3"/>
<rect x="16.244" y="27.574" fill-rule="evenodd" clip-rule="evenodd" fill="#767885" width="2.101" height="0.3"/>
<rect x="19.846" y="27.574" fill-rule="evenodd" clip-rule="evenodd" fill="#767885" width="1.199" height="0.3"/>
<rect x="4.542" y="27.874" fill-rule="evenodd" clip-rule="evenodd" fill="#767885" width="3.901" height="0.301"/>
<rect x="17.145" y="27.874" fill-rule="evenodd" clip-rule="evenodd" fill="#767885" width="3.9" height="0.301"/>
<rect x="5.442" y="28.175" fill-rule="evenodd" clip-rule="evenodd" fill="#767885" width="2.101" height="0.3"/>
<rect x="18.045" y="28.175" fill-rule="evenodd" clip-rule="evenodd" fill="#767885" width="2.1" height="0.3"/>
<rect x="6.342" y="28.475" fill-rule="evenodd" clip-rule="evenodd" fill="#767885" width="0.9" height="0.3"/>
<rect x="18.946" y="28.475" fill-rule="evenodd" clip-rule="evenodd" fill="#767885" width="0.9" height="0.3"/>
<rect x="26.147" y="0.265" fill-rule="evenodd" clip-rule="evenodd" fill="#767885" width="0.6" height="0.3"/>
<rect x="32.448" y="0.265" fill-rule="evenodd" clip-rule="evenodd" fill="#767885" width="1.5" height="0.3"/>
<rect x="45.051" y="0.265" fill-rule="evenodd" clip-rule="evenodd" fill="#767885" width="1.5" height="0.3"/>
<rect x="25.547" y="0.565" fill-rule="evenodd" clip-rule="evenodd" fill="#767885" width="1.199" height="0.3"/>
<rect x="31.548" y="0.565" fill-rule="evenodd" clip-rule="evenodd" fill="#767885" width="3.601" height="0.3"/>
<rect x="44.151" y="0.565" fill-rule="evenodd" clip-rule="evenodd" fill="#767885" width="3.602" height="0.3"/>
<rect x="25.547" y="0.865" fill-rule="evenodd" clip-rule="evenodd" fill="#767885" width="1.199" height="0.3"/>
<rect x="31.248" y="0.865" fill-rule="evenodd" clip-rule="evenodd" fill="#767885" width="1.5" height="0.3"/>
<rect x="33.649" y="0.865" fill-rule="evenodd" clip-rule="evenodd" fill="#767885" width="2.4" height="0.3"/>
<rect x="38.75" y="0.865" fill-rule="evenodd" clip-rule="evenodd" fill="#767885" width="0.6" height="0.3"/>
<rect x="43.852" y="0.865" fill-rule="evenodd" clip-rule="evenodd" fill="#767885" width="1.5" height="0.3"/>
<rect x="46.252" y="0.865" fill-rule="evenodd" clip-rule="evenodd" fill="#767885" width="2.4" height="0.3"/>
<rect x="25.547" y="1.165" fill-rule="evenodd" clip-rule="evenodd" fill="#767885" width="0.3" height="0.3"/>
<rect x="31.248" y="1.165" fill-rule="evenodd" clip-rule="evenodd" fill="#767885" width="0.9" height="0.3"/>
<rect x="34.549" y="1.165" fill-rule="evenodd" clip-rule="evenodd" fill="#767885" width="2.1" height="0.3"/>
<rect x="38.15" y="1.165" fill-rule="evenodd" clip-rule="evenodd" fill="#767885" width="1.2" height="0.3"/>
<rect x="43.852" y="1.165" fill-rule="evenodd" clip-rule="evenodd" fill="#767885" width="0.899" height="0.3"/>
<rect x="47.153" y="1.165" fill-rule="evenodd" clip-rule="evenodd" fill="#767885" width="2.1" height="0.3"/>
<rect x="35.449" y="1.465" fill-rule="evenodd" clip-rule="evenodd" fill="#767885" width="3.9" height="0.3"/>
<polyline fill-rule="evenodd" clip-rule="evenodd" fill="#767885" points="50.752,1.765 48.052,1.765 48.052,1.465 50.752,1.465 "/>
<rect x="36.35" y="1.765" fill-rule="evenodd" clip-rule="evenodd" fill="#767885" width="2.1" height="0.301"/>
<polyline fill-rule="evenodd" clip-rule="evenodd" fill="#767885" points="50.752,2.066 48.952,2.066 48.952,1.765 50.752,1.765 "/>
<rect x="37.249" y="2.066" fill-rule="evenodd" clip-rule="evenodd" fill="#767885" width="0.9" height="0.3"/>
<polyline fill-rule="evenodd" clip-rule="evenodd" fill="#767885" points="50.752,2.365 49.853,2.365 49.853,2.066 50.752,2.066 "/>
<rect x="26.746" y="4.166" fill-rule="evenodd" clip-rule="evenodd" fill="#767885" width="1.501" height="0.3"/>
<rect x="39.35" y="4.166" fill-rule="evenodd" clip-rule="evenodd" fill="#767885" width="1.5" height="0.3"/>
<rect x="25.847" y="4.466" fill-rule="evenodd" clip-rule="evenodd" fill="#767885" width="3.601" height="0.301"/>
<rect x="38.449" y="4.466" fill-rule="evenodd" clip-rule="evenodd" fill="#767885" width="3.602" height="0.301"/>
<rect x="25.547" y="4.767" fill-rule="evenodd" clip-rule="evenodd" fill="#767885" width="1.5" height="0.299"/>
<rect x="27.948" y="4.767" fill-rule="evenodd" clip-rule="evenodd" fill="#767885" width="2.4" height="0.299"/>
<rect x="33.049" y="4.767" fill-rule="evenodd" clip-rule="evenodd" fill="#767885" width="0.6" height="0.299"/>
<rect x="38.15" y="4.767" fill-rule="evenodd" clip-rule="evenodd" fill="#767885" width="1.501" height="0.299"/>
<rect x="40.551" y="4.767" fill-rule="evenodd" clip-rule="evenodd" fill="#767885" width="2.4" height="0.299"/>
<rect x="45.652" y="4.767" fill-rule="evenodd" clip-rule="evenodd" fill="#767885" width="0.601" height="0.299"/>
<rect x="25.547" y="5.066" fill-rule="evenodd" clip-rule="evenodd" fill="#767885" width="0.9" height="0.301"/>
<rect x="28.848" y="5.066" fill-rule="evenodd" clip-rule="evenodd" fill="#767885" width="2.1" height="0.301"/>
<rect x="32.448" y="5.066" fill-rule="evenodd" clip-rule="evenodd" fill="#767885" width="1.2" height="0.301"/>
<rect x="38.15" y="5.066" fill-rule="evenodd" clip-rule="evenodd" fill="#767885" width="0.9" height="0.301"/>
<rect x="41.45" y="5.066" fill-rule="evenodd" clip-rule="evenodd" fill="#767885" width="2.101" height="0.301"/>
<rect x="45.051" y="5.066" fill-rule="evenodd" clip-rule="evenodd" fill="#767885" width="1.201" height="0.301"/>
<rect x="29.748" y="5.366" fill-rule="evenodd" clip-rule="evenodd" fill="#767885" width="3.9" height="0.3"/>
<rect x="42.351" y="5.366" fill-rule="evenodd" clip-rule="evenodd" fill="#767885" width="3.901" height="0.3"/>
<rect x="30.648" y="5.666" fill-rule="evenodd" clip-rule="evenodd" fill="#767885" width="2.101" height="0.3"/>
<rect x="43.25" y="5.666" fill-rule="evenodd" clip-rule="evenodd" fill="#767885" width="2.102" height="0.3"/>
<rect x="31.548" y="5.966" fill-rule="evenodd" clip-rule="evenodd" fill="#767885" width="0.9" height="0.301"/>
<rect x="44.151" y="5.966" fill-rule="evenodd" clip-rule="evenodd" fill="#767885" width="0.9" height="0.301"/>
<rect x="26.147" y="8.068" fill-rule="evenodd" clip-rule="evenodd" fill="#767885" width="0.6" height="0.3"/>
<rect x="32.448" y="8.068" fill-rule="evenodd" clip-rule="evenodd" fill="#767885" width="1.5" height="0.3"/>
<rect x="45.051" y="8.068" fill-rule="evenodd" clip-rule="evenodd" fill="#767885" width="1.5" height="0.3"/>
<rect x="25.547" y="8.367" fill-rule="evenodd" clip-rule="evenodd" fill="#767885" width="1.199" height="0.3"/>
<rect x="31.548" y="8.367" fill-rule="evenodd" clip-rule="evenodd" fill="#767885" width="3.601" height="0.3"/>
<rect x="44.151" y="8.367" fill-rule="evenodd" clip-rule="evenodd" fill="#767885" width="3.602" height="0.3"/>
<rect x="25.547" y="8.667" fill-rule="evenodd" clip-rule="evenodd" fill="#767885" width="1.199" height="0.301"/>
<rect x="31.248" y="8.667" fill-rule="evenodd" clip-rule="evenodd" fill="#767885" width="1.5" height="0.301"/>
<rect x="33.649" y="8.667" fill-rule="evenodd" clip-rule="evenodd" fill="#767885" width="2.4" height="0.301"/>
<rect x="38.75" y="8.667" fill-rule="evenodd" clip-rule="evenodd" fill="#767885" width="0.6" height="0.301"/>
<rect x="43.852" y="8.667" fill-rule="evenodd" clip-rule="evenodd" fill="#767885" width="1.5" height="0.301"/>
<rect x="46.252" y="8.667" fill-rule="evenodd" clip-rule="evenodd" fill="#767885" width="2.4" height="0.301"/>
<rect x="25.547" y="8.968" fill-rule="evenodd" clip-rule="evenodd" fill="#767885" width="0.3" height="0.3"/>
<rect x="31.248" y="8.968" fill-rule="evenodd" clip-rule="evenodd" fill="#767885" width="0.9" height="0.3"/>
<rect x="34.549" y="8.968" fill-rule="evenodd" clip-rule="evenodd" fill="#767885" width="2.1" height="0.3"/>
<rect x="38.15" y="8.968" fill-rule="evenodd" clip-rule="evenodd" fill="#767885" width="1.2" height="0.3"/>
<rect x="43.852" y="8.968" fill-rule="evenodd" clip-rule="evenodd" fill="#767885" width="0.899" height="0.3"/>
<rect x="47.153" y="8.968" fill-rule="evenodd" clip-rule="evenodd" fill="#767885" width="2.1" height="0.3"/>
<rect x="35.449" y="9.268" fill-rule="evenodd" clip-rule="evenodd" fill="#767885" width="3.9" height="0.3"/>
<polyline fill-rule="evenodd" clip-rule="evenodd" fill="#767885" points="50.752,9.568 48.052,9.568 48.052,9.268 50.752,9.268 "/>
<rect x="36.35" y="9.568" fill-rule="evenodd" clip-rule="evenodd" fill="#767885" width="2.1" height="0.301"/>
<polyline fill-rule="evenodd" clip-rule="evenodd" fill="#767885" points="50.752,9.868 48.952,9.868 48.952,9.568 50.752,9.568 "/>
<rect x="37.249" y="9.868" fill-rule="evenodd" clip-rule="evenodd" fill="#767885" width="0.9" height="0.3"/>
<polyline fill-rule="evenodd" clip-rule="evenodd" fill="#767885" points="50.752,10.168 49.853,10.168 49.853,9.868 50.752,9.868 
	"/>
<rect x="26.746" y="11.969" fill-rule="evenodd" clip-rule="evenodd" fill="#767885" width="1.501" height="0.3"/>
<rect x="39.35" y="11.969" fill-rule="evenodd" clip-rule="evenodd" fill="#767885" width="1.5" height="0.3"/>
<rect x="25.847" y="12.269" fill-rule="evenodd" clip-rule="evenodd" fill="#767885" width="3.601" height="0.301"/>
<rect x="38.449" y="12.269" fill-rule="evenodd" clip-rule="evenodd" fill="#767885" width="3.602" height="0.301"/>
<rect x="25.547" y="12.57" fill-rule="evenodd" clip-rule="evenodd" fill="#767885" width="1.5" height="0.3"/>
<rect x="27.948" y="12.57" fill-rule="evenodd" clip-rule="evenodd" fill="#767885" width="2.4" height="0.3"/>
<rect x="33.049" y="12.57" fill-rule="evenodd" clip-rule="evenodd" fill="#767885" width="0.6" height="0.3"/>
<rect x="38.15" y="12.57" fill-rule="evenodd" clip-rule="evenodd" fill="#767885" width="1.501" height="0.3"/>
<rect x="40.551" y="12.57" fill-rule="evenodd" clip-rule="evenodd" fill="#767885" width="2.4" height="0.3"/>
<rect x="45.652" y="12.57" fill-rule="evenodd" clip-rule="evenodd" fill="#767885" width="0.601" height="0.3"/>
<rect x="25.547" y="12.869" fill-rule="evenodd" clip-rule="evenodd" fill="#767885" width="0.9" height="0.3"/>
<rect x="28.848" y="12.869" fill-rule="evenodd" clip-rule="evenodd" fill="#767885" width="2.1" height="0.3"/>
<rect x="32.448" y="12.869" fill-rule="evenodd" clip-rule="evenodd" fill="#767885" width="1.2" height="0.3"/>
<rect x="38.15" y="12.869" fill-rule="evenodd" clip-rule="evenodd" fill="#767885" width="0.9" height="0.3"/>
<rect x="41.45" y="12.869" fill-rule="evenodd" clip-rule="evenodd" fill="#767885" width="2.101" height="0.3"/>
<rect x="45.051" y="12.869" fill-rule="evenodd" clip-rule="evenodd" fill="#767885" width="1.201" height="0.3"/>
<rect x="29.748" y="13.169" fill-rule="evenodd" clip-rule="evenodd" fill="#767885" width="3.9" height="0.301"/>
<rect x="42.351" y="13.169" fill-rule="evenodd" clip-rule="evenodd" fill="#767885" width="3.901" height="0.301"/>
<rect x="30.648" y="13.47" fill-rule="evenodd" clip-rule="evenodd" fill="#767885" width="2.101" height="0.299"/>
<rect x="43.25" y="13.47" fill-rule="evenodd" clip-rule="evenodd" fill="#767885" width="2.102" height="0.299"/>
<rect x="31.548" y="13.769" fill-rule="evenodd" clip-rule="evenodd" fill="#767885" width="0.9" height="0.301"/>
<rect x="44.151" y="13.769" fill-rule="evenodd" clip-rule="evenodd" fill="#767885" width="0.9" height="0.301"/>
<rect x="26.147" y="15.87" fill-rule="evenodd" clip-rule="evenodd" fill="#767885" width="0.6" height="0.3"/>
<rect x="32.448" y="15.87" fill-rule="evenodd" clip-rule="evenodd" fill="#767885" width="1.5" height="0.3"/>
<rect x="45.051" y="15.87" fill-rule="evenodd" clip-rule="evenodd" fill="#767885" width="1.5" height="0.3"/>
<rect x="25.547" y="16.17" fill-rule="evenodd" clip-rule="evenodd" fill="#767885" width="1.199" height="0.3"/>
<rect x="31.548" y="16.17" fill-rule="evenodd" clip-rule="evenodd" fill="#767885" width="3.601" height="0.3"/>
<rect x="44.151" y="16.17" fill-rule="evenodd" clip-rule="evenodd" fill="#767885" width="3.602" height="0.3"/>
<rect x="25.547" y="16.47" fill-rule="evenodd" clip-rule="evenodd" fill="#767885" width="1.199" height="0.301"/>
<rect x="31.248" y="16.47" fill-rule="evenodd" clip-rule="evenodd" fill="#767885" width="1.5" height="0.301"/>
<rect x="33.649" y="16.47" fill-rule="evenodd" clip-rule="evenodd" fill="#767885" width="2.4" height="0.301"/>
<rect x="38.75" y="16.47" fill-rule="evenodd" clip-rule="evenodd" fill="#767885" width="0.6" height="0.301"/>
<rect x="43.852" y="16.47" fill-rule="evenodd" clip-rule="evenodd" fill="#767885" width="1.5" height="0.301"/>
<rect x="46.252" y="16.47" fill-rule="evenodd" clip-rule="evenodd" fill="#767885" width="2.4" height="0.301"/>
<rect x="25.547" y="16.771" fill-rule="evenodd" clip-rule="evenodd" fill="#767885" width="0.3" height="0.3"/>
<rect x="31.248" y="16.771" fill-rule="evenodd" clip-rule="evenodd" fill="#767885" width="0.9" height="0.3"/>
<rect x="34.549" y="16.771" fill-rule="evenodd" clip-rule="evenodd" fill="#767885" width="2.1" height="0.3"/>
<rect x="38.15" y="16.771" fill-rule="evenodd" clip-rule="evenodd" fill="#767885" width="1.2" height="0.3"/>
<rect x="43.852" y="16.771" fill-rule="evenodd" clip-rule="evenodd" fill="#767885" width="0.899" height="0.3"/>
<rect x="47.153" y="16.771" fill-rule="evenodd" clip-rule="evenodd" fill="#767885" width="2.1" height="0.3"/>
<rect x="35.449" y="17.071" fill-rule="evenodd" clip-rule="evenodd" fill="#767885" width="3.9" height="0.3"/>
<polyline fill-rule="evenodd" clip-rule="evenodd" fill="#767885" points="50.752,17.37 48.052,17.37 48.052,17.071 50.752,17.071 
	"/>
<rect x="36.35" y="17.37" fill-rule="evenodd" clip-rule="evenodd" fill="#767885" width="2.1" height="0.301"/>
<polyline fill-rule="evenodd" clip-rule="evenodd" fill="#767885" points="50.752,17.671 48.952,17.671 48.952,17.37 50.752,17.37 
	"/>
<rect x="37.249" y="17.671" fill-rule="evenodd" clip-rule="evenodd" fill="#767885" width="0.9" height="0.3"/>
<polyline fill-rule="evenodd" clip-rule="evenodd" fill="#767885" points="50.752,17.971 49.853,17.971 49.853,17.671 
	50.752,17.671 "/>
<rect x="26.746" y="18.871" fill-rule="evenodd" clip-rule="evenodd" fill="#767885" width="1.501" height="0.3"/>
<rect x="39.35" y="18.871" fill-rule="evenodd" clip-rule="evenodd" fill="#767885" width="1.5" height="0.3"/>
<rect x="25.847" y="19.171" fill-rule="evenodd" clip-rule="evenodd" fill="#767885" width="3.601" height="0.301"/>
<rect x="38.449" y="19.171" fill-rule="evenodd" clip-rule="evenodd" fill="#767885" width="3.602" height="0.301"/>
<rect x="25.547" y="19.472" fill-rule="evenodd" clip-rule="evenodd" fill="#767885" width="1.5" height="0.3"/>
<rect x="27.948" y="19.472" fill-rule="evenodd" clip-rule="evenodd" fill="#767885" width="2.4" height="0.3"/>
<rect x="33.049" y="19.472" fill-rule="evenodd" clip-rule="evenodd" fill="#767885" width="0.6" height="0.3"/>
<rect x="38.15" y="19.472" fill-rule="evenodd" clip-rule="evenodd" fill="#767885" width="1.501" height="0.3"/>
<rect x="40.551" y="19.472" fill-rule="evenodd" clip-rule="evenodd" fill="#767885" width="2.4" height="0.3"/>
<rect x="45.652" y="19.472" fill-rule="evenodd" clip-rule="evenodd" fill="#767885" width="0.601" height="0.3"/>
<rect x="25.547" y="19.772" fill-rule="evenodd" clip-rule="evenodd" fill="#767885" width="0.9" height="0.3"/>
<rect x="28.848" y="19.772" fill-rule="evenodd" clip-rule="evenodd" fill="#767885" width="2.1" height="0.3"/>
<rect x="32.448" y="19.772" fill-rule="evenodd" clip-rule="evenodd" fill="#767885" width="1.2" height="0.3"/>
<rect x="38.15" y="19.772" fill-rule="evenodd" clip-rule="evenodd" fill="#767885" width="0.9" height="0.3"/>
<rect x="41.45" y="19.772" fill-rule="evenodd" clip-rule="evenodd" fill="#767885" width="2.101" height="0.3"/>
<rect x="45.051" y="19.772" fill-rule="evenodd" clip-rule="evenodd" fill="#767885" width="1.201" height="0.3"/>
<rect x="29.748" y="20.072" fill-rule="evenodd" clip-rule="evenodd" fill="#767885" width="3.9" height="0.301"/>
<rect x="42.351" y="20.072" fill-rule="evenodd" clip-rule="evenodd" fill="#767885" width="3.901" height="0.301"/>
<rect x="30.648" y="20.372" fill-rule="evenodd" clip-rule="evenodd" fill="#767885" width="2.101" height="0.3"/>
<rect x="43.25" y="20.372" fill-rule="evenodd" clip-rule="evenodd" fill="#767885" width="2.102" height="0.3"/>
<rect x="31.548" y="20.672" fill-rule="evenodd" clip-rule="evenodd" fill="#767885" width="0.9" height="0.3"/>
<rect x="44.151" y="20.672" fill-rule="evenodd" clip-rule="evenodd" fill="#767885" width="0.9" height="0.3"/>
<rect x="26.147" y="22.773" fill-rule="evenodd" clip-rule="evenodd" fill="#767885" width="0.6" height="0.3"/>
<rect x="32.448" y="22.773" fill-rule="evenodd" clip-rule="evenodd" fill="#767885" width="1.5" height="0.3"/>
<rect x="45.051" y="22.773" fill-rule="evenodd" clip-rule="evenodd" fill="#767885" width="1.5" height="0.3"/>
<rect x="25.547" y="23.073" fill-rule="evenodd" clip-rule="evenodd" fill="#767885" width="1.199" height="0.3"/>
<rect x="31.548" y="23.073" fill-rule="evenodd" clip-rule="evenodd" fill="#767885" width="3.601" height="0.3"/>
<rect x="44.151" y="23.073" fill-rule="evenodd" clip-rule="evenodd" fill="#767885" width="3.602" height="0.3"/>
<rect x="25.547" y="23.372" fill-rule="evenodd" clip-rule="evenodd" fill="#767885" width="1.199" height="0.301"/>
<rect x="31.248" y="23.372" fill-rule="evenodd" clip-rule="evenodd" fill="#767885" width="1.5" height="0.301"/>
<rect x="33.649" y="23.372" fill-rule="evenodd" clip-rule="evenodd" fill="#767885" width="2.4" height="0.301"/>
<rect x="38.75" y="23.372" fill-rule="evenodd" clip-rule="evenodd" fill="#767885" width="0.6" height="0.301"/>
<rect x="43.852" y="23.372" fill-rule="evenodd" clip-rule="evenodd" fill="#767885" width="1.5" height="0.301"/>
<rect x="46.252" y="23.372" fill-rule="evenodd" clip-rule="evenodd" fill="#767885" width="2.4" height="0.301"/>
<rect x="25.547" y="23.673" fill-rule="evenodd" clip-rule="evenodd" fill="#767885" width="0.3" height="0.3"/>
<rect x="31.248" y="23.673" fill-rule="evenodd" clip-rule="evenodd" fill="#767885" width="0.9" height="0.3"/>
<rect x="34.549" y="23.673" fill-rule="evenodd" clip-rule="evenodd" fill="#767885" width="2.1" height="0.3"/>
<rect x="38.15" y="23.673" fill-rule="evenodd" clip-rule="evenodd" fill="#767885" width="1.2" height="0.3"/>
<rect x="43.852" y="23.673" fill-rule="evenodd" clip-rule="evenodd" fill="#767885" width="0.899" height="0.3"/>
<rect x="47.153" y="23.673" fill-rule="evenodd" clip-rule="evenodd" fill="#767885" width="2.1" height="0.3"/>
<rect x="35.449" y="23.973" fill-rule="evenodd" clip-rule="evenodd" fill="#767885" width="3.9" height="0.3"/>
<polyline fill-rule="evenodd" clip-rule="evenodd" fill="#767885" points="50.752,24.273 48.052,24.273 48.052,23.973 
	50.752,23.973 "/>
<rect x="36.35" y="24.273" fill-rule="evenodd" clip-rule="evenodd" fill="#767885" width="2.1" height="0.301"/>
<polyline fill-rule="evenodd" clip-rule="evenodd" fill="#767885" points="50.752,24.573 48.952,24.573 48.952,24.273 
	50.752,24.273 "/>
<rect x="37.249" y="24.573" fill-rule="evenodd" clip-rule="evenodd" fill="#767885" width="0.9" height="0.3"/>
<polyline fill-rule="evenodd" clip-rule="evenodd" fill="#767885" points="50.752,24.873 49.853,24.873 49.853,24.573 
	50.752,24.573 "/>
<rect x="26.746" y="26.674" fill-rule="evenodd" clip-rule="evenodd" fill="#767885" width="1.501" height="0.3"/>
<rect x="39.35" y="26.674" fill-rule="evenodd" clip-rule="evenodd" fill="#767885" width="1.5" height="0.3"/>
<rect x="25.847" y="26.974" fill-rule="evenodd" clip-rule="evenodd" fill="#767885" width="3.601" height="0.301"/>
<rect x="38.449" y="26.974" fill-rule="evenodd" clip-rule="evenodd" fill="#767885" width="3.602" height="0.301"/>
<rect x="25.547" y="27.275" fill-rule="evenodd" clip-rule="evenodd" fill="#767885" width="1.5" height="0.3"/>
<rect x="27.948" y="27.275" fill-rule="evenodd" clip-rule="evenodd" fill="#767885" width="2.4" height="0.3"/>
<rect x="33.049" y="27.275" fill-rule="evenodd" clip-rule="evenodd" fill="#767885" width="0.6" height="0.3"/>
<rect x="38.15" y="27.275" fill-rule="evenodd" clip-rule="evenodd" fill="#767885" width="1.501" height="0.3"/>
<rect x="40.551" y="27.275" fill-rule="evenodd" clip-rule="evenodd" fill="#767885" width="2.4" height="0.3"/>
<rect x="45.652" y="27.275" fill-rule="evenodd" clip-rule="evenodd" fill="#767885" width="0.601" height="0.3"/>
<rect x="25.547" y="27.574" fill-rule="evenodd" clip-rule="evenodd" fill="#767885" width="0.9" height="0.3"/>
<rect x="28.848" y="27.574" fill-rule="evenodd" clip-rule="evenodd" fill="#767885" width="2.1" height="0.3"/>
<rect x="32.448" y="27.574" fill-rule="evenodd" clip-rule="evenodd" fill="#767885" width="1.2" height="0.3"/>
<rect x="38.15" y="27.574" fill-rule="evenodd" clip-rule="evenodd" fill="#767885" width="0.9" height="0.3"/>
<rect x="41.45" y="27.574" fill-rule="evenodd" clip-rule="evenodd" fill="#767885" width="2.101" height="0.3"/>
<rect x="45.051" y="27.574" fill-rule="evenodd" clip-rule="evenodd" fill="#767885" width="1.201" height="0.3"/>
<rect x="29.748" y="27.874" fill-rule="evenodd" clip-rule="evenodd" fill="#767885" width="3.9" height="0.301"/>
<rect x="42.351" y="27.874" fill-rule="evenodd" clip-rule="evenodd" fill="#767885" width="3.901" height="0.301"/>
<rect x="30.648" y="28.175" fill-rule="evenodd" clip-rule="evenodd" fill="#767885" width="2.101" height="0.3"/>
<rect x="43.25" y="28.175" fill-rule="evenodd" clip-rule="evenodd" fill="#767885" width="2.102" height="0.3"/>
<rect x="31.548" y="28.475" fill-rule="evenodd" clip-rule="evenodd" fill="#767885" width="0.9" height="0.3"/>
<rect x="44.151" y="28.475" fill-rule="evenodd" clip-rule="evenodd" fill="#767885" width="0.9" height="0.3"/>
</svg>
