<?xml version="1.0" encoding="UTF-8" standalone="no"?>
<!-- Generator: Adobe Illustrator 14.0.0, SVG Export Plug-In . SVG Version: 6.00 Build 43363)  -->

<svg
   xmlns:dc="http://purl.org/dc/elements/1.1/"
   xmlns:cc="http://creativecommons.org/ns#"
   xmlns:rdf="http://www.w3.org/1999/02/22-rdf-syntax-ns#"
   xmlns:svg="http://www.w3.org/2000/svg"
   xmlns="http://www.w3.org/2000/svg"
   xmlns:sodipodi="http://sodipodi.sourceforge.net/DTD/sodipodi-0.dtd"
   xmlns:inkscape="http://www.inkscape.org/namespaces/inkscape"
   version="1.1"
   id="Livello_1"
   x="0px"
   y="0px"
   width="8.842px"
   height="8.831px"
   viewBox="0 0 8.842 8.831"
   enable-background="new 0 0 8.842 8.831"
   xml:space="preserve"
   inkscape:version="0.48.4 r9939"
   sodipodi:docname="cgt_2300-Emissione-gassose_20140528.svg"><metadata
   id="metadata3005"><rdf:RDF><cc:Work
       rdf:about=""><dc:format>image/svg+xml</dc:format><dc:type
         rdf:resource="http://purl.org/dc/dcmitype/StillImage" /></cc:Work></rdf:RDF></metadata><defs
   id="defs3003" /><sodipodi:namedview
   pagecolor="#ffffff"
   bordercolor="#666666"
   borderopacity="1"
   objecttolerance="10"
   gridtolerance="10"
   guidetolerance="10"
   inkscape:pageopacity="0"
   inkscape:pageshadow="2"
   inkscape:window-width="1216"
   inkscape:window-height="813"
   id="namedview3001"
   showgrid="false"
   inkscape:zoom="61.601175"
   inkscape:cx="4.1802077"
   inkscape:cy="4.4155002"
   inkscape:window-x="56"
   inkscape:window-y="20"
   inkscape:window-maximized="0"
   inkscape:current-layer="Livello_1" />
<g
   enable-background="new    "
   id="g2997">
	<path
   fill="#058AC7"
   d="M0.011,4.415c0-1.222,0.43-2.263,1.292-3.125c0.861-0.861,1.902-1.292,3.124-1.292   c1.221,0,2.263,0.431,3.125,1.292c0.859,0.861,1.291,1.903,1.291,3.125c0,1.223-0.432,2.264-1.291,3.125   C6.689,8.399,5.647,8.831,4.427,8.831c-1.222,0-2.263-0.432-3.124-1.292C0.441,6.679,0.011,5.638,0.011,4.415z M1.413,2.217   C0.927,2.887,0.685,3.62,0.685,4.415c0,0.686,0.18,1.326,0.541,1.921L1.303,6.17c0.11-0.271,0.279-0.537,0.508-0.795   c0.257-0.287,0.563-0.53,0.916-0.729c0.331-0.184,0.655-0.309,0.972-0.375C3.765,4.264,3.96,4.256,4.284,4.249   c0-0.199-0.129-0.467-0.386-0.806C3.764,3.274,3.615,3.117,3.45,2.974S3.091,2.696,2.87,2.571C2.583,2.409,2.324,2.308,2.092,2.267   C1.86,2.226,1.634,2.21,1.413,2.217z M1.446,6.646c0.743,1.002,1.736,1.502,2.98,1.502c0.257,0,0.515-0.025,0.772-0.078   C4.412,7.37,4.04,6.454,4.084,5.319C4.092,5.144,4.147,4.875,4.25,4.514c-0.199,0-0.383,0.018-0.552,0.055   c-0.677,0.132-1.244,0.479-1.7,1.038C1.652,6.021,1.468,6.365,1.446,6.646z M5.708,0.903C5.295,0.756,4.868,0.682,4.427,0.682   c-1.126,0-2.061,0.416-2.804,1.248c0.397,0,0.78,0.092,1.148,0.276s0.688,0.401,0.96,0.651C3.952,3.071,4.162,3.34,4.36,3.664   c0.081,0.133,0.136,0.265,0.166,0.398c0.022,0.096,0.033,0.147,0.033,0.154c0.059-0.029,0.232-0.184,0.52-0.464   c0.072-0.066,0.193-0.239,0.363-0.519c0.104-0.169,0.209-0.471,0.32-0.906C5.813,2.114,5.829,1.85,5.807,1.533   C5.792,1.29,5.758,1.08,5.708,0.903z M5.575,7.97c0.684-0.213,1.256-0.594,1.717-1.143C7.75,6.278,8.028,5.644,8.124,4.922   C7.978,5.026,7.728,5.125,7.374,5.22C6.903,5.354,6.432,5.379,5.961,5.298C5.608,5.239,5.232,5.106,4.835,4.9   C4.82,4.886,4.759,4.838,4.653,4.757c-0.107-0.081-0.16-0.118-0.16-0.11c-0.03,0.021-0.063,0.11-0.099,0.265   C4.349,5.097,4.327,5.269,4.327,5.431c0,0.229,0.044,0.541,0.132,0.938C4.6,7.047,4.971,7.58,5.575,7.97z M8.146,4.569l0.011-0.155   C8.18,3.686,7.988,3.009,7.583,2.383c-0.396-0.596-0.92-1.045-1.565-1.347l0.055,0.353c0.021,0.14,0.033,0.276,0.033,0.409   c0,0.243-0.052,0.538-0.153,0.883C5.833,3.079,5.678,3.414,5.486,3.686C5.338,3.899,5.118,4.124,4.824,4.359l-0.133,0.1   C4.875,4.606,5.047,4.72,5.209,4.801c0.267,0.132,0.629,0.217,1.095,0.255C6.633,5.076,6.988,5.04,7.363,4.944   C7.738,4.849,7.999,4.724,8.146,4.569z"
   id="path2999" />
</g>
<path
   style="fill:#e5be01;stroke:#ffffff;stroke-width:0.01623346000000000;fill-opacity:1"
   d="M 3.8896289,8.793003 C 3.1358657,8.7102065 2.4345157,8.4327399 1.8279799,7.9773775 0.99807003,7.3543147 0.41261781,6.5142897 0.17341638,5.6033583 0.05563644,5.1548265 0.00724893,4.7189398 0.02389269,4.2564123 0.05916041,3.2763277 0.36049073,2.4436321 0.9485948,1.7010922 1.0994594,1.5106106 1.494666,1.1110016 1.6810794,0.96044805 2.1449464,0.58581395 2.730755,0.28815712 3.2763325,0.14987974 4.3455731,-0.12112089 5.4851083,-0.00589564 6.4139313,0.4671412 7.2149799,0.87510421 7.9577962,1.6143835 8.3606859,2.4046257 8.7050204,3.0800157 8.8519722,3.7569715 8.8278593,4.5567312 8.8175535,4.8985455 8.8014058,5.0475292 8.7434043,5.3359371 8.5761541,6.1675755 8.1790584,6.8933152 7.5435382,7.5288354 6.8071628,8.2652108 5.936209,8.688323 4.9389144,8.79417 4.6696513,8.8227481 4.1552139,8.8221758 3.8896289,8.7930028 l 0,2e-7 z M 4.8068192,8.1361525 C 4.9631548,8.1202098 5.1827813,8.0866463 5.194972,8.0768348 5.1986386,8.0738838 5.1290148,7.9965487 5.0402525,7.904979 4.3951991,7.239524 4.0923364,6.4710957 4.0926123,5.5006101 4.0926935,5.2383246 4.118204,5.0563012 4.1986262,4.7443739 c 0.030941,-0.1200066 0.056255,-0.2227941 0.056255,-0.2284167 0,-0.017907 -0.2774632,0.00162 -0.4707702,0.033139 C 3.2318442,4.6391308 2.7369257,4.8776733 2.3296151,5.2501396 1.8783551,5.6627957 1.4834133,6.2572376 1.450843,6.5728131 l -0.00883,0.085541 0.1223512,0.150464 c 0.6348984,0.7807809 1.4640774,1.2320298 2.4373851,1.3264536 0.1914679,0.018575 0.6268843,0.019051 0.8050686,8.799e-4 l 0,4e-7 z M 5.7212504,7.9266884 C 6.8965643,7.5085392 7.77667,6.5215467 8.060386,5.3034702 8.097181,5.1454984 8.133065,4.9316044 8.124283,4.9225984 8.120263,4.9184684 8.100863,4.9252084 8.08118,4.9375584 7.8555879,5.0791544 7.3238325,5.2481843 6.9308293,5.3032223 6.7186643,5.3329349 6.3047607,5.337134 6.1136124,5.3115129 5.8319595,5.2737607 5.5449906,5.197025 5.2568072,5.0824022 5.0028713,4.9814011 4.8471411,4.8961007 4.674297,4.7633352 4.488316,4.620479 4.4751976,4.6203649 4.4290583,4.7612018 4.3274979,5.0712094 4.2996071,5.506319 4.3573583,5.8797579 4.493799,6.762032 4.7122044,7.2357142 5.1834644,7.6714345 c 0.1415866,0.130909 0.3615678,0.3004161 0.3916849,0.3018139 0.00741,3.441e-4 0.073156,-0.020608 0.1461011,-0.04656 l 0,0 z M 1.3630098,6.0705011 C 1.5992841,5.5929697 1.8978497,5.2400708 2.3474505,4.9069106 2.8229492,4.5545598 3.4882313,4.2728006 3.8452576,4.2725618 c 0.069046,-4.87e-5 0.1976325,-0.00486 0.2857472,-0.010692 l 0.1602084,-0.010608 -0.01015,-0.086365 C 4.2529568,3.9257584 4.0191293,3.5446937 3.687384,3.1973882 3.4791669,2.9794048 3.3286112,2.8532889 3.0860728,2.6936885 2.8957433,2.5684438 2.5167927,2.3785322 2.3555672,2.3275947 2.1235579,2.2542937 1.8300027,2.2113625 1.5592049,2.2111299 L 1.4040641,2.2109968 1.2994696,2.3689766 C 1.14534,2.6017741 0.94455571,3.0126568 0.86500758,3.2580547 0.72266678,3.6971616 0.67442848,4.0439178 0.68817284,4.5292134 c 0.0135037,0.4767969 0.0856702,0.8340214 0.2547999,1.2612605 0.0596242,0.1506166 0.26046116,0.5438208 0.27776756,0.5438208 0.00646,0 0.070483,-0.1187071 0.1422695,-0.2637936 l 0,0 z M 6.9739856,5.0294024 C 7.473834,4.9493197 7.9029059,4.7951223 8.092275,4.627518 L 8.159028,4.568437 8.157548,4.2622651 C 8.1551981,3.7765555 8.0755875,3.3890793 7.882921,2.9256227 7.6278775,2.3121189 7.1028013,1.689552 6.5194488,1.308995 6.3739787,1.2140958 6.0245479,1.0203238 6.0153937,1.0294781 c -0.00326,0.00326 0.0047,0.071377 0.017696,0.1513642 0.062527,0.3848388 0.075576,0.6852572 0.040272,0.9271944 C 5.9987219,2.619551 5.7730984,3.2290174 5.5124117,3.6233075 5.3535524,3.8635828 5.064636,4.1632038 4.795385,4.3669006 c -0.055395,0.041908 -0.1008051,0.083501 -0.1009114,0.09243 -3.572e-4,0.029922 0.3130755,0.2425809 0.4853518,0.3293033 0.2548328,0.1282807 0.5297132,0.2042045 0.9256703,0.2556764 0.2061733,0.026801 0.656393,0.019073 0.8684899,-0.014908 z M 4.6947661,4.1207659 C 4.9759541,3.8793338 5.1723661,3.6687631 5.3026245,3.4690897 5.5249624,3.1282671 5.6176933,2.9079905 5.7410846,2.4275547 5.8353018,2.060711 5.8466604,1.5924496 5.7718189,1.1605236 5.7238892,0.88391033 5.7374999,0.90373253 5.5570725,0.84777493 5.1774295,0.73003273 4.8511477,0.68292252 4.4090995,0.68202486 3.5457023,0.68027155 2.8365684,0.90968133 2.180035,1.4031429 2.0337248,1.5131121 1.6250617,1.8927126 1.6250617,1.9186486 c 0,0.00671 0.067572,0.017336 0.1501595,0.023624 0.4660355,0.035483 0.9019983,0.1915636 1.3849737,0.4958404 0.4785532,0.3014908 0.7920419,0.6158524 1.1264566,1.1295935 0.1274071,0.1957279 0.1944555,0.3456366 0.2372403,0.5304292 0.016021,0.069195 0.033983,0.1258093 0.039916,0.1258093 0.00593,0 0.064864,-0.046431 0.1309579,-0.1031795 l 0,0 z"
   id="path3775"
   inkscape:connector-curvature="0" /><path
   style="fill:#e5be01;fill-opacity:1;stroke:#ffffff;stroke-width:0.01623346"
   d=""
   id="path3777"
   inkscape:connector-curvature="0" /><path
   style="fill:#e5be01;fill-opacity:1;stroke:#ffffff;stroke-width:0.01623346"
   d=""
   id="path3779"
   inkscape:connector-curvature="0" /><path
   style="fill:#e5be01;fill-opacity:1;stroke:#ffffff;stroke-width:0.01623346"
   d=""
   id="path3781"
   inkscape:connector-curvature="0" /><path
   style="fill:#e5be01;fill-opacity:1;stroke:#e5ad01;stroke-width:0.01623346000000000;stroke-opacity:1"
   d=""
   id="path3783"
   inkscape:connector-curvature="0" /><path
   style="fill:#e5be01;fill-opacity:1;stroke:#e5ad01;stroke-width:0.01623346;stroke-opacity:1"
   d="M 3.9951463,8.7859458 C 3.1654909,8.7136634 2.3626866,8.3905065 1.7265425,7.8727532 0.81368522,7.1297849 0.27345632,6.2292657 0.0987306,5.1593186 -0.0323734,4.3564925 0.05582608,3.50049 0.34440908,2.774935 0.56212166,2.2275625 0.85902289,1.7906408 1.3403022,1.3093726 1.7184315,0.93125197 1.9691192,0.74299694 2.4042676,0.51038349 3.2115259,0.07885441 4.2159122,-0.07464522 5.1801887,0.08614152 6.0760781,0.2355252 6.8550156,0.64270556 7.5246379,1.3116746 8.2476571,2.0339885 8.6586861,2.8665516 8.7860856,3.8668093 8.8134505,4.0816609 8.8132662,4.7581751 8.7857837,4.9788011 8.7594327,5.1903365 8.6800941,5.5554615 8.6182326,5.7498903 8.4005944,6.4339201 8.0574703,6.9856844 7.5154756,7.5231901 6.8180848,8.2148046 6.035072,8.6145405 5.1041125,8.7542148 4.8516418,8.7920938 4.260015,8.809022 3.9951471,8.7859458 l -8e-7,0 z M 4.7743522,8.152322 C 4.9770753,8.134173 5.1685121,8.1047574 5.1965081,8.0874548 5.2103978,8.0788705 5.1540637,8.0051328 5.0150438,7.8499301 4.4029606,7.166597 4.1547467,6.5560592 4.1150755,5.6362561 4.101712,5.3264102 4.1208998,5.1480847 4.2068785,4.7830672 c 0.03533,-0.1499921 0.064237,-0.275062 0.064237,-0.277933 0,-0.013934 -0.2416246,-0.00254 -0.4068685,0.019193 C 3.4465935,4.5792487 3.0357525,4.7279673 2.6978816,4.9465348 2.1035959,5.3309764 1.4903043,6.1262823 1.4367496,6.5819492 l -0.010279,0.087462 0.1264571,0.1530525 C 2.0792803,7.4595148 2.7309438,7.87893 3.4769801,8.0607977 3.8652374,8.1554465 4.3541752,8.189939 4.7743522,8.152322 z M 5.79706,7.9138086 c 0.7772949,-0.289715 1.4654144,-0.8755013 1.8808365,-1.60113 0.1862163,-0.325269 0.3381303,-0.7258089 0.4151871,-1.0946924 0.039083,-0.1870984 0.05237,-0.3122357 0.033152,-0.3122357 -0.00464,0 -0.068562,0.028726 -0.1420428,0.063836 -0.2495366,0.119232 -0.5736007,0.22232 -0.92904,0.2955366 C 6.9015672,5.2967605 6.8254845,5.3020159 6.5113321,5.3026884 6.1302442,5.303505 6.0380393,5.2936806 5.7470905,5.2212664 5.3589427,5.1246603 4.967763,4.9525811 4.7013017,4.7612259 4.4726612,4.597031 4.4516032,4.6037704 4.3854822,4.8623014 4.2627419,5.3422112 4.3155935,6.035872 4.5231835,6.669588 4.59267,6.8817115 4.6887162,7.0796398 4.8134312,7.2677185 4.9276087,7.4399063 5.2220848,7.7412107 5.4221336,7.890536 5.5770921,8.0062039 5.5531531,8.0047179 5.79706,7.9138086 l 0,0 z M 1.365171,6.1057793 C 1.5146221,5.8194969 1.629916,5.6412508 1.7898595,5.4492038 2.197697,4.959507 2.8641825,4.5335003 3.5162594,4.3457172 3.6539938,4.3060529 3.9635766,4.274485 4.2287081,4.2730694 L 4.3080521,4.2726457 4.297619,4.183876 C 4.2656863,3.9121789 4.0427763,3.5473018 3.6786555,3.1707062 3.4068311,2.8895695 3.1924285,2.7251035 2.8669211,2.5480332 2.4068695,2.2977732 2.1252918,2.2183564 1.6331784,2.2000658 L 1.3896766,2.1910153 1.279953,2.3690519 C 0.75710529,3.2174204 0.58444368,4.0025545 0.7096038,4.9625676 0.7551563,5.3119683 0.85276141,5.6379371 1.0156019,5.9845001 1.1331859,6.2347466 1.2018995,6.3535979 1.2246171,6.3460253 1.2346951,6.3426653 1.2979441,6.2345552 1.365171,6.1057793 z M 7.180281,5.0053185 C 7.5902045,4.9171073 7.8838819,4.8040288 8.0758081,4.6605018 L 8.1711563,4.5891981 8.161704,4.2077119 C 8.1563504,3.9916427 8.1421289,3.7699135 8.1289061,3.696358 8.0259144,3.1234318 7.78066,2.582832 7.4071708,2.1054793 7.2775001,1.9397484 6.8653731,1.5365498 6.7102676,1.4236741 6.4917375,1.264642 6.0207072,0.99065774 6.0014801,1.0113935 c -0.00329,0.00354 0.00882,0.108715 0.026902,0.2337126 0.023237,0.1606269 0.033413,0.3200904 0.034704,0.5438208 0.00159,0.2757723 -0.00303,0.3385109 -0.035871,0.4870037 C 5.9242206,2.7416444 5.7592802,3.1773454 5.5570938,3.51779 5.4149912,3.7570645 5.1640536,4.0349831 4.8597873,4.2900711 4.7726201,4.3631494 4.6958977,4.4321722 4.689293,4.4434553 c -0.025115,0.042904 0.223853,0.224737 0.4929032,0.3599918 0.2240722,0.1126438 0.4170929,0.1717406 0.7609649,0.2329831 0.1434971,0.025556 0.2359116,0.029559 0.5844044,0.025312 0.3936002,-0.0048 0.4256924,-0.00757 0.6527155,-0.056424 l 0,0 z M 4.6859681,4.1486992 C 4.7479719,4.0983854 4.8863631,3.9685559 4.9935039,3.8601895 5.4070325,3.4419303 5.6554895,2.9464365 5.7919737,2.2678139 5.8381462,2.0382372 5.8340861,1.4132454 5.7846518,1.1406946 5.7359779,0.87233634 5.7453397,0.88161828 5.439924,0.79890511 5.1032812,0.70773495 4.7964366,0.66909801 4.4090995,0.66910678 3.6141661,0.6691248 2.9583082,0.85924726 2.3475242,1.2667236 c -0.2273505,0.151674 -0.738696,0.6020927 -0.738696,0.6506806 0,0.018181 0.041837,0.026611 0.2516186,0.050698 0.4629857,0.05316 0.9029475,0.2287868 1.3864521,0.5534519 0.3685498,0.2474748 0.6030698,0.4716566 0.865221,0.8270797 0.2259994,0.3064091 0.32147,0.4898796 0.402681,0.7738526 0.018512,0.064731 0.039232,0.1176925 0.046045,0.1176925 0.00681,0 0.063118,-0.041166 0.125122,-0.09148 l 0,0 z"
   id="path3785"
   inkscape:connector-curvature="0" /></svg>