<?xml version="1.0" encoding="utf-8"?>
<!-- Generator: Adobe Illustrator 14.0.0, SVG Export Plug-In . SVG Version: 6.00 Build 43363)  -->
<!DOCTYPE svg PUBLIC "-//W3C//DTD SVG 1.1//EN" "http://www.w3.org/Graphics/SVG/1.1/DTD/svg11.dtd">
<svg version="1.1" id="Livello_1" xmlns="http://www.w3.org/2000/svg" xmlns:xlink="http://www.w3.org/1999/xlink" x="0px" y="0px"
	 width="8.378px" height="9.861px" viewBox="0 0 8.378 9.861" enable-background="new 0 0 8.378 9.861" xml:space="preserve">
<g>
	<path d="M6.348,1.262c-0.433-0.072-0.843-0.108-1.23-0.108c-0.984,0-1.817,0.23-2.5,0.689C1.909,2.321,1.401,3.013,1.092,3.918
		C0.941,4.364,0.866,4.725,0.866,5c0,0.983,0.231,1.82,0.693,2.509c0.463,0.689,1.15,1.184,2.062,1.486
		c0.485,0.157,0.853,0.229,1.102,0.217c1.083-0.072,1.909-0.395,2.48-0.965C7.669,7.775,7.896,7.25,7.883,6.673
		C7.863,5.9,7.61,5.306,7.125,4.893C6.771,4.597,6.377,4.44,5.944,4.42c-0.38-0.013-0.699,0.079-0.955,0.276
		c-0.275,0.21-0.423,0.501-0.443,0.875C4.52,6.017,4.737,6.24,5.196,6.24c0.053,0,0.102,0,0.148,0v0.228
		C5.285,6.474,5.219,6.476,5.147,6.476c-0.63,0-0.929-0.298-0.896-0.895c0.026-0.453,0.202-0.825,0.526-1.117
		s0.713-0.428,1.166-0.408c0.564,0.02,1.053,0.19,1.466,0.512c0.61,0.466,0.925,1.171,0.945,2.115
		c0.02,0.734-0.216,1.381-0.708,1.938c-0.643,0.734-1.617,1.138-2.923,1.21c-0.341,0.02-0.774-0.043-1.299-0.188
		C2.316,9.343,1.47,8.783,0.886,7.962C0.328,7.175,0.036,6.191,0.01,5.01C0.003,4.624,0.085,4.138,0.256,3.554
		c0.348-1.181,0.961-2.073,1.84-2.676c0.853-0.59,1.912-0.885,3.179-0.885c0.4,0,0.82,0.029,1.259,0.088L6.348,1.262z"/>
</g>
</svg>
