<?xml version="1.0" encoding="UTF-8" standalone="no"?>
<!-- Generator: Adobe Illustrator 14.0.0, SVG Export Plug-In . SVG Version: 6.00 Build 43363)  -->

<svg
   xmlns:dc="http://purl.org/dc/elements/1.1/"
   xmlns:cc="http://creativecommons.org/ns#"
   xmlns:rdf="http://www.w3.org/1999/02/22-rdf-syntax-ns#"
   xmlns:svg="http://www.w3.org/2000/svg"
   xmlns="http://www.w3.org/2000/svg"
   xmlns:sodipodi="http://sodipodi.sourceforge.net/DTD/sodipodi-0.dtd"
   xmlns:inkscape="http://www.inkscape.org/namespaces/inkscape"
   version="1.1"
   id="Livello_1"
   x="0px"
   y="0px"
   width="9.7685518"
   height="9.9681587"
   viewBox="0 0 9.7685516 9.9681591"
   enable-background="new 0 0 21.69 11.105"
   xml:space="preserve"
   inkscape:version="0.48.5 r10040"
   sodipodi:docname="dbgr_rt_3010-3011-zona-cata.svg"><metadata
   id="metadata55"><rdf:RDF><cc:Work
       rdf:about=""><dc:format>image/svg+xml</dc:format><dc:type
         rdf:resource="http://purl.org/dc/dcmitype/StillImage" /></cc:Work></rdf:RDF></metadata><defs
   id="defs53" /><sodipodi:namedview
   pagecolor="#ffffff"
   bordercolor="#666666"
   borderopacity="1"
   objecttolerance="10"
   gridtolerance="10"
   guidetolerance="10"
   inkscape:pageopacity="0"
   inkscape:pageshadow="2"
   inkscape:window-width="1600"
   inkscape:window-height="824"
   id="namedview51"
   showgrid="false"
   fit-margin-top="0"
   fit-margin-left="0"
   fit-margin-right="0"
   fit-margin-bottom="0"
   inkscape:zoom="16.377339"
   inkscape:cx="10.629401"
   inkscape:cy="4.7439017"
   inkscape:window-x="-4"
   inkscape:window-y="-4"
   inkscape:window-maximized="1"
   inkscape:current-layer="Livello_1" />








<g
   id="g3044"
   transform="translate(-0.21559882,-0.3282423)"><path
     d="M 0.281,4.551 C 0.198,4.468 0.194,4.389 0.269,4.314 L 4.202,0.382 C 4.276,0.307 4.356,0.31 4.439,0.394 4.522,0.477 4.526,0.556 4.451,0.631 L 0.518,4.564 C 0.443,4.638 0.364,4.634 0.281,4.551 z"
     id="path13"
     inkscape:connector-curvature="0"
     style="fill:#767885" /><path
     d="M 9.918,10.231 C 9.834,10.314 9.756,10.318 9.68,10.243 L 5.748,6.311 C 5.673,6.236 5.676,6.156 5.76,6.073 5.843,5.99 5.922,5.986 5.997,6.061 L 9.93,9.992 c 0.076,0.077 0.072,0.155 -0.012,0.239 z"
     id="path37"
     inkscape:connector-curvature="0"
     style="fill:#767885" /></g>



</svg>