<?xml version="1.0" encoding="utf-8"?>
<!-- Generator: Adobe Illustrator 14.0.0, SVG Export Plug-In . SVG Version: 6.00 Build 43363)  -->
<!DOCTYPE svg PUBLIC "-//W3C//DTD SVG 1.1//EN" "http://www.w3.org/Graphics/SVG/1.1/DTD/svg11.dtd">
<svg version="1.1" id="Livello_1" xmlns="http://www.w3.org/2000/svg" xmlns:xlink="http://www.w3.org/1999/xlink" x="0px" y="0px"
	 width="28.913px" height="28.912px" viewBox="0 0 28.913 28.912" enable-background="new 0 0 28.913 28.912" xml:space="preserve">
<rect fill="#D9D8D8" width="28.913" height="28.912"/>
<polygon fill="none" stroke="#000000" stroke-width="0.75" stroke-linecap="round" stroke-linejoin="round" stroke-miterlimit="10" points="
	6.204,26.307 6.146,22.105 3.805,21.445 1.524,24.986 "/>
<polygon fill="none" stroke="#000000" stroke-width="0.75" stroke-linecap="round" stroke-linejoin="round" stroke-miterlimit="10" points="
	6.385,14.246 2.425,12.926 0.985,14.906 3.565,18.205 "/>
<polygon fill="none" stroke="#000000" stroke-width="0.75" stroke-linecap="round" stroke-linejoin="round" stroke-miterlimit="10" points="
	17.305,23.186 13.165,22.406 12.024,24.566 15.024,27.506 "/>
<polygon fill="none" stroke="#000000" stroke-width="0.75" stroke-linecap="round" stroke-linejoin="round" stroke-miterlimit="10" points="
	15.985,18.625 15.925,14.426 13.524,13.766 11.245,17.246 "/>
<polygon fill="none" stroke="#000000" stroke-width="0.75" stroke-linecap="round" stroke-linejoin="round" stroke-miterlimit="10" points="
	8.545,11.727 12.085,9.566 11.545,7.166 7.345,6.986 "/>
<polygon fill="none" stroke="#000000" stroke-width="0.75" stroke-linecap="round" stroke-linejoin="round" stroke-miterlimit="10" points="
	26.485,22.705 26.425,18.506 24.024,17.846 21.745,21.385 "/>
<polygon fill="none" stroke="#000000" stroke-width="0.75" stroke-linecap="round" stroke-linejoin="round" stroke-miterlimit="10" points="
	19.524,10.045 21.745,13.586 24.146,12.986 24.265,8.785 "/>
<polygon fill="none" stroke="#000000" stroke-width="0.75" stroke-linecap="round" stroke-linejoin="round" stroke-miterlimit="10" points="
	20.545,5.426 19.345,1.406 16.885,1.406 15.685,5.426 "/>
<polygon fill="none" stroke="#000000" stroke-width="0.75" stroke-linecap="round" stroke-linejoin="round" stroke-miterlimit="10" points="
	6.325,2.186 2.186,1.406 1.045,3.566 4.045,6.506 "/>
<polygon fill="none" stroke="#000000" stroke-width="0.75" stroke-linecap="round" stroke-linejoin="round" stroke-miterlimit="10" points="
	24.385,23.77 20.245,22.988 19.104,25.148 22.104,28.088 "/>
<polygon fill="none" stroke="#000000" stroke-width="0.75" stroke-linecap="round" stroke-linejoin="round" stroke-miterlimit="10" points="
	27.175,2.186 23.035,1.406 21.895,3.566 24.895,6.506 "/>
</svg>
