<?xml version="1.0" encoding="UTF-8" standalone="no"?>
<!-- Generator: Adobe Illustrator 14.0.0, SVG Export Plug-In . SVG Version: 6.00 Build 43363)  -->

<svg
   xmlns:dc="http://purl.org/dc/elements/1.1/"
   xmlns:cc="http://creativecommons.org/ns#"
   xmlns:rdf="http://www.w3.org/1999/02/22-rdf-syntax-ns#"
   xmlns:svg="http://www.w3.org/2000/svg"
   xmlns="http://www.w3.org/2000/svg"
   xmlns:sodipodi="http://sodipodi.sourceforge.net/DTD/sodipodi-0.dtd"
   xmlns:inkscape="http://www.inkscape.org/namespaces/inkscape"
   version="1.1"
   id="Livello_1"
   x="0px"
   y="0px"
   width="15.7px"
   height="6.79px"
   viewBox="0 0 15.7 6.79"
   enable-background="new 0 0 15.7 6.79"
   xml:space="preserve"
   inkscape:version="0.48.0 r9654"
   sodipodi:docname="3210,2.svg"><metadata
   id="metadata5902"><rdf:RDF><cc:Work
       rdf:about=""><dc:format>image/svg+xml</dc:format><dc:type
         rdf:resource="http://purl.org/dc/dcmitype/StillImage" /></cc:Work></rdf:RDF></metadata><defs
   id="defs5900" /><sodipodi:namedview
   pagecolor="#ffffff"
   bordercolor="#666666"
   borderopacity="1"
   objecttolerance="10"
   gridtolerance="10"
   guidetolerance="10"
   inkscape:pageopacity="0"
   inkscape:pageshadow="2"
   inkscape:window-width="1471"
   inkscape:window-height="758"
   id="namedview5898"
   showgrid="true"
   showguides="true"
   inkscape:guide-bbox="true"
   inkscape:zoom="44.293141"
   inkscape:cx="6.2008207"
   inkscape:cy="3.5828758"
   inkscape:window-x="0"
   inkscape:window-y="0"
   inkscape:window-maximized="0"
   inkscape:current-layer="Livello_1"><inkscape:grid
     type="xygrid"
     id="grid5904" /><sodipodi:guide
     orientation="0,1"
     position="0,0.8028409"
     id="guide5906" /></sodipodi:namedview>
<g
   id="g5890">
	<path
   d="M 15.71418,6.4564475 15.720541,6.79 0,6.7187116 0,6.5025095 0,6.075 0,5.987159 l 0.31563636,0 15.09304564,0 0.304876,1e-7 0.0034,0.1499273 z"
   id="path5892"
   inkscape:connector-curvature="0"
   style="fill:#004b95"
   sodipodi:nodetypes="ccccccccccc" />
</g>
<g
   id="g5894">
	<path
   fill="#004B95"
   d="M6.241,6.07V0.095h0.598V6.07H6.241z M8.851,6.07V0.095h0.598V6.07H8.851z"
   id="path5896" />
</g>
<path
   style="fill:#0038f0;fill-opacity:1"
   d="M 6.8487766,6.7391184 C 3.8810484,6.7238352 1.1303404,6.7102523 0.73609197,6.7089341 l -0.71681527,-0.0024 0,-0.3499413 0,-0.3499413 3.1156065,0 3.1156066,0 0,-2.9462801 0,-2.94628012 0.2934992,0 0.2934991,0 0,2.94628012 0,2.9462801 1.0159587,0 1.0159586,0 0,-2.9462801 0,-2.94628012 0.2822108,0 0.2822107,0 0,2.94628012 0,2.9462801 3.1381831,0 3.138184,0 0,0.3838066 0,0.3838066 -1.732774,-0.00368 C 13.024394,6.7685618 9.8165047,6.7544016 6.8487766,6.7391184 l 0,0 z"
   id="path6057"
   inkscape:connector-curvature="0" /></svg>