<?xml version="1.0" encoding="UTF-8" standalone="no"?>
<!-- Generator: Adobe Illustrator 14.0.0, SVG Export Plug-In . SVG Version: 6.00 Build 43363)  -->

<svg
   xmlns:dc="http://purl.org/dc/elements/1.1/"
   xmlns:cc="http://creativecommons.org/ns#"
   xmlns:rdf="http://www.w3.org/1999/02/22-rdf-syntax-ns#"
   xmlns:svg="http://www.w3.org/2000/svg"
   xmlns="http://www.w3.org/2000/svg"
   xmlns:sodipodi="http://sodipodi.sourceforge.net/DTD/sodipodi-0.dtd"
   xmlns:inkscape="http://www.inkscape.org/namespaces/inkscape"
   version="1.1"
   id="Livello_1"
   sodipodi:docname="cgt_3421-2.svg"
   inkscape:version="0.48.5 r10040"
   x="0px"
   y="0px"
   width="2.6249223"
   height="10.665123"
   viewBox="0.496 0 2.6249223 10.665123"
   enable-background="new 0.496 0 4.673 15.743"
   xml:space="preserve"><metadata
   id="metadata11"><rdf:RDF><cc:Work
       rdf:about=""><dc:format>image/svg+xml</dc:format><dc:type
         rdf:resource="http://purl.org/dc/dcmitype/StillImage" /></cc:Work></rdf:RDF></metadata><defs
   id="defs9"><marker
   inkscape:stockid="Arrow2Mstart"
   orient="auto"
   refY="0"
   refX="0"
   id="Arrow2Mstart"
   style="overflow:visible"><path
     id="path4775"
     style="fill-rule:evenodd;stroke-width:0.625;stroke-linejoin:round"
     d="M 8.7185878,4.0337352 -2.2072895,0.01601326 8.7185884,-4.0017078 c -1.7454984,2.3720609 -1.7354408,5.6174519 -6e-7,8.035443 z"
     transform="scale(0.6,0.6)"
     inkscape:connector-curvature="0" /></marker><marker
   inkscape:stockid="Arrow2Lend"
   orient="auto"
   refY="0"
   refX="0"
   id="Arrow2Lend"
   style="overflow:visible"><path
     id="path3785"
     style="fill-rule:evenodd;stroke-width:0.625;stroke-linejoin:round"
     d="M 8.7185878,4.0337352 -2.2072895,0.01601326 8.7185884,-4.0017078 c -1.7454984,2.3720609 -1.7354408,5.6174519 -6e-7,8.035443 z"
     transform="matrix(-1.1,0,0,-1.1,-1.1,0)"
     inkscape:connector-curvature="0" /></marker><marker
   inkscape:stockid="Arrow2Mend"
   orient="auto"
   refY="0"
   refX="0"
   id="Arrow2Mend"
   style="overflow:visible"><path
     id="path3791"
     style="fill-rule:evenodd;stroke-width:0.625;stroke-linejoin:round"
     d="M 8.7185878,4.0337352 -2.2072895,0.01601326 8.7185884,-4.0017078 c -1.7454984,2.3720609 -1.7354408,5.6174519 -6e-7,8.035443 z"
     transform="scale(-0.6,-0.6)"
     inkscape:connector-curvature="0" /></marker><marker
   inkscape:stockid="Arrow1Lend"
   orient="auto"
   refY="0"
   refX="0"
   id="Arrow1Lend"
   style="overflow:visible"><path
     id="path3767"
     d="M 0,0 5,-5 -12.5,0 5,5 0,0 z"
     style="fill-rule:evenodd;stroke:#000000;stroke-width:1pt"
     transform="matrix(-0.8,0,0,-0.8,-10,0)"
     inkscape:connector-curvature="0" /></marker><marker
   inkscape:stockid="Arrow1Lstart"
   orient="auto"
   refY="0"
   refX="0"
   id="Arrow1Lstart"
   style="overflow:visible"><path
     id="path3764"
     d="M 0,0 5,-5 -12.5,0 5,5 0,0 z"
     style="fill-rule:evenodd;stroke:#000000;stroke-width:1pt"
     transform="matrix(0.8,0,0,0.8,10,0)"
     inkscape:connector-curvature="0" /></marker><marker
   inkscape:stockid="DotL"
   orient="auto"
   refY="0"
   refX="0"
   id="DotL"
   style="overflow:visible"><path
     id="path3825"
     d="m -2.5,-1 c 0,2.76 -2.24,5 -5,5 -2.76,0 -5,-2.24 -5,-5 0,-2.76 2.24,-5 5,-5 2.76,0 5,2.24 5,5 z"
     style="fill-rule:evenodd;stroke:#000000;stroke-width:1pt"
     transform="matrix(0.8,0,0,0.8,5.92,0.8)"
     inkscape:connector-curvature="0" /></marker>
	

	
</defs>
<sodipodi:namedview
   id="namedview4814"
   inkscape:window-maximized="1"
   bordercolor="#666666"
   inkscape:cy="5.6759352"
   pagecolor="#ffffff"
   inkscape:cx="-1.4507587"
   inkscape:zoom="40.781738"
   guidetolerance="27"
   gridtolerance="10000"
   objecttolerance="19"
   showgrid="true"
   borderopacity="1"
   inkscape:current-layer="Livello_1"
   inkscape:window-y="-4"
   inkscape:window-x="-4"
   inkscape:window-height="824"
   inkscape:window-width="1600"
   inkscape:pageshadow="2"
   inkscape:pageopacity="0"
   fit-margin-top="0"
   fit-margin-left="0"
   fit-margin-right="0"
   fit-margin-bottom="0"
   inkscape:snap-nodes="false"
   inkscape:snap-to-guides="false"
   showguides="true">
	<inkscape:grid
   type="xygrid"
   id="grid2988"
   empspacing="1"
   visible="true"
   enabled="true"
   snapvisiblegridlinesonly="true"
   originx="-1.0741209px"
   originy="-2.0673324px"
   color="#c250ff"
   opacity="0.1254902"
   empcolor="#00d6ff"
   empopacity="0.25098039"
   dotted="false" /></sodipodi:namedview>



<g
   id="g3016"
   transform="translate(0.01112911,1.0273627e-7)"><path
     inkscape:connector-curvature="0"
     id="path2990"
     d="m 1.8107502,9.9101909 0,-9.15525854"
     style="fill:#004494;fill-opacity:1;stroke:#004494;stroke-width:0.5;stroke-linecap:butt;stroke-linejoin:miter;stroke-miterlimit:4;stroke-opacity:1;stroke-dasharray:none;marker-start:url(#Arrow2Mstart);marker-mid:none;marker-end:url(#Arrow2Mend)" /><path
     inkscape:connector-curvature="0"
     id="path7052"
     d="M 0.7344726,3.0539857 C 1.0673804,2.1386587 1.7764682,0.2195836 1.7928949,0.18947205 1.803929,0.16924551 2.0674892,0.84616571 2.3915713,1.7270948 2.7100017,2.5926611 2.9675714,3.3049421 2.9639484,3.3099417 2.9603254,3.3149411 2.9085518,3.2888066 2.8488959,3.251865 2.2561515,2.8848108 1.3643367,2.8839358 0.7731162,3.2498283 c -0.057882,0.035821 -0.11161136,0.06513 -0.11939966,0.06513 -0.00779,0 0.028552,-0.1174377 0.080756,-0.2609726 l 0,0 z"
     style="fill:#004494;fill-opacity:1;stroke:#004494;stroke-width:0.1;stroke-linecap:butt;stroke-linejoin:round;stroke-miterlimit:4;stroke-opacity:1;stroke-dasharray:none" /><path
     sodipodi:nodetypes="cc"
     inkscape:connector-curvature="0"
     id="path2999"
     d="m 0.49801214,4.7527293 1.24829706,0.00162"
     style="fill:none;stroke:#004494;stroke-width:0.5;stroke-linecap:butt;stroke-linejoin:miter;stroke-miterlimit:4;stroke-opacity:1;stroke-dasharray:none" /><path
     inkscape:connector-curvature="0"
     id="path5201"
     d="M 1.2326804,8.930872 C 0.9227494,8.0873824 0.67382662,7.3925973 0.67951866,7.3869053 c 0.005692,-0.00569 0.10404424,0.036091 0.21856054,0.09285 0.2967181,0.1470672 0.5453736,0.2045083 0.887338,0.2049812 C 2.1713421,7.6852702 2.4176518,7.6339545 2.709555,7.4922036 2.8394129,7.4291433 2.9496844,7.3815727 2.9546028,7.3864911 2.9695801,7.4014685 1.8360317,10.463991 1.815415,10.464249 1.804842,10.464381 1.5426115,9.7743616 1.2326804,8.930872 z"
     style="fill:#004494;fill-opacity:1;stroke:#004494;stroke-width:0.1;stroke-linecap:butt;stroke-linejoin:round;stroke-miterlimit:4;stroke-opacity:1;stroke-dasharray:none" /><path
     sodipodi:nodetypes="cc"
     inkscape:connector-curvature="0"
     id="path2999-1"
     d="M 0.48487089,5.8582413 1.733168,5.8598613"
     style="fill:none;stroke:#004494;stroke-width:0.5;stroke-linecap:butt;stroke-linejoin:miter;stroke-miterlimit:4;stroke-opacity:1;stroke-dasharray:none" /></g></svg>