<?xml version="1.0" encoding="utf-8"?>
<!-- Generator: Adobe Illustrator 14.0.0, SVG Export Plug-In . SVG Version: 6.00 Build 43363)  -->
<!DOCTYPE svg PUBLIC "-//W3C//DTD SVG 1.1//EN" "http://www.w3.org/Graphics/SVG/1.1/DTD/svg11.dtd">
<svg version="1.1" id="Livello_1" xmlns="http://www.w3.org/2000/svg" xmlns:xlink="http://www.w3.org/1999/xlink" x="0px" y="0px"
	 width="8.842px" height="8.831px" viewBox="0 0 8.842 8.831" enable-background="new 0 0 8.842 8.831" xml:space="preserve">
<g enable-background="new    ">
	<path fill="#058AC7" d="M0.011,4.415c0-1.222,0.43-2.263,1.292-3.125c0.861-0.861,1.902-1.292,3.124-1.292
		c1.221,0,2.263,0.431,3.125,1.292c0.859,0.861,1.291,1.903,1.291,3.125c0,1.223-0.432,2.264-1.291,3.125
		C6.689,8.399,5.647,8.831,4.427,8.831c-1.222,0-2.263-0.432-3.124-1.292C0.441,6.679,0.011,5.638,0.011,4.415z M1.413,2.217
		C0.927,2.887,0.685,3.62,0.685,4.415c0,0.686,0.18,1.326,0.541,1.921L1.303,6.17c0.11-0.271,0.279-0.537,0.508-0.795
		c0.257-0.287,0.563-0.53,0.916-0.729c0.331-0.184,0.655-0.309,0.972-0.375C3.765,4.264,3.96,4.256,4.284,4.249
		c0-0.199-0.129-0.467-0.386-0.806C3.764,3.274,3.615,3.117,3.45,2.974S3.091,2.696,2.87,2.571C2.583,2.409,2.324,2.308,2.092,2.267
		C1.86,2.226,1.634,2.21,1.413,2.217z M1.446,6.646c0.743,1.002,1.736,1.502,2.98,1.502c0.257,0,0.515-0.025,0.772-0.078
		C4.412,7.37,4.04,6.454,4.084,5.319C4.092,5.144,4.147,4.875,4.25,4.514c-0.199,0-0.383,0.018-0.552,0.055
		c-0.677,0.132-1.244,0.479-1.7,1.038C1.652,6.021,1.468,6.365,1.446,6.646z M5.708,0.903C5.295,0.756,4.868,0.682,4.427,0.682
		c-1.126,0-2.061,0.416-2.804,1.248c0.397,0,0.78,0.092,1.148,0.276s0.688,0.401,0.96,0.651C3.952,3.071,4.162,3.34,4.36,3.664
		c0.081,0.133,0.136,0.265,0.166,0.398c0.022,0.096,0.033,0.147,0.033,0.154c0.059-0.029,0.232-0.184,0.52-0.464
		c0.072-0.066,0.193-0.239,0.363-0.519c0.104-0.169,0.209-0.471,0.32-0.906C5.813,2.114,5.829,1.85,5.807,1.533
		C5.792,1.29,5.758,1.08,5.708,0.903z M5.575,7.97c0.684-0.213,1.256-0.594,1.717-1.143C7.75,6.278,8.028,5.644,8.124,4.922
		C7.978,5.026,7.728,5.125,7.374,5.22C6.903,5.354,6.432,5.379,5.961,5.298C5.608,5.239,5.232,5.106,4.835,4.9
		C4.82,4.886,4.759,4.838,4.653,4.757c-0.107-0.081-0.16-0.118-0.16-0.11c-0.03,0.021-0.063,0.11-0.099,0.265
		C4.349,5.097,4.327,5.269,4.327,5.431c0,0.229,0.044,0.541,0.132,0.938C4.6,7.047,4.971,7.58,5.575,7.97z M8.146,4.569l0.011-0.155
		C8.18,3.686,7.988,3.009,7.583,2.383c-0.396-0.596-0.92-1.045-1.565-1.347l0.055,0.353c0.021,0.14,0.033,0.276,0.033,0.409
		c0,0.243-0.052,0.538-0.153,0.883C5.833,3.079,5.678,3.414,5.486,3.686C5.338,3.899,5.118,4.124,4.824,4.359l-0.133,0.1
		C4.875,4.606,5.047,4.72,5.209,4.801c0.267,0.132,0.629,0.217,1.095,0.255C6.633,5.076,6.988,5.04,7.363,4.944
		C7.738,4.849,7.999,4.724,8.146,4.569z"/>
</g>
</svg>
