<?xml version="1.0" encoding="utf-8"?>
<!-- Generator: Adobe Illustrator 14.0.0, SVG Export Plug-In . SVG Version: 6.00 Build 43363)  -->
<!DOCTYPE svg PUBLIC "-//W3C//DTD SVG 1.1//EN" "http://www.w3.org/Graphics/SVG/1.1/DTD/svg11.dtd">
<svg version="1.1"
	 id="Livello_1" sodipodi:docname="3210,1.svg" inkscape:version="0.48.0 r9654" xmlns:dc="http://purl.org/dc/elements/1.1/" xmlns:cc="http://creativecommons.org/ns#" xmlns:rdf="http://www.w3.org/1999/02/22-rdf-syntax-ns#" xmlns:svg="http://www.w3.org/2000/svg" xmlns:sodipodi="http://sodipodi.sourceforge.net/DTD/sodipodi-0.dtd" xmlns:inkscape="http://www.inkscape.org/namespaces/inkscape"
	 xmlns="http://www.w3.org/2000/svg" xmlns:xlink="http://www.w3.org/1999/xlink" x="0px" y="0px" width="15.362px"
	 height="6.835px" viewBox="0 3.065 15.362 6.835" enable-background="new 0 3.065 15.362 6.835" xml:space="preserve">
<sodipodi:namedview  id="namedview3067" inkscape:window-maximized="1" bordercolor="#666666" inkscape:cy="3.5998951" pagecolor="#ffffff" inkscape:cx="8.9380868" inkscape:zoom="67.119348" guidetolerance="10" gridtolerance="10" objecttolerance="10" showguides="true" showgrid="true" borderopacity="1" inkscape:current-layer="Livello_1" inkscape:window-y="-9" inkscape:window-x="-9" inkscape:guide-bbox="true" inkscape:window-height="1019" inkscape:window-width="1920" inkscape:pageshadow="2" inkscape:pageopacity="0">
	<inkscape:grid  type="xygrid" id="grid6297"></inkscape:grid>
	<sodipodi:guide  id="guide6299" position="7.3932648,8.2156258" orientation="1,0"></sodipodi:guide>
	<sodipodi:guide  id="guide6301" position="8,8.143769" orientation="1,0"></sodipodi:guide>
	<sodipodi:guide  id="guide6303" position="2.4990193,7.4970579" orientation="-0.70710678,0.70710678"></sodipodi:guide>
	<sodipodi:guide  id="guide6305" position="3.2814599,6.8343787" orientation="0,1"></sodipodi:guide>
</sodipodi:namedview>
<g id="g3063" transform="matrix(1,0.00166472,0.00259972,1.0000043,-0.01286993,-0.01282682)">
	<path id="path3065" inkscape:connector-curvature="0" sodipodi:nodetypes="cccccccccccc" d="M7.995,9.199l7.353-0.013l0.014,0.685
		l-15.362,0l-0.001-0.659l7.394-0.026l0.24-4.769l0.046-1.351l0.112,0l0.1,0L7.97,3.711L7.995,9.199z"/>
</g>
<g id="g3073" transform="matrix(1,0.00166472,0.00259972,1.0000043,-0.01286993,-0.01282682)">
	<path id="path3075" inkscape:connector-curvature="0" sodipodi:nodetypes="cccccccccccc" d="M7.995,9.199l7.353-0.013l0.014,0.685
		l-15.362,0l-0.001-0.659l7.394-0.026L7.38,3.711l0.017-0.646l0.336-0.001l0.271,0L8.003,3.719L7.995,9.199z"/>
</g>
<path id="path6307" inkscape:connector-curvature="0" fill="#0038F0" d="M7.135,9.863c-2.766-0.005-5.5-0.011-6.075-0.012
	L0.014,9.849V9.531V9.214l1.478-0.011c0.813-0.005,2.476-0.01,3.697-0.01h2.22L7.397,6.312c-0.006-1.585-0.006-2.963,0-3.062
	L7.407,3.07h0.296h0.296v3.069v3.069h3.68h3.68v0.288c0,0.159,0.005,0.31,0.01,0.335l0.01,0.047l-1.607-0.003
	C12.886,9.874,9.901,9.868,7.135,9.863z"/>
</svg>
