<?xml version="1.0" encoding="utf-8"?>
<!-- Generator: Adobe Illustrator 14.0.0, SVG Export Plug-In . SVG Version: 6.00 Build 43363)  -->
<!DOCTYPE svg PUBLIC "-//W3C//DTD SVG 1.1//EN" "http://www.w3.org/Graphics/SVG/1.1/DTD/svg11.dtd">
<svg version="1.1" id="Livello_1" xmlns="http://www.w3.org/2000/svg" xmlns:xlink="http://www.w3.org/1999/xlink" x="0px" y="0px"
	 width="28.913px" height="28.914px" viewBox="0 0 28.913 28.914" enable-background="new 0 0 28.913 28.914" xml:space="preserve">
<rect y="0.001" fill="#E85354" width="28.913" height="28.912"/>
<polygon fill="none" stroke="#000000" stroke-width="0.75" stroke-linecap="round" stroke-linejoin="round" stroke-miterlimit="10" points="
	6.204,26.308 6.146,22.107 3.805,21.447 1.524,24.988 "/>
<polygon fill="none" stroke="#000000" stroke-width="0.75" stroke-linecap="round" stroke-linejoin="round" stroke-miterlimit="10" points="
	6.385,14.248 2.425,12.927 0.985,14.908 3.565,18.207 "/>
<polygon fill="none" stroke="#000000" stroke-width="0.75" stroke-linecap="round" stroke-linejoin="round" stroke-miterlimit="10" points="
	17.305,23.187 13.165,22.408 12.024,24.568 15.024,27.507 "/>
<polygon fill="none" stroke="#000000" stroke-width="0.75" stroke-linecap="round" stroke-linejoin="round" stroke-miterlimit="10" points="
	15.985,18.626 15.925,14.427 13.524,13.767 11.245,17.248 "/>
<polygon fill="none" stroke="#000000" stroke-width="0.75" stroke-linecap="round" stroke-linejoin="round" stroke-miterlimit="10" points="
	8.545,11.728 12.085,9.568 11.545,7.167 7.345,6.988 "/>
<polygon fill="none" stroke="#000000" stroke-width="0.75" stroke-linecap="round" stroke-linejoin="round" stroke-miterlimit="10" points="
	26.485,22.707 26.425,18.507 24.024,17.847 21.745,21.386 "/>
<polygon fill="none" stroke="#000000" stroke-width="0.75" stroke-linecap="round" stroke-linejoin="round" stroke-miterlimit="10" points="
	19.524,10.046 21.745,13.587 24.146,12.988 24.265,8.787 "/>
<polygon fill="none" stroke="#000000" stroke-width="0.75" stroke-linecap="round" stroke-linejoin="round" stroke-miterlimit="10" points="
	20.545,5.427 19.345,1.408 16.885,1.408 15.685,5.427 "/>
<polygon fill="none" stroke="#000000" stroke-width="0.75" stroke-linecap="round" stroke-linejoin="round" stroke-miterlimit="10" points="
	6.325,2.187 2.186,1.408 1.045,3.568 4.045,6.507 "/>
<polygon fill="none" stroke="#000000" stroke-width="0.75" stroke-linecap="round" stroke-linejoin="round" stroke-miterlimit="10" points="
	24.385,23.771 20.245,22.99 19.104,25.15 22.104,28.089 "/>
<polygon fill="none" stroke="#000000" stroke-width="0.75" stroke-linecap="round" stroke-linejoin="round" stroke-miterlimit="10" points="
	27.175,2.187 23.035,1.408 21.895,3.568 24.895,6.507 "/>
</svg>
