<?xml version="1.0" encoding="utf-8"?>
<!-- Generator: Adobe Illustrator 14.0.0, SVG Export Plug-In . SVG Version: 6.00 Build 43363)  -->
<!DOCTYPE svg PUBLIC "-//W3C//DTD SVG 1.1//EN" "http://www.w3.org/Graphics/SVG/1.1/DTD/svg11.dtd">
<svg version="1.1" id="Livello_1" xmlns="http://www.w3.org/2000/svg" xmlns:xlink="http://www.w3.org/1999/xlink" x="0px" y="0px"
	 width="7.36px" height="7.266px" viewBox="0 0 7.36 7.266" enable-background="new 0 0 7.36 7.266" xml:space="preserve">
<g>
	<path fill="#E53045" d="M6.131,1.386C6.708,2.018,6.997,2.763,6.997,3.62c0,0.863-0.287,1.608-0.858,2.234L7.307,7.02L7.049,7.277
		l-1.174-1.17c-0.62,0.56-1.355,0.84-2.205,0.84c-0.863,0-1.607-0.281-2.233-0.844L0.256,7.275L0.002,7.013l1.16-1.175
		C0.619,5.23,0.347,4.49,0.347,3.616c0-0.85,0.279-1.584,0.838-2.203L0.026,0.256l0.257-0.257l1.159,1.158
		c0.631-0.571,1.371-0.857,2.22-0.857c0.849,0,1.583,0.279,2.202,0.838l1.163-1.153l0.261,0.242L6.131,1.386z M3.649,3.357
		l1.755-1.759C4.9,1.182,4.32,0.974,3.665,0.974c-0.668,0-1.254,0.219-1.758,0.656L3.649,3.357z M3.65,3.887L1.911,5.629
		c0.498,0.43,1.083,0.644,1.756,0.644c0.661,0,1.24-0.212,1.738-0.635L3.65,3.887z"/>
</g>
</svg>
