<?xml version="1.0" encoding="utf-8"?>
<!-- Generator: Adobe Illustrator 14.0.0, SVG Export Plug-In . SVG Version: 6.00 Build 43363)  -->
<!DOCTYPE svg PUBLIC "-//W3C//DTD SVG 1.1//EN" "http://www.w3.org/Graphics/SVG/1.1/DTD/svg11.dtd">
<svg version="1.1" id="Livello_1" xmlns="http://www.w3.org/2000/svg" xmlns:xlink="http://www.w3.org/1999/xlink" x="0px" y="0px"
	 width="6.394px" height="6.344px" viewBox="0 0 6.394 6.344" enable-background="new 0 0 6.394 6.344" xml:space="preserve">
<g>
	<path fill="#E53045" d="M6.385,6.373H0V-0.01h6.385V6.373z M6.202,6.191V0.172h-6.02v6.019H6.202z"/>
</g>
<g>
	<path fill="#E53045" d="M4.541,3.266c0,0.196-0.038,0.381-0.112,0.555C4.353,3.994,4.251,4.146,4.122,4.275S3.84,4.506,3.666,4.581
		S3.307,4.693,3.11,4.693S2.729,4.656,2.555,4.581S2.229,4.404,2.099,4.275S1.867,3.994,1.792,3.82S1.68,3.461,1.68,3.266
		S1.718,2.885,1.792,2.71C1.867,2.537,1.97,2.385,2.099,2.256C2.229,2.126,2.38,2.025,2.555,1.95
		C2.729,1.875,2.914,1.837,3.11,1.837S3.492,1.875,3.666,1.95C3.84,2.025,3.992,2.126,4.122,2.256
		C4.251,2.385,4.353,2.537,4.428,2.71C4.503,2.885,4.541,3.07,4.541,3.266z M4.459,3.266c0-0.185-0.036-0.359-0.106-0.522
		C4.282,2.58,4.185,2.438,4.063,2.315s-0.266-0.219-0.429-0.29S3.295,1.919,3.11,1.919S2.75,1.955,2.587,2.025
		c-0.164,0.071-0.307,0.167-0.429,0.29S1.939,2.58,1.868,2.743C1.797,2.907,1.762,3.081,1.762,3.266s0.036,0.359,0.106,0.521
		c0.071,0.164,0.167,0.307,0.29,0.429s0.266,0.22,0.429,0.29C2.75,4.576,2.925,4.611,3.11,4.611S3.47,4.576,3.633,4.506
		s0.307-0.168,0.429-0.29s0.219-0.265,0.29-0.429C4.423,3.625,4.459,3.451,4.459,3.266z"/>
</g>
</svg>
