<?xml version="1.0" encoding="utf-8"?>
<!-- Generator: Adobe Illustrator 14.0.0, SVG Export Plug-In . SVG Version: 6.00 Build 43363)  -->
<!DOCTYPE svg PUBLIC "-//W3C//DTD SVG 1.1//EN" "http://www.w3.org/Graphics/SVG/1.1/DTD/svg11.dtd">
<svg version="1.1" id="Livello_1" xmlns="http://www.w3.org/2000/svg" xmlns:xlink="http://www.w3.org/1999/xlink" x="0px" y="0px"
	 width="6.394px" height="6.55px" viewBox="0 0 6.394 6.55" enable-background="new 0 0 6.394 6.55" xml:space="preserve">
<g>
	<path fill="#E53045" d="M6.394,3.358c0,0.438-0.083,0.851-0.251,1.24c-0.167,0.39-0.396,0.729-0.685,1.018
		c-0.29,0.289-0.629,0.517-1.019,0.684C4.049,6.467,3.635,6.55,3.197,6.55S2.344,6.467,1.955,6.299
		c-0.39-0.167-0.729-0.395-1.019-0.684C0.647,5.326,0.418,4.987,0.251,4.598C0.083,4.209,0,3.796,0,3.358
		c0-0.438,0.083-0.851,0.251-1.24C0.418,1.729,0.647,1.39,0.936,1.101c0.29-0.289,0.629-0.517,1.019-0.684
		c0.39-0.167,0.804-0.25,1.242-0.25s0.853,0.083,1.242,0.25c0.39,0.167,0.729,0.396,1.019,0.684C5.747,1.39,5.975,1.729,6.143,2.118
		C6.31,2.507,6.394,2.92,6.394,3.358z M6.211,3.358c0-0.413-0.079-0.802-0.238-1.167C5.815,1.826,5.599,1.507,5.325,1.233
		S4.731,0.744,4.366,0.586C4,0.428,3.611,0.349,3.197,0.349S2.393,0.428,2.027,0.586C1.662,0.744,1.342,0.96,1.068,1.233
		S0.578,1.826,0.42,2.191S0.183,2.945,0.183,3.358c0,0.414,0.079,0.802,0.237,1.167s0.375,0.684,0.648,0.957s0.594,0.49,0.959,0.648
		c0.366,0.158,0.755,0.236,1.169,0.236S4,6.289,4.366,6.131c0.365-0.158,0.685-0.375,0.959-0.648s0.49-0.592,0.648-0.957
		C6.132,4.16,6.211,3.771,6.211,3.358z"/>
</g>
<g>
	<path fill="#E53045" d="M4.228,3.298c0,0.149-0.029,0.291-0.086,0.424C4.084,3.855,4.006,3.972,3.908,4.07
		C3.809,4.169,3.692,4.247,3.559,4.304C3.426,4.361,3.284,4.39,3.134,4.39S2.842,4.361,2.709,4.304
		C2.576,4.247,2.46,4.169,2.361,4.07S2.184,3.855,2.126,3.723C2.069,3.589,2.041,3.448,2.041,3.298c0-0.15,0.029-0.291,0.086-0.424
		s0.135-0.249,0.234-0.348C2.46,2.427,2.576,2.35,2.709,2.292c0.133-0.057,0.275-0.085,0.425-0.085s0.292,0.028,0.425,0.085
		c0.133,0.058,0.25,0.135,0.349,0.234c0.099,0.099,0.177,0.215,0.234,0.348C4.199,3.007,4.228,3.148,4.228,3.298z M4.166,3.298
		c0-0.142-0.027-0.274-0.082-0.399S3.956,2.665,3.862,2.571S3.659,2.404,3.534,2.35c-0.125-0.054-0.258-0.082-0.4-0.082
		s-0.275,0.027-0.4,0.082C2.609,2.404,2.5,2.478,2.406,2.571S2.238,2.774,2.184,2.899S2.103,3.157,2.103,3.298
		S2.13,3.573,2.184,3.697c0.054,0.125,0.128,0.234,0.222,0.327C2.5,4.118,2.609,4.192,2.734,4.246
		c0.125,0.055,0.258,0.081,0.4,0.081s0.275-0.026,0.4-0.081c0.125-0.054,0.234-0.128,0.328-0.222
		C3.956,3.932,4.03,3.822,4.084,3.697C4.138,3.573,4.166,3.44,4.166,3.298z"/>
</g>
</svg>
