<?xml version="1.0" encoding="utf-8"?>
<!-- Generator: Adobe Illustrator 14.0.0, SVG Export Plug-In . SVG Version: 6.00 Build 43363)  -->
<!DOCTYPE svg PUBLIC "-//W3C//DTD SVG 1.1//EN" "http://www.w3.org/Graphics/SVG/1.1/DTD/svg11.dtd">
<svg version="1.1" id="Livello_1" xmlns="http://www.w3.org/2000/svg" xmlns:xlink="http://www.w3.org/1999/xlink" x="0px" y="0px"
	 width="8.206px" height="8.178px" viewBox="0 0 8.206 8.178" enable-background="new 0 0 8.206 8.178" xml:space="preserve">
<g>
	<path fill="#F49B00" d="M0.01,4.028c0-1.115,0.393-2.066,1.179-2.852s1.737-1.179,2.853-1.179c1.115,0,2.066,0.393,2.853,1.179
		s1.18,1.737,1.18,2.852s-0.394,2.066-1.18,2.853S5.158,8.06,4.042,8.06c-1.116,0-2.067-0.393-2.853-1.179S0.01,5.144,0.01,4.028z
		 M1.291,2.023c-0.444,0.611-0.666,1.28-0.666,2.005c0,0.625,0.165,1.209,0.494,1.754l0.07-0.151
		c0.101-0.249,0.255-0.49,0.464-0.726C1.888,4.644,2.167,4.421,2.49,4.24c0.303-0.168,0.598-0.282,0.887-0.343
		c0.061-0.006,0.238-0.013,0.534-0.02c0-0.182-0.118-0.427-0.353-0.736C3.438,2.987,3.301,2.844,3.15,2.713
		C2.999,2.582,2.823,2.459,2.621,2.345C2.359,2.198,2.122,2.105,1.91,2.068C1.699,2.031,1.492,2.016,1.291,2.023z M1.32,6.064
		c0.679,0.914,1.586,1.37,2.722,1.37c0.235,0,0.47-0.023,0.706-0.07C4.029,6.727,3.689,5.89,3.73,4.854
		c0.006-0.16,0.057-0.406,0.151-0.735c-0.181,0-0.35,0.017-0.504,0.05C2.759,4.291,2.241,4.606,1.825,5.117
		C1.509,5.493,1.341,5.81,1.32,6.064z M5.211,0.823C4.835,0.689,4.445,0.622,4.042,0.622c-1.028,0-1.882,0.379-2.561,1.139
		c0.363,0,0.712,0.084,1.048,0.252c0.336,0.168,0.628,0.366,0.877,0.595C3.609,2.802,3.8,3.047,3.982,3.343
		c0.074,0.121,0.124,0.242,0.151,0.363c0.021,0.087,0.03,0.134,0.03,0.141C4.217,3.82,4.375,3.679,4.637,3.424
		C4.704,3.363,4.815,3.206,4.97,2.95c0.094-0.155,0.191-0.43,0.292-0.827c0.047-0.195,0.06-0.437,0.04-0.726
		C5.289,1.176,5.258,0.985,5.211,0.823z M5.091,7.274c0.625-0.195,1.147-0.543,1.568-1.043c0.42-0.501,0.673-1.08,0.76-1.739
		C7.285,4.587,7.056,4.677,6.734,4.765c-0.431,0.121-0.86,0.145-1.291,0.07C5.121,4.781,4.778,4.66,4.415,4.472
		C4.402,4.458,4.346,4.415,4.249,4.341C4.151,4.267,4.103,4.233,4.103,4.24c-0.027,0.02-0.057,0.101-0.09,0.241
		C3.972,4.649,3.952,4.808,3.952,4.956c0,0.208,0.04,0.494,0.121,0.856C4.2,6.431,4.54,6.918,5.091,7.274z M7.44,4.169l0.01-0.141
		c0.02-0.665-0.154-1.283-0.524-1.854C6.563,1.63,6.084,1.22,5.494,0.944l0.051,0.323c0.02,0.127,0.03,0.252,0.03,0.373
		c0,0.222-0.047,0.491-0.141,0.807C5.326,2.809,5.185,3.115,5.01,3.363c-0.134,0.195-0.336,0.4-0.604,0.615L4.284,4.069
		C4.452,4.203,4.61,4.308,4.758,4.382C5,4.503,5.333,4.579,5.756,4.613C6.058,4.634,6.381,4.6,6.723,4.513
		C7.067,4.425,7.305,4.311,7.44,4.169z"/>
</g>
</svg>
