<?xml version="1.0" encoding="utf-8"?>
<!-- Generator: Adobe Illustrator 14.0.0, SVG Export Plug-In . SVG Version: 6.00 Build 43363)  -->
<!DOCTYPE svg PUBLIC "-//W3C//DTD SVG 1.1//EN" "http://www.w3.org/Graphics/SVG/1.1/DTD/svg11.dtd">
<svg version="1.1" id="Livello_1" xmlns="http://www.w3.org/2000/svg" xmlns:xlink="http://www.w3.org/1999/xlink" x="0px" y="0px"
	 width="31.559px" height="12.816px" viewBox="0 0 31.559 12.816" enable-background="new 0 0 31.559 12.816" xml:space="preserve">
<g>
	<path fill="#EA661F" d="M10.771,3.328l1.872,2.469l-1.524,1.171L9.227,4.502c-1.069,0.996-1.876,2.13-2.421,3.404l2.996,0.928
		L9.228,10.67L6.231,9.725c-0.106,0.565-0.16,0.945-0.16,1.137v1.955H0v-1.939h4.101C4.304,7.834,5.532,5.26,7.786,3.156
		S12.709,0,15.795,0c3.033,0,5.663,1.024,7.891,3.072c2.227,2.048,3.479,4.564,3.756,7.549c0.011,0.053,0.021,0.139,0.032,0.256
		h4.085v1.939h-6.071v-1.955c0-0.246-0.048-0.625-0.144-1.137l-2.965,0.945l-0.584-1.866l2.984-0.917
		c-0.576-1.342-1.36-2.47-2.352-3.385l-1.939,2.467l-1.524-1.171l1.878-2.416c-1.292-0.78-2.66-1.24-4.103-1.379v3.076h-1.922V2.002
		C13.357,2.141,12.008,2.583,10.771,3.328z"/>
</g>
</svg>
