<?xml version="1.0" encoding="UTF-8" standalone="no"?>
<!-- Generator: Adobe Illustrator 14.0.0, SVG Export Plug-In . SVG Version: 6.00 Build 43363)  -->

<svg
   xmlns:dc="http://purl.org/dc/elements/1.1/"
   xmlns:cc="http://creativecommons.org/ns#"
   xmlns:rdf="http://www.w3.org/1999/02/22-rdf-syntax-ns#"
   xmlns:svg="http://www.w3.org/2000/svg"
   xmlns="http://www.w3.org/2000/svg"
   xmlns:sodipodi="http://sodipodi.sourceforge.net/DTD/sodipodi-0.dtd"
   xmlns:inkscape="http://www.inkscape.org/namespaces/inkscape"
   version="1.1"
   id="Livello_1"
   x="0px"
   y="0px"
   width="8.842px"
   height="8.831px"
   viewBox="0 0 8.842 8.831"
   enable-background="new 0 0 8.842 8.831"
   xml:space="preserve"
   inkscape:version="0.48.4 r9939"
   sodipodi:docname="cgt_2420-Emanazione-gassosa-alta-temperatura.svg"><metadata
   id="metadata3877"><rdf:RDF><cc:Work
       rdf:about=""><dc:format>image/svg+xml</dc:format><dc:type
         rdf:resource="http://purl.org/dc/dcmitype/StillImage" /></cc:Work></rdf:RDF></metadata><defs
   id="defs3875" /><sodipodi:namedview
   pagecolor="#ffffff"
   bordercolor="#666666"
   borderopacity="1"
   objecttolerance="10"
   gridtolerance="10"
   guidetolerance="10"
   inkscape:pageopacity="0"
   inkscape:pageshadow="2"
   inkscape:window-width="849"
   inkscape:window-height="849"
   id="namedview3873"
   showgrid="false"
   inkscape:zoom="26.724039"
   inkscape:cx="0.17167733"
   inkscape:cy="4.4155002"
   inkscape:window-x="71"
   inkscape:window-y="40"
   inkscape:window-maximized="0"
   inkscape:current-layer="Livello_1" />
<g
   enable-background="new    "
   id="g3869">
	<path
   fill="#058AC7"
   d="M0.011,4.415c0-1.222,0.43-2.263,1.292-3.125c0.861-0.861,1.902-1.292,3.124-1.292   c1.221,0,2.263,0.431,3.125,1.292c0.859,0.861,1.291,1.903,1.291,3.125c0,1.223-0.432,2.264-1.291,3.125   C6.689,8.399,5.647,8.831,4.427,8.831c-1.222,0-2.263-0.432-3.124-1.292C0.441,6.679,0.011,5.638,0.011,4.415z M1.413,2.217   C0.927,2.887,0.685,3.62,0.685,4.415c0,0.686,0.18,1.326,0.541,1.921L1.303,6.17c0.11-0.271,0.279-0.537,0.508-0.795   c0.257-0.287,0.563-0.53,0.916-0.729c0.331-0.184,0.655-0.309,0.972-0.375C3.765,4.264,3.96,4.256,4.284,4.249   c0-0.199-0.129-0.467-0.386-0.806C3.764,3.274,3.615,3.117,3.45,2.974S3.091,2.696,2.87,2.571C2.583,2.409,2.324,2.308,2.092,2.267   C1.86,2.226,1.634,2.21,1.413,2.217z M1.446,6.646c0.743,1.002,1.736,1.502,2.98,1.502c0.257,0,0.515-0.025,0.772-0.078   C4.412,7.37,4.04,6.454,4.084,5.319C4.092,5.144,4.147,4.875,4.25,4.514c-0.199,0-0.383,0.018-0.552,0.055   c-0.677,0.132-1.244,0.479-1.7,1.038C1.652,6.021,1.468,6.365,1.446,6.646z M5.708,0.903C5.295,0.756,4.868,0.682,4.427,0.682   c-1.126,0-2.061,0.416-2.804,1.248c0.397,0,0.78,0.092,1.148,0.276s0.688,0.401,0.96,0.651C3.952,3.071,4.162,3.34,4.36,3.664   c0.081,0.133,0.136,0.265,0.166,0.398c0.022,0.096,0.033,0.147,0.033,0.154c0.059-0.029,0.232-0.184,0.52-0.464   c0.072-0.066,0.193-0.239,0.363-0.519c0.104-0.169,0.209-0.471,0.32-0.906C5.813,2.114,5.829,1.85,5.807,1.533   C5.792,1.29,5.758,1.08,5.708,0.903z M5.575,7.97c0.684-0.213,1.256-0.594,1.717-1.143C7.75,6.278,8.028,5.644,8.124,4.922   C7.978,5.026,7.728,5.125,7.374,5.22C6.903,5.354,6.432,5.379,5.961,5.298C5.608,5.239,5.232,5.106,4.835,4.9   C4.82,4.886,4.759,4.838,4.653,4.757c-0.107-0.081-0.16-0.118-0.16-0.11c-0.03,0.021-0.063,0.11-0.099,0.265   C4.349,5.097,4.327,5.269,4.327,5.431c0,0.229,0.044,0.541,0.132,0.938C4.6,7.047,4.971,7.58,5.575,7.97z M8.146,4.569l0.011-0.155   C8.18,3.686,7.988,3.009,7.583,2.383c-0.396-0.596-0.92-1.045-1.565-1.347l0.055,0.353c0.021,0.14,0.033,0.276,0.033,0.409   c0,0.243-0.052,0.538-0.153,0.883C5.833,3.079,5.678,3.414,5.486,3.686C5.338,3.899,5.118,4.124,4.824,4.359l-0.133,0.1   C4.875,4.606,5.047,4.72,5.209,4.801c0.267,0.132,0.629,0.217,1.095,0.255C6.633,5.076,6.988,5.04,7.363,4.944   C7.738,4.849,7.999,4.724,8.146,4.569z"
   id="path3871" />
</g>
<path
   style="fill:#c20032;fill-opacity:1;stroke:#c20032;stroke-width:0.03741949000000000;stroke-opacity:1"
   d="M 3.6755323,8.7502128 C 2.5549955,8.5618453 1.5697109,7.9389791 0.84399126,6.9602012 0.12907211,5.9959899 -0.13254271,4.6863189 0.13901593,3.4310217 0.47221599,1.890783 1.7631352,0.5494465 3.2807392,0.16659737 4.8680546,-0.23383796 6.3942801,0.17726522 7.5275234,1.3105086 8.3605098,2.1434952 8.7590899,3.055424 8.8093996,4.2433705 8.8730322,5.7459158 8.2365719,7.0584318 6.999577,7.9756076 6.0736912,8.6621101 4.8490563,8.947488 3.6755323,8.7502128 z M 4.8566891,8.1327698 C 5.0305955,8.110964 5.1795453,8.0864598 5.1876885,8.0783166 5.1958321,8.0701734 5.0936002,7.9441976 4.9605069,7.7983709 4.1885708,6.9525814 3.9323199,5.8140189 4.2412029,4.6023922 l 0.027717,-0.108722 -0.2768084,0.022489 C 3.2050766,4.5801014 2.4846173,4.9713929 1.9746778,5.6118556 1.6801783,5.9817346 1.5770066,6.1519929 1.4889206,6.4134721 L 1.4114379,6.6434762 1.5619026,6.8231897 C 1.7801642,7.0838793 2.150066,7.4211656 2.3986449,7.5861541 3.0803797,8.0386392 3.9915078,8.2412545 4.8566891,8.1327698 l 0,0 z M 5.8573713,7.8794559 C 6.4771923,7.6272179 6.9530579,7.274968 7.3475297,6.7763955 7.6005539,6.4565988 7.8729046,5.9667402 7.9756705,5.6466015 8.040575,5.4444105 8.1506347,4.9429893 8.1338049,4.9261595 8.1281317,4.9204859 8.0325223,4.9574759 7.9213396,5.0083589 7.8101566,5.0592415 7.5508013,5.1468125 7.3449941,5.2029612 7.0311007,5.2885976 6.8954225,5.3050966 6.5030555,5.3053447 5.8145687,5.3057788 5.2390445,5.1360802 4.7170853,4.7787331 L 4.4792717,4.6159197 4.4264121,4.7424309 c -0.079979,0.1914172 -0.1230656,0.6458492 -0.09105,0.9602998 0.1039738,1.0211963 0.3991699,1.6432565 1.0057915,2.1194839 0.1142372,0.089682 0.2185886,0.1630689 0.2318919,0.1630816 0.013303,1.31e-5 0.1412493,-0.047615 0.2843253,-0.1058403 l 0,0 z M 1.3885852,6.048861 C 1.6686043,5.473622 2.1921867,4.9570687 2.8330059,4.6238313 3.3133681,4.3740341 3.6305469,4.28079 3.9998913,4.28079 c 0.2625284,0 0.2954142,-0.00771 0.2954142,-0.069255 0,-0.1248389 -0.083673,-0.3195665 -0.243583,-0.5668761 C 3.7258766,3.1407194 3.3522704,2.810715 2.7630864,2.5064134 2.3936526,2.3156083 2.130026,2.2399325 1.7104233,2.2042389 L 1.4268399,2.1801159 1.3217058,2.3179538 C 1.1395233,2.5568075 0.89123281,3.1001219 0.78962759,3.4822588 0.70843975,3.7876059 0.69115939,3.9367069 0.6884067,4.355629 0.68471564,4.9173393 0.73442149,5.2372464 0.89257247,5.6696444 0.99501776,5.9497387 1.1892994,6.3372643 1.2278068,6.3383229 1.238592,6.3386222 1.3109423,6.2083616 1.3885852,6.048861 z M 7.1400225,5.0080857 C 7.7503258,4.8923132 8.1312098,4.6970534 8.1721206,4.4789816 8.2439432,4.0961341 8.0256637,3.1371586 7.7537755,2.6410521 7.5113754,2.198751 7.0263417,1.6512201 6.6281844,1.3704273 6.4412123,1.2385688 6.0451779,1.0216646 6.026146,1.0406967 c -0.00952,0.00952 0.00212,0.1909669 0.025867,0.4032135 0.1156442,1.0335801 -0.3461134,2.160631 -1.1546166,2.81817 L 4.6673431,4.4491777 4.7900349,4.5537401 c 0.507784,0.432752 1.476501,0.6200433 2.3499876,0.4543456 l 0,0 z M 5.0649645,3.7871969 C 5.3236855,3.5036754 5.5219666,3.1539667 5.6656724,2.727728 5.8007912,2.3269582 5.8044336,2.3016818 5.8058473,1.7549742 5.8067192,1.4179982 5.7889891,1.131095 5.7614835,1.0370748 5.7187744,0.89108569 5.7024022,0.87677329 5.5200047,0.82597581 5.0157665,0.68554592 4.5480636,0.64323068 4.0362058,0.69172952 3.3864619,0.75329312 2.9091128,0.91503304 2.404126,1.2447261 2.0835983,1.4539906 1.601102,1.8603356 1.601102,1.9210108 c 0,0.015834 0.1220811,0.039566 0.2712913,0.052737 0.1492102,0.013171 0.3470658,0.047449 0.439679,0.076173 0.4947808,0.1534551 1.0999322,0.5241165 1.4650072,0.8973318 0.2934721,0.3000157 0.640426,0.8195083 0.703909,1.0539593 0.027705,0.1023162 0.057489,0.1991436 0.066187,0.2151719 0.019666,0.036237 0.3210003,-0.2135338 0.517789,-0.4291869 l 0,0 z"
   id="path4387"
   inkscape:connector-curvature="0" /></svg>