<?xml version="1.0" encoding="utf-8"?>
<!-- Generator: Adobe Illustrator 14.0.0, SVG Export Plug-In . SVG Version: 6.00 Build 43363)  -->
<!DOCTYPE svg PUBLIC "-//W3C//DTD SVG 1.1//EN" "http://www.w3.org/Graphics/SVG/1.1/DTD/svg11.dtd">
<svg version="1.1"
	 id="Livello_1" sodipodi:docname="3330,9.svg" inkscape:version="0.48.0 r9654" xmlns:dc="http://purl.org/dc/elements/1.1/" xmlns:cc="http://creativecommons.org/ns#" xmlns:rdf="http://www.w3.org/1999/02/22-rdf-syntax-ns#" xmlns:svg="http://www.w3.org/2000/svg" xmlns:sodipodi="http://sodipodi.sourceforge.net/DTD/sodipodi-0.dtd" xmlns:inkscape="http://www.inkscape.org/namespaces/inkscape"
	 xmlns="http://www.w3.org/2000/svg" xmlns:xlink="http://www.w3.org/1999/xlink" x="0px" y="0px" width="19.01px" height="6.23px"
	 viewBox="0 0.306 19.01 6.23" enable-background="new 0 0.306 19.01 6.23" xml:space="preserve">
<sodipodi:namedview  id="namedview9530" inkscape:window-maximized="1" bordercolor="#666666" inkscape:cy="2.9268897" pagecolor="#ffffff" inkscape:cx="8.1500848" inkscape:zoom="39.396621" guidetolerance="10" gridtolerance="10" objecttolerance="10" showgrid="true" borderopacity="1" inkscape:current-layer="Livello_1" inkscape:window-y="-9" inkscape:window-x="-9" inkscape:window-height="1019" inkscape:window-width="1920" inkscape:pageshadow="2" inkscape:pageopacity="0">
	<inkscape:grid  type="xygrid" id="grid9536"></inkscape:grid>
</sodipodi:namedview>
<g id="g9522">
	<path id="path9524" inkscape:connector-curvature="0" sodipodi:nodetypes="cccccccccccccccc" fill="#004B95" d="M18.578,5.638
		L19,5.639v0.096v0.148v0.199v0.08v0.095v0.157v0.188L0,6.586V6.382V6.094V5.807V5.625l18.128,0.016L18.578,5.638z"/>
</g>
<g id="g9526">
	<path id="path9528" inkscape:connector-curvature="0" fill="#004B95" d="M6.877,5.809l2.799-5.503l2.701,5.503H6.877z"/>
</g>
<path id="path9538" inkscape:connector-curvature="0" fill="#0038F0" d="M9.339,6.583L0.018,6.577v-0.47v-0.47h3.483l3.483-0.001
	l1.346-2.65l1.346-2.651L9.772,0.53c0.054,0.108,0.637,1.298,1.298,2.645l1.2,2.45l1.355,0.015c0.745,0.009,2.255,0.017,3.354,0.019
	l1.999,0.004v0.47v0.47L18.82,6.596C18.733,6.592,14.466,6.586,9.339,6.583z"/>
</svg>
