<?xml version="1.0" encoding="utf-8"?>
<!-- Generator: Adobe Illustrator 14.0.0, SVG Export Plug-In . SVG Version: 6.00 Build 43363)  -->
<!DOCTYPE svg PUBLIC "-//W3C//DTD SVG 1.1//EN" "http://www.w3.org/Graphics/SVG/1.1/DTD/svg11.dtd">
<svg version="1.1"
	 id="Livello_1" inkscape:version="0.48.0 r9654" sodipodi:docname="3100,9.svg" xmlns:dc="http://purl.org/dc/elements/1.1/" xmlns:cc="http://creativecommons.org/ns#" xmlns:rdf="http://www.w3.org/1999/02/22-rdf-syntax-ns#" xmlns:svg="http://www.w3.org/2000/svg" xmlns:sodipodi="http://sodipodi.sourceforge.net/DTD/sodipodi-0.dtd" xmlns:inkscape="http://www.inkscape.org/namespaces/inkscape"
	 xmlns="http://www.w3.org/2000/svg" xmlns:xlink="http://www.w3.org/1999/xlink" x="0px" y="0px" width="12.811px"
	 height="4.554px" viewBox="2.427 2.403 12.811 4.554" enable-background="new 2.427 2.403 12.811 4.554" xml:space="preserve">
<sodipodi:namedview  id="namedview3067" inkscape:window-maximized="1" objecttolerance="10" gridtolerance="10" inkscape:zoom="78.190123" guidetolerance="10" inkscape:cx="7.6810002" pagecolor="#ffffff" showgrid="false" inkscape:cy="4.9499998" borderopacity="1" bordercolor="#666666" showguides="true" inkscape:pageopacity="0" inkscape:pageshadow="2" inkscape:window-width="1920" inkscape:window-height="1019" inkscape:guide-bbox="true" inkscape:window-x="0" inkscape:window-y="0" inkscape:current-layer="Livello_1">
	</sodipodi:namedview>
<g>
	<path fill="#004B94" d="M7.633,30.302h-0.65"/>
</g>
<path fill="#1A171B" d="M6.987,6.957L2.656,4.819C2.557,4.793,2.508,4.741,2.508,4.66c0-0.083,0.049-0.138,0.148-0.165l4.332-2.092
	l0.126,0.274L2.991,4.662l4.122,2.027L6.987,6.957z M11.865,5.548H5.782V5.252h6.083V5.548z M11.865,4.069H5.782V3.773h6.083V4.069z
	"/>
<path fill="#1A171B" d="M10.758,2.403l4.332,2.138c0.1,0.026,0.147,0.078,0.147,0.159c0,0.083-0.049,0.138-0.147,0.165l-4.332,2.092
	l-0.125-0.273l4.123-1.984l-4.123-2.027L10.758,2.403z"/>
</svg>
