<?xml version="1.0" encoding="UTF-8" standalone="no"?>
<!-- Generator: Adobe Illustrator 14.0.0, SVG Export Plug-In . SVG Version: 6.00 Build 43363)  -->

<svg
   xmlns:dc="http://purl.org/dc/elements/1.1/"
   xmlns:cc="http://creativecommons.org/ns#"
   xmlns:rdf="http://www.w3.org/1999/02/22-rdf-syntax-ns#"
   xmlns:svg="http://www.w3.org/2000/svg"
   xmlns="http://www.w3.org/2000/svg"
   xmlns:sodipodi="http://sodipodi.sourceforge.net/DTD/sodipodi-0.dtd"
   xmlns:inkscape="http://www.inkscape.org/namespaces/inkscape"
   version="1.1"
   id="Livello_1"
   sodipodi:docname="cgt_3450-3.svg"
   inkscape:version="0.48.5 r10040"
   x="0px"
   y="0px"
   width="3.1875"
   height="9.90625"
   viewBox="0.496 0 3.1875001 9.9062499"
   enable-background="new 0.496 0 4.673 15.743"
   xml:space="preserve"><metadata
   id="metadata11"><rdf:RDF><cc:Work
       rdf:about=""><dc:format>image/svg+xml</dc:format><dc:type
         rdf:resource="http://purl.org/dc/dcmitype/StillImage" /></cc:Work></rdf:RDF></metadata><defs
   id="defs9"><marker
   inkscape:stockid="Arrow2Lend"
   orient="auto"
   refY="0"
   refX="0"
   id="Arrow2Lend"
   style="overflow:visible"><path
     id="path3785"
     style="fill-rule:evenodd;stroke-width:0.625;stroke-linejoin:round"
     d="M 8.7185878,4.0337352 -2.2072895,0.01601326 8.7185884,-4.0017078 c -1.7454984,2.3720609 -1.7354408,5.6174519 -6e-7,8.035443 z"
     transform="matrix(-1.1,0,0,-1.1,-1.1,0)"
     inkscape:connector-curvature="0" /></marker><marker
   inkscape:stockid="Arrow2Mend"
   orient="auto"
   refY="0"
   refX="0"
   id="Arrow2Mend"
   style="overflow:visible"><path
     id="path3791"
     style="fill-rule:evenodd;stroke-width:0.625;stroke-linejoin:round"
     d="M 8.7185878,4.0337352 -2.2072895,0.01601326 8.7185884,-4.0017078 c -1.7454984,2.3720609 -1.7354408,5.6174519 -6e-7,8.035443 z"
     transform="scale(-0.6,-0.6)"
     inkscape:connector-curvature="0" /></marker><marker
   inkscape:stockid="Arrow1Lend"
   orient="auto"
   refY="0"
   refX="0"
   id="Arrow1Lend"
   style="overflow:visible"><path
     id="path3767"
     d="M 0,0 5,-5 -12.5,0 5,5 0,0 z"
     style="fill-rule:evenodd;stroke:#000000;stroke-width:1pt"
     transform="matrix(-0.8,0,0,-0.8,-10,0)"
     inkscape:connector-curvature="0" /></marker><marker
   inkscape:stockid="Arrow1Lstart"
   orient="auto"
   refY="0"
   refX="0"
   id="Arrow1Lstart"
   style="overflow:visible"><path
     id="path3764"
     d="M 0,0 5,-5 -12.5,0 5,5 0,0 z"
     style="fill-rule:evenodd;stroke:#000000;stroke-width:1pt"
     transform="matrix(0.8,0,0,0.8,10,0)"
     inkscape:connector-curvature="0" /></marker><marker
   inkscape:stockid="DotL"
   orient="auto"
   refY="0"
   refX="0"
   id="DotL"
   style="overflow:visible"><path
     id="path3825"
     d="m -2.5,-1 c 0,2.76 -2.24,5 -5,5 -2.76,0 -5,-2.24 -5,-5 0,-2.76 2.24,-5 5,-5 2.76,0 5,2.24 5,5 z"
     style="fill-rule:evenodd;stroke:#000000;stroke-width:1pt"
     transform="matrix(0.8,0,0,0.8,5.92,0.8)"
     inkscape:connector-curvature="0" /></marker>
	

	
</defs>
<sodipodi:namedview
   id="namedview4814"
   inkscape:window-maximized="1"
   bordercolor="#666666"
   inkscape:cy="5.9593142"
   pagecolor="#ffffff"
   inkscape:cx="-5.9370655"
   inkscape:zoom="36.058306"
   guidetolerance="10"
   gridtolerance="10"
   objecttolerance="10"
   showgrid="true"
   borderopacity="1"
   inkscape:current-layer="Livello_1"
   inkscape:window-y="-4"
   inkscape:window-x="-4"
   inkscape:window-height="824"
   inkscape:window-width="1600"
   inkscape:pageshadow="2"
   inkscape:pageopacity="0"
   fit-margin-top="0"
   fit-margin-left="0"
   fit-margin-right="0"
   fit-margin-bottom="0">
	<inkscape:grid
   type="xygrid"
   id="grid2988"
   empspacing="1"
   visible="true"
   enabled="true"
   snapvisiblegridlinesonly="true"
   originx="-0.81504423px"
   originy="-2.8262061px" /></sodipodi:namedview>



<g
   id="g3024"
   transform="translate(-0.004,0)"><path
     inkscape:connector-curvature="0"
     id="path2990"
     d="m 2.084956,9.9101909 0,-9.15525858"
     style="fill:#004494;fill-opacity:1;stroke:#004494;stroke-width:0.5;stroke-linecap:butt;stroke-linejoin:miter;stroke-miterlimit:4;stroke-opacity:1;stroke-dasharray:none;marker-start:none;marker-mid:none;marker-end:url(#Arrow2Mend)" /><path
     inkscape:connector-curvature="0"
     id="path7052"
     d="M 1.0086784,3.0539857 C 1.3415862,2.1386587 2.050674,0.21958356 2.0671007,0.18947201 2.0781348,0.16924547 2.341695,0.84616567 2.6657771,1.7270948 2.9842075,2.5926611 3.2417772,3.3049421 3.2381542,3.3099417 3.2345312,3.3149411 3.1827576,3.2888066 3.1231017,3.251865 2.5303573,2.8848108 1.6385425,2.8839358 1.047322,3.2498283 c -0.057882,0.035821 -0.1116114,0.06513 -0.1193997,0.06513 -0.00779,0 0.028552,-0.1174377 0.080756,-0.2609726 l 0,0 z"
     style="fill:#004494;fill-opacity:1;stroke:#004494;stroke-width:0.1;stroke-linecap:butt;stroke-linejoin:round;stroke-miterlimit:4;stroke-opacity:1;stroke-dasharray:none" /><path
     inkscape:connector-curvature="0"
     id="path2999"
     d="m 0.48495576,5.9324558 3.20000004,0"
     style="fill:none;stroke:#004494;stroke-width:0.5;stroke-linecap:butt;stroke-linejoin:miter;stroke-miterlimit:4;stroke-opacity:1;stroke-dasharray:none" /><path
     inkscape:connector-curvature="0"
     id="path2999-1"
     d="m 0.48495577,4.3324559 3.20000013,0"
     style="fill:none;stroke:#004494;stroke-width:0.5;stroke-linecap:butt;stroke-linejoin:miter;stroke-miterlimit:4;stroke-opacity:1;stroke-dasharray:none" /><path
     inkscape:connector-curvature="0"
     id="path2999-7"
     d="m 0.48495577,7.532456 3.20000013,0"
     style="fill:none;stroke:#004494;stroke-width:0.5;stroke-linecap:butt;stroke-linejoin:miter;stroke-miterlimit:4;stroke-opacity:1;stroke-dasharray:none" /></g></svg>