<?xml version="1.0" encoding="utf-8"?>
<!-- Generator: Adobe Illustrator 14.0.0, SVG Export Plug-In . SVG Version: 6.00 Build 43363)  -->
<!DOCTYPE svg PUBLIC "-//W3C//DTD SVG 1.1//EN" "http://www.w3.org/Graphics/SVG/1.1/DTD/svg11.dtd">
<svg version="1.1"
	 id="Livello_1" sodipodi:docname="3323,9.svg" inkscape:version="0.48.0 r9654" xmlns:dc="http://purl.org/dc/elements/1.1/" xmlns:cc="http://creativecommons.org/ns#" xmlns:rdf="http://www.w3.org/1999/02/22-rdf-syntax-ns#" xmlns:svg="http://www.w3.org/2000/svg" xmlns:sodipodi="http://sodipodi.sourceforge.net/DTD/sodipodi-0.dtd" xmlns:inkscape="http://www.inkscape.org/namespaces/inkscape"
	 xmlns="http://www.w3.org/2000/svg" xmlns:xlink="http://www.w3.org/1999/xlink" x="0px" y="0px" width="4.672px"
	 height="15.743px" viewBox="0.496 0 4.672 15.743" enable-background="new 0.496 0 4.672 15.743" xml:space="preserve">
<sodipodi:namedview  id="namedview4814" inkscape:window-maximized="1" bordercolor="#666666" inkscape:cy="7.8136213" pagecolor="#ffffff" inkscape:cx="-0.43976375" inkscape:zoom="42.460815" guidetolerance="10" gridtolerance="10" objecttolerance="10" showgrid="false" borderopacity="1" inkscape:current-layer="Livello_1" inkscape:window-y="-9" inkscape:window-x="-9" inkscape:window-height="1019" inkscape:window-width="1920" inkscape:pageshadow="2" inkscape:pageopacity="0">
	</sodipodi:namedview>
<g id="g4806">
	<path id="path4808" inkscape:connector-curvature="0" fill="#004B95" d="M2.836,4.001C2.244,4.415,1.638,4.67,1.019,4.768
		C1.372,4.156,1.976,2.567,2.833,0c0.576,1.724,1.05,3.034,1.423,3.931c0.155,0.373,0.286,0.65,0.392,0.832
		c-0.416-0.064-0.844-0.21-1.281-0.438C3.183,4.23,3.006,4.123,2.836,4.001l0.338,0.217v11.525H2.499V4.208L2.836,4.001z"/>
</g>
<g id="g4810" transform="matrix(0.9,0,0,0.9,0.49626126,0.99)">
	<path id="path4812" inkscape:connector-curvature="0" fill="#004B95" d="M5.216,9.9c0,0.356-0.069,0.693-0.204,1.012
		c-0.138,0.317-0.323,0.594-0.56,0.829C4.215,11.978,3.94,12.162,3.621,12.3c-0.318,0.136-0.655,0.204-1.013,0.204
		c-0.358,0-0.695-0.068-1.013-0.204C1.277,12.162,1,11.978,0.764,11.741c-0.236-0.235-0.422-0.512-0.559-0.829
		C0.068,10.595,0,10.257,0,9.9s0.068-0.693,0.205-1.012C0.341,8.571,0.528,8.294,0.764,8.06C1,7.823,1.277,7.638,1.595,7.501
		C1.913,7.364,2.25,7.296,2.608,7.296c0.358,0,0.695,0.068,1.013,0.205C3.94,7.638,4.215,7.823,4.452,8.06
		c0.237,0.234,0.422,0.512,0.56,0.827C5.146,9.207,5.216,9.543,5.216,9.9z M5.067,9.9c0-0.337-0.064-0.654-0.193-0.952
		C4.744,8.65,4.568,8.391,4.343,8.167C4.12,7.944,3.859,7.768,3.562,7.639S2.946,7.445,2.608,7.445S1.952,7.51,1.654,7.639
		S1.095,7.944,0.872,8.167c-0.223,0.224-0.4,0.483-0.529,0.781C0.213,9.246,0.149,9.562,0.149,9.9s0.064,0.654,0.193,0.952
		c0.129,0.297,0.306,0.558,0.529,0.781c0.224,0.224,0.484,0.398,0.783,0.527c0.298,0.129,0.616,0.193,0.954,0.193
		s0.657-0.064,0.954-0.193c0.297-0.129,0.559-0.305,0.781-0.527c0.225-0.224,0.4-0.484,0.53-0.781S5.067,10.237,5.067,9.9z"/>
</g>
<path id="path7803" inkscape:connector-curvature="0" fill="#0038F0" d="M2.504,13.969v-1.762l-0.182-0.041
	c-0.842-0.191-1.518-0.854-1.741-1.707c-0.05-0.193-0.06-0.281-0.06-0.559c0-0.398,0.062-0.674,0.227-1.012
	c0.292-0.596,0.789-1.016,1.454-1.226c0.104-0.033,0.213-0.059,0.245-0.059h0.058V5.909c0-0.933-0.003-1.696-0.007-1.696
	c-0.004,0-0.119,0.058-0.253,0.127C1.887,4.524,1.575,4.635,1.11,4.74C1.048,4.754,1.049,4.751,1.201,4.433
	c0.294-0.618,0.859-2.114,1.4-3.711c0.122-0.359,0.227-0.653,0.233-0.653s0.053,0.124,0.103,0.276
	C3.406,1.78,4.14,3.742,4.462,4.423c0.076,0.161,0.133,0.298,0.127,0.305C4.567,4.748,4.227,4.66,3.964,4.567
	C3.828,4.519,3.597,4.419,3.45,4.346C3.304,4.273,3.18,4.213,3.174,4.213c-0.005,0-0.01,0.763-0.01,1.696v1.696h0.064
	c0.102,0,0.447,0.114,0.65,0.215C4.597,8.174,5.101,8.907,5.16,9.682c0.077,0.998-0.411,1.861-1.307,2.312
	c-0.176,0.088-0.534,0.203-0.634,0.203H3.164v1.767v1.766h-0.33h-0.33V13.969z M3.552,12.003C4.536,11.67,5.181,10.65,5.048,9.63
	C4.95,8.877,4.494,8.243,3.812,7.91C3.604,7.81,3.501,7.774,3.229,7.712L3.164,7.698v2.199v2.199l0.124-0.022
	C3.354,12.061,3.475,12.03,3.552,12.003z M2.504,9.891V7.705L2.401,7.724c-0.495,0.093-1.027,0.429-1.33,0.841
	c-0.23,0.314-0.331,0.539-0.405,0.904c-0.161,0.787,0.125,1.604,0.743,2.123c0.293,0.246,0.783,0.477,1.03,0.484l0.064,0.002V9.891z
	"/>
</svg>
