<?xml version="1.0" encoding="UTF-8" standalone="no"?>
<!-- Generator: Adobe Illustrator 14.0.0, SVG Export Plug-In . SVG Version: 6.00 Build 43363)  -->

<svg
   xmlns:dc="http://purl.org/dc/elements/1.1/"
   xmlns:cc="http://creativecommons.org/ns#"
   xmlns:rdf="http://www.w3.org/1999/02/22-rdf-syntax-ns#"
   xmlns:svg="http://www.w3.org/2000/svg"
   xmlns="http://www.w3.org/2000/svg"
   xmlns:sodipodi="http://sodipodi.sourceforge.net/DTD/sodipodi-0.dtd"
   xmlns:inkscape="http://www.inkscape.org/namespaces/inkscape"
   version="1.1"
   id="Livello_1"
   x="0px"
   y="0px"
   width="9.7685518"
   height="9.9681587"
   viewBox="0 0 9.7685516 9.9681591"
   enable-background="new 0 0 21.69 11.105"
   xml:space="preserve"
   inkscape:version="0.48.5 r10040"
   sodipodi:docname="dbgr_rt_3040-3050-zona_cata-area-metamorfismo.svg"><metadata
   id="metadata55"><rdf:RDF><cc:Work
       rdf:about=""><dc:format>image/svg+xml</dc:format><dc:type
         rdf:resource="http://purl.org/dc/dcmitype/StillImage" /></cc:Work></rdf:RDF></metadata><defs
   id="defs53" /><sodipodi:namedview
   pagecolor="#ffffff"
   bordercolor="#666666"
   borderopacity="1"
   objecttolerance="10"
   gridtolerance="10"
   guidetolerance="10"
   inkscape:pageopacity="0"
   inkscape:pageshadow="2"
   inkscape:window-width="1600"
   inkscape:window-height="824"
   id="namedview51"
   showgrid="false"
   fit-margin-top="0"
   fit-margin-left="0"
   fit-margin-right="0"
   fit-margin-bottom="0"
   inkscape:zoom="47.124523"
   inkscape:cx="1.9659698"
   inkscape:cy="4.7439017"
   inkscape:window-x="-4"
   inkscape:window-y="-4"
   inkscape:window-maximized="1"
   inkscape:current-layer="Livello_1" />












<g
   id="g3762"><path
     d="m 0.06540118,4.2227577 c -0.083,-0.083 -0.087,-0.162 -0.012,-0.237 l 3.93300002,-3.932 c 0.074,-0.075 0.154,-0.072 0.237,0.012 0.083,0.083 0.087,0.162 0.012,0.237 l -3.93300002,3.933 c -0.075,0.074 -0.154,0.07 -0.237,-0.013 z"
     id="path13"
     inkscape:connector-curvature="0"
     style="fill:#767885" /><path
     d="m 9.7024012,9.9027577 c -0.084,0.083 -0.162,0.087 -0.238,0.012 l -3.932,-3.932 c -0.075,-0.075 -0.072,-0.155 0.012,-0.238 0.083,-0.083 0.162,-0.087 0.237,-0.012 l 3.933,3.931 c 0.076,0.077 0.072,0.155 -0.012,0.239 z"
     id="path37"
     inkscape:connector-curvature="0"
     style="fill:#767885" /><path
     inkscape:connector-curvature="0"
     id="path2984"
     d="M 4.272931,2.2606567 4.4081503,1.9631742 4.5704135,1.3141213 5.1653786,1.3411652 5.5439927,2.206569 4.678589,2.5851831 z"
     style="fill:#777985;stroke:#777985;stroke-width:0.20000000000000001;stroke-linecap:butt;stroke-linejoin:miter;stroke-miterlimit:4;stroke-opacity:1;stroke-dasharray:none;fill-opacity:1" /><path
     inkscape:connector-curvature="0"
     id="path3756"
     d="M 1.4603688,5.6140962 1.7848952,5.3977452 1.7308075,4.8839118 1.4333249,4.640517 l 0,-0.3786142 0.5138335,-0.054088 0.6490528,0.2163509 0.027044,0.6760967 -0.1352194,0.3786141 0.7301844,0.1893071 0.1893071,0.3515703 -0.7842721,0.3245264 -0.4327019,-0.3245264 -0.8383599,0 z"
     style="fill:#777985;stroke:#777985;stroke-width:0.20000000000000001;stroke-linecap:butt;stroke-linejoin:miter;stroke-miterlimit:4;stroke-opacity:1;stroke-dasharray:none;fill-opacity:1" /><path
     inkscape:connector-curvature="0"
     id="path3756-1"
     d="m 6.9097076,2.5851831 0.2163511,0.3245264 0.5138334,-0.054088 0.2433948,-0.2974826 0.3786142,0 0.054088,0.5138335 L 8.0996382,3.7210256 7.4235415,3.7480696 7.0449273,3.6128501 6.8556202,4.3430346 6.5040499,4.5323417 6.1795235,3.7480696 l 0.3245264,-0.432702 0,-0.8383599 z"
     style="fill:#777985;stroke:#777985;stroke-width:0.20000002000000000;stroke-linecap:butt;stroke-linejoin:miter;stroke-miterlimit:4;stroke-opacity:1;stroke-dasharray:none;fill-opacity:1" /><path
     inkscape:connector-curvature="0"
     id="path2984-7"
     d="M 5.0977688,8.0345226 4.8002863,7.8993033 4.1512334,7.7370401 4.1782773,7.1420749 5.0436811,6.7634607 5.4222953,7.6288646 z"
     style="fill:#777985;stroke:#777985;stroke-width:0.20000002000000000;stroke-linecap:butt;stroke-linejoin:miter;stroke-miterlimit:4;stroke-opacity:1;stroke-dasharray:none;fill-opacity:1" /></g></svg>