<?xml version="1.0" encoding="utf-8"?>
<!-- Generator: Adobe Illustrator 14.0.0, SVG Export Plug-In . SVG Version: 6.00 Build 43363)  -->
<!DOCTYPE svg PUBLIC "-//W3C//DTD SVG 1.1//EN" "http://www.w3.org/Graphics/SVG/1.1/DTD/svg11.dtd">
<svg version="1.1" id="Livello_1" xmlns="http://www.w3.org/2000/svg" xmlns:xlink="http://www.w3.org/1999/xlink" x="0px" y="0px"
	 width="7.44px" height="8.818px" viewBox="0 0 7.44 8.818" enable-background="new 0 0 7.44 8.818" xml:space="preserve">
<path fill="#058AC7" d="M3.753,4.501l0.342,3.865c0.015,0.066,0,0.144-0.044,0.232c-0.059,0.139-0.18,0.213-0.364,0.221
	C3.393,8.79,3.26,8.624,3.29,8.321l0.354-3.82L0.718,6.698C0.659,6.757,0.57,6.787,0.453,6.787c-0.132,0-0.243-0.065-0.331-0.198
	C0.077,6.507,0.055,6.43,0.055,6.356c0-0.154,0.092-0.275,0.276-0.364l3.268-1.59l-3.268-1.59c-0.184-0.088-0.276-0.21-0.276-0.364
	c0-0.074,0.022-0.151,0.066-0.232C0.21,2.083,0.32,2.017,0.453,2.017c0.118,0,0.206,0.029,0.265,0.088l2.925,2.197L3.29,0.482
	C3.26,0.181,3.393,0.015,3.687-0.015c0.184,0.007,0.305,0.081,0.364,0.221C4.095,0.294,4.11,0.372,4.095,0.438L3.753,4.302
	l2.914-2.197c0.059-0.059,0.147-0.088,0.265-0.088c0.132,0,0.243,0.066,0.331,0.199C7.308,2.297,7.33,2.374,7.33,2.448
	c0,0.154-0.088,0.276-0.265,0.364l-3.268,1.59l3.268,1.59C7.242,6.081,7.33,6.202,7.33,6.356c0,0.074-0.019,0.151-0.056,0.232
	C7.179,6.721,7.065,6.787,6.933,6.787c-0.118,0-0.206-0.029-0.265-0.089L3.753,4.501z"/>
</svg>
