<?xml version="1.0" encoding="utf-8"?>
<!-- Generator: Adobe Illustrator 14.0.0, SVG Export Plug-In . SVG Version: 6.00 Build 43363)  -->
<!DOCTYPE svg PUBLIC "-//W3C//DTD SVG 1.1//EN" "http://www.w3.org/Graphics/SVG/1.1/DTD/svg11.dtd">
<svg version="1.1" id="Livello_1" xmlns="http://www.w3.org/2000/svg" xmlns:xlink="http://www.w3.org/1999/xlink" x="0px" y="0px"
	 width="21.69px" height="11.105px" viewBox="0 0 21.69 11.105" enable-background="new 0 0 21.69 11.105" xml:space="preserve">
<g>
	<path fill="#767885" d="M0.28,15.829c-0.083-0.083-0.087-0.162-0.012-0.237l3.933-3.932c0.075-0.075,0.154-0.071,0.237,0.012
		c0.083,0.084,0.087,0.162,0.012,0.238l-3.933,3.932C0.443,15.916,0.364,15.912,0.28,15.829z"/>
</g>
<g>
	<path fill="#767885" d="M11.562,15.83c-0.083-0.083-0.087-0.162-0.012-0.237l3.933-3.932c0.075-0.075,0.154-0.072,0.237,0.012
		c0.083,0.083,0.087,0.162,0.013,0.238l-3.934,3.932C11.725,15.917,11.645,15.913,11.562,15.83z"/>
</g>
<g>
	<path fill="#767885" d="M0.281,4.551C0.198,4.468,0.194,4.389,0.269,4.314l3.933-3.932C4.276,0.307,4.356,0.31,4.439,0.394
		c0.083,0.083,0.087,0.162,0.012,0.237L0.518,4.564C0.443,4.638,0.364,4.634,0.281,4.551z"/>
</g>
<g>
	<path fill="#767885" d="M11.562,4.551c-0.083-0.083-0.087-0.162-0.012-0.237l3.933-3.932c0.074-0.075,0.154-0.072,0.237,0.012
		c0.083,0.082,0.087,0.162,0.013,0.237l-3.934,3.933C11.725,4.638,11.645,4.634,11.562,4.551z"/>
</g>
<g>
	<path fill="#767885" d="M22.843,4.551c-0.083-0.082-0.087-0.162-0.012-0.236l3.933-3.933c0.074-0.075,0.154-0.071,0.237,0.012
		s0.087,0.163,0.013,0.237L23.08,4.564C23.006,4.639,22.926,4.635,22.843,4.551z"/>
</g>
<g>
	<path fill="#767885" d="M9.918,21.51c-0.084,0.083-0.162,0.087-0.238,0.012L5.747,17.59c-0.075-0.075-0.071-0.154,0.012-0.238
		c0.083-0.083,0.163-0.086,0.237-0.012l3.934,3.932C10.004,21.348,10,21.426,9.918,21.51z"/>
</g>
<g>
	<path fill="#767885" d="M21.199,21.51c-0.084,0.084-0.164,0.088-0.238,0.012l-3.934-3.932c-0.074-0.074-0.07-0.154,0.012-0.238
		c0.084-0.082,0.164-0.086,0.238-0.012l3.934,3.932C21.285,21.348,21.281,21.427,21.199,21.51z"/>
</g>
<g>
	<path fill="#767885" d="M-1.604,10.231c-0.083,0.084-0.162,0.088-0.237,0.012l-3.934-3.932c-0.074-0.074-0.07-0.154,0.012-0.237
		c0.084-0.083,0.164-0.087,0.238-0.013l3.933,3.932C-1.517,10.069-1.521,10.148-1.604,10.231z"/>
</g>
<g>
	<path fill="#767885" d="M9.918,10.231c-0.084,0.083-0.162,0.087-0.238,0.012L5.748,6.311C5.673,6.236,5.676,6.156,5.76,6.073
		C5.843,5.99,5.922,5.986,5.997,6.061L9.93,9.992C10.006,10.069,10.002,10.147,9.918,10.231z"/>
</g>
<g>
	<path fill="#767885" d="M21.199,10.231c-0.084,0.084-0.164,0.088-0.238,0.012l-3.934-3.932c-0.074-0.074-0.07-0.154,0.012-0.237
		c0.084-0.083,0.164-0.087,0.238-0.013l3.934,3.932C21.285,10.069,21.281,10.148,21.199,10.231z"/>
</g>
<g>
	<path fill="#767885" d="M9.916-1.287C9.834-1.204,9.754-1.2,9.68-1.276L5.747-5.208C5.673-5.282,5.676-5.362,5.759-5.445
		c0.084-0.083,0.163-0.087,0.238-0.012l3.931,3.932C10.004-1.45,10-1.371,9.916-1.287z"/>
</g>
<g>
	<path fill="#767885" d="M21.199-1.288c-0.084,0.083-0.162,0.087-0.238,0.012l-3.934-3.932c-0.074-0.075-0.07-0.154,0.014-0.238
		c0.082-0.083,0.162-0.087,0.236-0.012l3.934,3.932C21.287-1.451,21.281-1.371,21.199-1.288z"/>
</g>
</svg>
