<?xml version="1.0" encoding="UTF-8" standalone="no"?>
<!-- Generator: Adobe Illustrator 14.0.0, SVG Export Plug-In . SVG Version: 6.00 Build 43363)  -->

<svg
   xmlns:dc="http://purl.org/dc/elements/1.1/"
   xmlns:cc="http://creativecommons.org/ns#"
   xmlns:rdf="http://www.w3.org/1999/02/22-rdf-syntax-ns#"
   xmlns:svg="http://www.w3.org/2000/svg"
   xmlns="http://www.w3.org/2000/svg"
   xmlns:sodipodi="http://sodipodi.sourceforge.net/DTD/sodipodi-0.dtd"
   xmlns:inkscape="http://www.inkscape.org/namespaces/inkscape"
   version="1.1"
   id="Livello_1"
   x="0px"
   y="0px"
   width="8.378px"
   height="9.861px"
   viewBox="0 0 8.378 9.861"
   enable-background="new 0 0 8.378 9.861"
   xml:space="preserve"
   inkscape:version="0.48.4 r9939"
   sodipodi:docname="cgt_1111-localita-fossilifera-vertebrati_20140601.svg"><metadata
   id="metadata3049"><rdf:RDF><cc:Work
       rdf:about=""><dc:format>image/svg+xml</dc:format><dc:type
         rdf:resource="http://purl.org/dc/dcmitype/StillImage" /><dc:title /></cc:Work></rdf:RDF></metadata><defs
   id="defs3047" /><sodipodi:namedview
   pagecolor="#ffffff"
   bordercolor="#666666"
   borderopacity="1"
   objecttolerance="10"
   gridtolerance="10"
   guidetolerance="10"
   inkscape:pageopacity="0"
   inkscape:pageshadow="2"
   inkscape:window-width="695"
   inkscape:window-height="829"
   id="namedview3045"
   showgrid="false"
   inkscape:zoom="23.932664"
   inkscape:cx="-3.3112097"
   inkscape:cy="4.9305"
   inkscape:window-x="176"
   inkscape:window-y="7"
   inkscape:window-maximized="0"
   inkscape:current-layer="Livello_1" />
<g
   id="g3041">
	<path
   d="M6.348,1.262c-0.433-0.072-0.843-0.108-1.23-0.108c-0.984,0-1.817,0.23-2.5,0.689C1.909,2.321,1.401,3.013,1.092,3.918   C0.941,4.364,0.866,4.725,0.866,5c0,0.983,0.231,1.82,0.693,2.509c0.463,0.689,1.15,1.184,2.062,1.486   c0.485,0.157,0.853,0.229,1.102,0.217c1.083-0.072,1.909-0.395,2.48-0.965C7.669,7.775,7.896,7.25,7.883,6.673   C7.863,5.9,7.61,5.306,7.125,4.893C6.771,4.597,6.377,4.44,5.944,4.42c-0.38-0.013-0.699,0.079-0.955,0.276   c-0.275,0.21-0.423,0.501-0.443,0.875C4.52,6.017,4.737,6.24,5.196,6.24c0.053,0,0.102,0,0.148,0v0.228   C5.285,6.474,5.219,6.476,5.147,6.476c-0.63,0-0.929-0.298-0.896-0.895c0.026-0.453,0.202-0.825,0.526-1.117   s0.713-0.428,1.166-0.408c0.564,0.02,1.053,0.19,1.466,0.512c0.61,0.466,0.925,1.171,0.945,2.115   c0.02,0.734-0.216,1.381-0.708,1.938c-0.643,0.734-1.617,1.138-2.923,1.21c-0.341,0.02-0.774-0.043-1.299-0.188   C2.316,9.343,1.47,8.783,0.886,7.962C0.328,7.175,0.036,6.191,0.01,5.01C0.003,4.624,0.085,4.138,0.256,3.554   c0.348-1.181,0.961-2.073,1.84-2.676c0.853-0.59,1.912-0.885,3.179-0.885c0.4,0,0.82,0.029,1.259,0.088L6.348,1.262z"
   id="path3043" />
</g>
<path
   style="fill:#800000;fill-opacity:1;stroke:#800000;stroke-width:0.20000000000000001;stroke-miterlimit:4;stroke-opacity:1;stroke-dasharray:none;stroke-dashoffset:0"
   d="M 3.8274005,9.716208 C 2.2635821,9.387652 1.1663895,8.5842015 0.5519117,7.3176384 0.06999452,6.3243098 -0.07617236,5.1001381 0.16092003,4.0430196 0.67193929,1.7645492 2.077204,0.41778826 4.285828,0.08983914 4.9096199,-0.00278499 6.3675044,0.01688371 6.4699259,0.11930537 6.500416,0.14979575 6.3659655,1.1206116 6.3212275,1.1929996 6.3012213,1.2253699 6.2092165,1.2264504 6.0035879,1.1967301 5.5726522,1.1344452 4.5863078,1.1441131 4.1840274,1.214565 2.5973086,1.4924491 1.5011788,2.4966114 1.0126118,4.1198924 0.85512374,4.6431517 0.81558824,5.1148126 0.88472379,5.6456014 1.1252371,7.4921442 2.162955,8.6524505 3.9875373,9.1149586 4.4899704,9.2423188 4.889165,9.2467049 5.4568456,9.131103 6.2508676,8.9694094 6.8430411,8.661704 7.2818974,8.1827698 7.7364477,7.686708 7.9422108,7.1187057 7.8909223,6.5015746 7.8141014,5.577222 7.4076285,4.9415648 6.6690951,4.590837 6.3917604,4.4591313 6.294169,4.4348849 5.9811558,4.4199196 5.1370902,4.3795643 4.5899714,4.8079082 4.5367383,5.5507665 c -0.031952,0.4458785 0.1867903,0.6998879 0.6028455,0.70004 0.1641372,4.17e-5 0.1775816,0.00843 0.1775816,0.1105664 l 0,0.1105021 L 5.0467479,6.446623 C 4.7347338,6.4174866 4.5761743,6.3466984 4.4277065,6.1702542 4.1221941,5.8071734 4.299089,4.9650825 4.7742354,4.5206393 5.1959499,4.1261744 5.7002368,4.0042295 6.3583357,4.1375774 c 1.2332869,0.2498957 1.9672704,1.2222827 1.9672704,2.6062552 0,0.7069142 -0.2498761,1.3552462 -0.7201213,1.868436 C 7.1802777,9.0763072 6.7137859,9.3672853 6.0694494,9.5703834 5.3250061,9.805036 4.5042693,9.8584174 3.8274005,9.716208 l 0,0 z"
   id="path3051"
   inkscape:connector-curvature="0" /><path
   style="fill:#800000;fill-opacity:1;stroke:none;stroke-width:0.20000000000000001;stroke-miterlimit:4;stroke-opacity:1;stroke-dasharray:none;stroke-dashoffset:0"
   d="M 4.0511133,9.8230908 C 2.15244,9.5283062 0.81985901,8.4491739 0.25034321,6.7452044 0.04093877,6.1186745 -0.03625102,5.5654711 -0.00811421,4.8928945 0.0169018,4.2949168 0.07803121,3.9650121 0.27448025,3.3677822 0.79009947,1.8002347 1.802908,0.75191905 3.2781111,0.25885006 3.9961547,0.01885258 4.3833968,-0.03383994 5.40909,-0.03111481 5.9949491,-0.02955823 6.3495244,-0.01166115 6.4284161,0.0203354 L 6.549388,0.0693988 6.5213573,0.41284368 C 6.5059403,0.60173836 6.4703053,0.86910509 6.4421689,1.006992 L 6.3910116,1.2576953 5.3255222,1.2581529 C 4.3543737,1.2585707 4.2304356,1.2668144 3.9257616,1.3512678 2.6845129,1.6953328 1.9275533,2.3052101 1.397,3.3886742 0.92075313,4.361237 0.82402461,5.2651577 1.0878202,6.2779372 1.3971944,7.4657051 2.1724598,8.3511418 3.2990031,8.8033468 4.1052861,9.1269965 4.7040105,9.1974872 5.40909,9.0517771 6.4934222,8.8276922 7.2330248,8.3278001 7.6052935,7.5673787 7.8110583,7.1470686 7.8601422,6.7610071 7.7724337,6.2527636 7.6404404,5.4879031 7.2719645,4.9767932 6.6337125,4.6732537 6.3244461,4.5261731 6.2856698,4.5181076 5.8896048,4.5184774 5.5408237,4.5188116 5.4352099,4.5352181 5.2505827,4.6177948 4.8382751,4.8022042 4.5811107,5.2546821 4.6255796,5.7174793 4.6529627,6.002458 4.776768,6.1206325 5.0928857,6.1635303 5.3520403,6.1986986 5.4074541,6.2462733 5.4084503,6.434453 L 5.4090895,6.5553589 5.1063272,6.5272199 C 4.7303766,6.492279 4.4745651,6.3726993 4.3396557,6.1688373 4.0610103,5.747776 4.2332255,4.9734238 4.7119912,4.4946576 5.2662417,3.9404074 6.0763312,3.8596352 6.971339,4.2693835 7.6399637,4.5754898 8.1325156,5.2022638 8.3159699,5.9804304 8.4202813,6.422893 8.409173,7.1551408 8.2925345,7.5252801 7.9632578,8.5702018 7.1550214,9.3247096 6.0093107,9.6567232 5.3647535,9.8435089 4.6007148,9.908421 4.0511128,9.8230908 l 5e-7,0 z"
   id="path3821"
   inkscape:connector-curvature="0" /></svg>