<?xml version="1.0" encoding="utf-8"?>
<!-- Generator: Adobe Illustrator 14.0.0, SVG Export Plug-In . SVG Version: 6.00 Build 43363)  -->
<!DOCTYPE svg PUBLIC "-//W3C//DTD SVG 1.1//EN" "http://www.w3.org/Graphics/SVG/1.1/DTD/svg11.dtd">
<svg version="1.1" id="Livello_1" xmlns="http://www.w3.org/2000/svg" xmlns:xlink="http://www.w3.org/1999/xlink" x="0px" y="0px"
	 width="7.296px" height="7.311px" viewBox="0 0 7.296 7.311" enable-background="new 0 0 7.296 7.311" xml:space="preserve">
<g>
	<path fill="#E53045" d="M6,1.473L1.369,6.105L1.206,5.938l4.633-4.625L6,1.473z M1.392,1.312l4.621,4.631L5.847,6.109L1.232,1.483
		L1.392,1.312z M3.624,1.522c0.571,0,1.04,0.172,1.407,0.516l0.246,0.234c0.355,0.408,0.533,0.886,0.533,1.434
		c0,0.615-0.188,1.105-0.563,1.469L5.071,5.343C4.69,5.711,4.206,5.896,3.616,5.896c-0.597,0-1.088-0.188-1.473-0.563L1.97,5.166
		C1.613,4.817,1.434,4.328,1.434,3.699c0-0.549,0.179-1.023,0.538-1.424l0.221-0.208C2.596,1.704,3.073,1.522,3.624,1.522z
		 M1.842,3.711c0,0.488,0.173,0.904,0.519,1.248c0.346,0.345,0.763,0.517,1.251,0.517c0.484,0,0.899-0.172,1.245-0.517
		c0.346-0.344,0.519-0.76,0.519-1.248c0-0.487-0.173-0.903-0.519-1.247C4.512,2.12,4.096,1.948,3.612,1.948
		c-0.488,0-0.905,0.172-1.251,0.516C2.015,2.808,1.842,3.224,1.842,3.711z"/>
</g>
<g>
	<path fill="#E53045" d="M0,7.311V0.016h7.297v7.295H0z M0.365,0.38v6.566h6.576V0.38H0.365z"/>
</g>
</svg>
