<?xml version="1.0" encoding="utf-8"?>
<!-- Generator: Adobe Illustrator 14.0.0, SVG Export Plug-In . SVG Version: 6.00 Build 43363)  -->
<!DOCTYPE svg PUBLIC "-//W3C//DTD SVG 1.1//EN" "http://www.w3.org/Graphics/SVG/1.1/DTD/svg11.dtd">
<svg version="1.1" id="Livello_1" xmlns="http://www.w3.org/2000/svg" xmlns:xlink="http://www.w3.org/1999/xlink" x="0px" y="0px"
	 width="5.547px" height="5.547px" viewBox="0 0 5.547 5.547" enable-background="new 0 0 5.547 5.547" xml:space="preserve">
<g>
	<path fill="#058AC7" d="M0.007,2.767c0-0.775,0.271-1.433,0.811-1.973s1.198-0.811,1.973-0.811s1.433,0.27,1.974,0.811
		s0.811,1.198,0.811,1.973S5.305,4.199,4.765,4.74C4.224,5.28,3.566,5.551,2.791,5.551S1.358,5.28,0.818,4.74
		C0.277,4.199,0.007,3.542,0.007,2.767z M2.777,4.994V0.533C2.16,0.537,1.637,0.756,1.208,1.19C0.778,1.624,0.564,2.149,0.564,2.767
		s0.214,1.143,0.644,1.576C1.637,4.777,2.16,4.994,2.777,4.994z"/>
</g>
</svg>
