<?xml version="1.0" encoding="utf-8"?>
<!-- Generator: Adobe Illustrator 14.0.0, SVG Export Plug-In . SVG Version: 6.00 Build 43363)  -->
<!DOCTYPE svg PUBLIC "-//W3C//DTD SVG 1.1//EN" "http://www.w3.org/Graphics/SVG/1.1/DTD/svg11.dtd">
<svg version="1.1"
	 id="Livello_1" sodipodi:docname="3320,9.svg" inkscape:version="0.48.0 r9654" xmlns:dc="http://purl.org/dc/elements/1.1/" xmlns:cc="http://creativecommons.org/ns#" xmlns:rdf="http://www.w3.org/1999/02/22-rdf-syntax-ns#" xmlns:svg="http://www.w3.org/2000/svg" xmlns:sodipodi="http://sodipodi.sourceforge.net/DTD/sodipodi-0.dtd" xmlns:inkscape="http://www.inkscape.org/namespaces/inkscape"
	 xmlns="http://www.w3.org/2000/svg" xmlns:xlink="http://www.w3.org/1999/xlink" x="0px" y="0px" width="4.673px"
	 height="15.743px" viewBox="0.496 0 4.673 15.743" enable-background="new 0.496 0 4.673 15.743" xml:space="preserve">
<sodipodi:namedview  id="namedview4814" inkscape:window-maximized="1" bordercolor="#666666" inkscape:cy="7.8136213" pagecolor="#ffffff" inkscape:cx="-0.43976375" inkscape:zoom="42.460815" guidetolerance="10" gridtolerance="10" objecttolerance="10" showgrid="false" borderopacity="1" inkscape:current-layer="Livello_1" inkscape:window-y="-9" inkscape:window-x="-9" inkscape:window-height="1019" inkscape:window-width="1920" inkscape:pageshadow="2" inkscape:pageopacity="0">
	</sodipodi:namedview>
<g id="g4806">
	<path id="path4808" inkscape:connector-curvature="0" fill="#004B95" d="M2.836,4.001C2.244,4.415,1.638,4.67,1.019,4.768
		C1.372,4.156,1.976,2.567,2.833,0c0.576,1.724,1.05,3.034,1.423,3.931c0.155,0.373,0.286,0.65,0.392,0.832
		c-0.416-0.064-0.844-0.21-1.281-0.438C3.183,4.23,3.006,4.123,2.836,4.001l0.338,0.217v11.525H2.499V4.208L2.836,4.001z"/>
</g>
<g id="g4810" transform="matrix(0.9,0,0,0.9,0.49626126,0.99)">
	<path id="path4812" inkscape:connector-curvature="0" fill="#004B95" d="M5.216,9.9c0,0.356-0.069,0.693-0.204,1.012
		c-0.138,0.317-0.323,0.594-0.56,0.829C4.215,11.978,3.94,12.162,3.621,12.3c-0.318,0.136-0.655,0.204-1.013,0.204
		c-0.358,0-0.695-0.068-1.013-0.204C1.277,12.162,1,11.978,0.764,11.741c-0.236-0.235-0.422-0.512-0.559-0.829
		C0.068,10.595,0,10.257,0,9.9s0.068-0.693,0.205-1.012C0.341,8.571,0.528,8.294,0.764,8.06C1,7.823,1.277,7.638,1.595,7.501
		C1.913,7.364,2.25,7.296,2.608,7.296c0.358,0,0.695,0.068,1.013,0.205C3.94,7.638,4.215,7.823,4.452,8.06
		c0.237,0.234,0.422,0.512,0.56,0.827C5.146,9.207,5.216,9.543,5.216,9.9z M5.067,9.9c0-0.337-0.064-0.654-0.193-0.952
		C4.744,8.65,4.568,8.391,4.343,8.167C4.12,7.944,3.859,7.768,3.562,7.639S2.946,7.445,2.608,7.445S1.952,7.51,1.654,7.639
		S1.095,7.944,0.872,8.167c-0.223,0.224-0.4,0.483-0.529,0.781C0.213,9.246,0.149,9.562,0.149,9.9s0.064,0.654,0.193,0.952
		c0.129,0.297,0.306,0.558,0.529,0.781c0.224,0.224,0.484,0.398,0.783,0.527c0.298,0.129,0.616,0.193,0.954,0.193
		s0.657-0.064,0.954-0.193c0.297-0.129,0.559-0.305,0.781-0.527c0.225-0.224,0.4-0.484,0.53-0.781S5.067,10.237,5.067,9.9z"/>
</g>
<path id="path6063" inkscape:connector-curvature="0" fill="#0038F0" d="M2.518,13.963v-1.767H2.465
	c-0.175,0-0.666-0.194-0.928-0.368C1.1,11.54,0.74,11.034,0.583,10.489c-0.047-0.163-0.054-0.24-0.054-0.588
	s0.007-0.426,0.054-0.588c0.195-0.68,0.625-1.199,1.241-1.498c0.228-0.111,0.532-0.211,0.641-0.211h0.053V5.909
	c0-0.933-0.009-1.696-0.02-1.696S2.403,4.254,2.312,4.304C2.098,4.421,1.751,4.569,1.539,4.633c-0.187,0.056-0.48,0.121-0.48,0.106
	c0-0.005,0.036-0.081,0.08-0.167c0.293-0.584,0.85-2.046,1.428-3.748l0.267-0.787l0.158,0.469c0.605,1.792,1.145,3.226,1.471,3.913
	c0.172,0.359,0.182,0.343-0.157,0.255c-0.289-0.075-0.605-0.197-0.89-0.343C3.29,4.266,3.179,4.213,3.17,4.213
	s-0.013,0.76-0.01,1.688l0.006,1.688l0.159,0.032c0.502,0.102,1.002,0.413,1.339,0.831c0.179,0.224,0.38,0.629,0.449,0.907
	c0.074,0.298,0.073,0.781-0.001,1.082c-0.216,0.872-0.931,1.563-1.805,1.743l-0.142,0.029L3.16,13.971l-0.006,1.758H2.836H2.518
	V13.963L2.518,13.963z M3.425,12.04c0.173-0.043,0.48-0.184,0.662-0.305c0.427-0.283,0.76-0.748,0.908-1.27
	c0.047-0.163,0.055-0.239,0.053-0.576C5.046,9.536,5.04,9.481,4.981,9.288C4.734,8.473,4.048,7.855,3.23,7.713L3.154,7.7v2.202
	v2.202l0.064-0.016C3.255,12.081,3.347,12.059,3.425,12.04z M2.518,9.887c0-2.076-0.002-2.191-0.041-2.181
	c-0.022,0.006-0.1,0.024-0.171,0.041C1.762,7.87,1.207,8.29,0.916,8.798c-0.604,1.055-0.234,2.421,0.818,3.022
	c0.199,0.114,0.593,0.258,0.708,0.258h0.076V9.887z"/>
</svg>
