<?xml version="1.0" encoding="utf-8"?>
<!-- Generator: Adobe Illustrator 14.0.0, SVG Export Plug-In . SVG Version: 6.00 Build 43363)  -->
<!DOCTYPE svg PUBLIC "-//W3C//DTD SVG 1.1//EN" "http://www.w3.org/Graphics/SVG/1.1/DTD/svg11.dtd">
<svg version="1.1" id="Livello_1" xmlns="http://www.w3.org/2000/svg" xmlns:xlink="http://www.w3.org/1999/xlink" x="0px" y="0px"
	 width="4.402px" height="4.355px" viewBox="0 0 4.402 4.355" enable-background="new 0 0 4.402 4.355" xml:space="preserve">
<g>
	<path fill="#A95D1A" d="M0.009,2.412C0.002,2.34,0,2.268,0,2.2c0-0.468,0.136-0.894,0.409-1.277l1.263,1.141L0.009,2.412z
		 M0.418,3.497c0.319,0.447,0.747,0.733,1.28,0.858l0.201-1.687L0.418,3.497z M2.979,0.139C2.729,0.046,2.471,0,2.204,0
		C1.939,0,1.682,0.046,1.433,0.139l0.771,1.515L2.979,0.139z M3.985,3.497C3.666,3.944,3.239,4.23,2.705,4.355L2.504,2.668
		L3.985,3.497z M4.394,2.412C4.4,2.34,4.402,2.268,4.402,2.2c0-0.468-0.136-0.894-0.41-1.277L2.731,2.064L4.394,2.412z"/>
</g>
</svg>
