<?xml version="1.0" encoding="UTF-8" standalone="no"?>
<!-- Generator: Adobe Illustrator 14.0.0, SVG Export Plug-In . SVG Version: 6.00 Build 43363)  -->

<svg
   xmlns:dc="http://purl.org/dc/elements/1.1/"
   xmlns:cc="http://creativecommons.org/ns#"
   xmlns:rdf="http://www.w3.org/1999/02/22-rdf-syntax-ns#"
   xmlns:svg="http://www.w3.org/2000/svg"
   xmlns="http://www.w3.org/2000/svg"
   xmlns:sodipodi="http://sodipodi.sourceforge.net/DTD/sodipodi-0.dtd"
   xmlns:inkscape="http://www.inkscape.org/namespaces/inkscape"
   version="1.1"
   id="Livello_1"
   x="0px"
   y="0px"
   width="15.819px"
   height="11.427px"
   viewBox="0 0 15.819 11.427"
   enable-background="new 0 0 15.819 11.427"
   xml:space="preserve"
   inkscape:version="0.48.0 r9654"
   sodipodi:docname="3152,9.svg"><metadata
   id="metadata3348"><rdf:RDF><cc:Work
       rdf:about=""><dc:format>image/svg+xml</dc:format><dc:type
         rdf:resource="http://purl.org/dc/dcmitype/StillImage" /><dc:title></dc:title></cc:Work></rdf:RDF></metadata><defs
   id="defs3346" /><sodipodi:namedview
   pagecolor="#ffffff"
   bordercolor="#666666"
   borderopacity="1"
   objecttolerance="10"
   gridtolerance="10"
   guidetolerance="10"
   inkscape:pageopacity="0"
   inkscape:pageshadow="2"
   inkscape:window-width="1496"
   inkscape:window-height="862"
   id="namedview3344"
   showgrid="true"
   showguides="true"
   inkscape:guide-bbox="true"
   inkscape:zoom="128"
   inkscape:cx="8.5210368"
   inkscape:cy="0.80170942"
   inkscape:window-x="0"
   inkscape:window-y="0"
   inkscape:window-maximized="0"
   inkscape:current-layer="Livello_1"><inkscape:grid
     type="xygrid"
     id="grid3350" /><sodipodi:guide
     orientation="0,1"
     position="-2,5.7993207"
     id="guide3352" /><sodipodi:guide
     orientation="-0.70710678,0.70710678"
     position="7,11"
     id="guide3354" /><sodipodi:guide
     orientation="1,0"
     position="7.5105957,10.191593"
     id="guide3356" /><sodipodi:guide
     orientation="1,0"
     position="8.3282048,8.2711623"
     id="guide3358" /></sodipodi:namedview>
<g
   id="g3340">
	<path
   d="M 7.5105956,11.427 7.5496586,6.359 0.053063,6.427 0.0507817,5.6276793 l 7.4598144,0 0,-5.40704829 0.8176091,-0.002518 0,5.40956599 7.3907958,0 0,0.799321 -7.3907958,-3e-7 0,5.0000003 z"
   id="path3342"
   inkscape:connector-curvature="0"
   sodipodi:nodetypes="ccccccccccccc" />
</g>
<path
   style="fill:#0038f0;fill-opacity:1"
   d="m 7.5233917,8.9142768 0,-2.5005697 -0.9269406,0.011204 C 4.4861591,6.4504181 0.05235161,6.435588 0.04352892,6.427 0.03830002,6.42191 0.04277574,6.2844534 0.04386411,6.0552123 l 0.0020298,-0.427533 3.72117069,0.00686 3.7563271,0 0,-2.7000116 0,-2.70001165 0.3992975,0 0.3992975,0 0,2.70001165 0,2.7000116 3.6982553,0 3.698255,0 0,0.428644 -0.01172,0.3638167 -0.525431,0 c -0.295432,-0.00584 -1.63776,0.010174 -2.997273,0 -1.359512,-0.010174 -2.8050393,0.00935 -3.1840731,0 l -0.6780142,-0.016731 0,2.5022885 0,2.5022885 -0.3992975,0 -0.3992975,0 z"
   id="path6928"
   inkscape:connector-curvature="0"
   sodipodi:nodetypes="ccscsccccccccccccccsscccccc" /></svg>