<?xml version="1.0" encoding="utf-8"?>
<!-- Generator: Adobe Illustrator 14.0.0, SVG Export Plug-In . SVG Version: 6.00 Build 43363)  -->
<!DOCTYPE svg PUBLIC "-//W3C//DTD SVG 1.1//EN" "http://www.w3.org/Graphics/SVG/1.1/DTD/svg11.dtd">
<svg version="1.1" id="Livello_1" xmlns="http://www.w3.org/2000/svg" xmlns:xlink="http://www.w3.org/1999/xlink" x="0px" y="0px"
	 width="17.221px" height="16.739px" viewBox="0 0 17.221 16.739" enable-background="new 0 0 17.221 16.739" xml:space="preserve">
<path fill-rule="evenodd" clip-rule="evenodd" fill="none" d="M8.61,0.75c-4.32,0-7.86,3.42-7.86,7.62
	c0,4.199,3.54,7.619,7.86,7.619c4.38,0,7.86-3.42,7.86-7.619C16.471,4.17,12.99,0.75,8.61,0.75"/>
<path fill="none" stroke="#EA671F" stroke-width="1.5" stroke-linecap="round" stroke-linejoin="round" stroke-miterlimit="10" d="
	M8.61,0.75c-4.32,0-7.86,3.42-7.86,7.62c0,4.199,3.54,7.619,7.86,7.619c4.38,0,7.86-3.42,7.86-7.619
	C16.471,4.17,12.99,0.75,8.61,0.75z"/>
<line fill="none" stroke="#EA671F" stroke-width="1.5" stroke-linejoin="round" stroke-miterlimit="10" x1="4.77" y1="8.43" x2="12.51" y2="8.489"/>
<path fill="none" stroke="#EA671F" stroke-linejoin="round" stroke-miterlimit="10" d="M2.91,13.47l3-3 M1.89,4.59l3.3,2.28
	 M14.311,13.17l-2.82-2.7 M14.91,3.989l-3.3,2.28 M8.61,0.87v3.72 M8.61,15.87v-4.381"/>
</svg>
