<?xml version="1.0" encoding="utf-8"?>
<!-- Generator: Adobe Illustrator 14.0.0, SVG Export Plug-In . SVG Version: 6.00 Build 43363)  -->
<!DOCTYPE svg PUBLIC "-//W3C//DTD SVG 1.1//EN" "http://www.w3.org/Graphics/SVG/1.1/DTD/svg11.dtd">
<svg version="1.1" id="Livello_1" xmlns="http://www.w3.org/2000/svg" xmlns:xlink="http://www.w3.org/1999/xlink" x="0px" y="0px"
	 width="19.74px" height="17.104px" viewBox="0 0 19.74 17.104" enable-background="new 0 0 19.74 17.104" xml:space="preserve">
<g>
	<path fill="#EA661F" d="M0.104,17.044L9.986,0.12l9.65,16.924H0.104z M9.986,1.25L1.032,16.522h17.649L9.986,1.25z M12.218,11.161
		c0,0.677-0.232,1.246-0.695,1.71c-0.464,0.464-1.024,0.696-1.681,0.696c-0.677,0-1.247-0.232-1.71-0.696
		c-0.464-0.464-0.696-1.033-0.696-1.71c0-0.309,0.063-0.608,0.188-0.898C7.75,9.974,7.919,9.718,8.132,9.495
		C8.344,9.273,8.6,9.1,8.9,8.974c0.299-0.125,0.613-0.188,0.942-0.188c0.656,0,1.217,0.237,1.681,0.71
		C11.986,9.969,12.218,10.524,12.218,11.161z"/>
</g>
<g>
	<path fill="none" stroke="#EA661F" stroke-width="0.12" stroke-miterlimit="10" d="M0.104,17.044L9.986,0.12l9.65,16.924H0.104z
		 M9.986,1.25L1.032,16.522h17.649L9.986,1.25z M12.218,11.161c0,0.677-0.232,1.246-0.695,1.71
		c-0.464,0.464-1.024,0.696-1.681,0.696c-0.677,0-1.247-0.232-1.71-0.696c-0.464-0.464-0.696-1.033-0.696-1.71
		c0-0.309,0.063-0.608,0.188-0.898C7.75,9.974,7.919,9.718,8.132,9.495C8.344,9.273,8.6,9.1,8.9,8.974
		c0.299-0.125,0.613-0.188,0.942-0.188c0.656,0,1.217,0.237,1.681,0.71C11.986,9.969,12.218,10.524,12.218,11.161z"/>
</g>
</svg>
