<?xml version="1.0" encoding="utf-8"?>
<!-- Generator: Adobe Illustrator 14.0.0, SVG Export Plug-In . SVG Version: 6.00 Build 43363)  -->
<!DOCTYPE svg PUBLIC "-//W3C//DTD SVG 1.1//EN" "http://www.w3.org/Graphics/SVG/1.1/DTD/svg11.dtd">
<svg version="1.1" id="Livello_1" xmlns="http://www.w3.org/2000/svg" xmlns:xlink="http://www.w3.org/1999/xlink" x="0px" y="0px"
	 width="22.032px" height="22.173px" viewBox="0 0 22.032 22.173" enable-background="new 0 0 22.032 22.173" xml:space="preserve">
<path fill="#10812D" d="M19.173,3.723c-1.906-2.1-4.253-3.281-7.041-3.546V0.075c-0.047,0.001-0.091,0.007-0.139,0.007
	c-0.311,0-0.603-0.03-0.884-0.074c-0.269,0.027-0.541,0.039-0.815,0.014C10.232,0.015,10.173,0.007,10.113,0
	C10.043,0.005,9.972,0.008,9.9,0.011v0.13C7.116,0.429,4.77,1.624,2.862,3.723C0.954,5.824,0,8.302,0,11.158
	c0,3.048,1.074,5.646,3.222,7.793c2.148,2.148,4.746,3.223,7.794,3.223s5.646-1.074,7.794-3.223
	c2.147-2.146,3.222-4.745,3.222-7.793C22.032,8.302,21.079,5.824,19.173,3.723z M17.262,17.385
	c-1.716,1.728-3.798,2.593-6.246,2.593c-2.424,0-4.5-0.865-6.228-2.593c-1.728-1.728-2.592-3.804-2.592-6.228
	c0-2.256,0.738-4.224,2.214-5.904c1.476-1.68,3.306-2.652,5.49-2.916v0.006c0.367-0.08,0.761-0.125,1.183-0.125
	c0.477,0,0.914,0.061,1.32,0.162c2.063,0.289,3.806,1.235,5.219,2.856c1.476,1.692,2.214,3.667,2.214,5.922
	C19.836,13.582,18.978,15.658,17.262,17.385z"/>
</svg>
