<?xml version="1.0" encoding="utf-8"?>
<!-- Generator: Adobe Illustrator 14.0.0, SVG Export Plug-In . SVG Version: 6.00 Build 43363)  -->
<!DOCTYPE svg PUBLIC "-//W3C//DTD SVG 1.1//EN" "http://www.w3.org/Graphics/SVG/1.1/DTD/svg11.dtd">
<svg version="1.1" id="Livello_1" xmlns="http://www.w3.org/2000/svg" xmlns:xlink="http://www.w3.org/1999/xlink" x="0px" y="0px"
	 width="6.191px" height="22.543px" viewBox="7.956 0 6.191 22.543" enable-background="new 7.956 0 6.191 22.543"
	 xml:space="preserve">
<g enable-background="new    ">
	<path fill="#10812D" d="M12.168,8.993c0.041,0.004,0.079,0.014,0.117,0.022c0.004-0.1,0.006-0.199,0.015-0.299
		c-0.094-0.617-0.107-1.248,0.003-1.862c-0.044-0.008-0.088-0.017-0.135-0.021V0.029H9.936v6.768
		c-0.023,0.002-0.045,0.007-0.068,0.01c0.094,0.574,0.097,1.165,0.015,1.741c0.162,0.654,0.204,1.319,0.053,1.955v3.638h-1.98
		l3.011,8.37c0.053,0.011,0.106,0.024,0.158,0.033l3.023-8.403h-1.979V8.993z"/>
</g>
</svg>
