<?xml version="1.0" encoding="utf-8"?>
<!-- Generator: Adobe Illustrator 14.0.0, SVG Export Plug-In . SVG Version: 6.00 Build 43363)  -->
<!DOCTYPE svg PUBLIC "-//W3C//DTD SVG 1.1//EN" "http://www.w3.org/Graphics/SVG/1.1/DTD/svg11.dtd">
<svg version="1.1" id="Livello_1" xmlns="http://www.w3.org/2000/svg" xmlns:xlink="http://www.w3.org/1999/xlink" x="0px" y="0px"
	 width="28.913px" height="28.914px" viewBox="0 0 28.913 28.914" enable-background="new 0 0 28.913 28.914" xml:space="preserve">
<rect fill="none" width="28.913" height="28.914"/>
<polyline fill="none" stroke="#E42522" stroke-linejoin="round" stroke-miterlimit="10" points="12.195,18.05 14.836,14.451 
	17.475,18.05 "/>
<polyline fill="none" stroke="#E42522" stroke-linejoin="round" stroke-miterlimit="10" points="1.096,14.571 3.735,11.031 
	6.375,14.571 "/>
<polyline fill="none" stroke="#E42522" stroke-linejoin="round" stroke-miterlimit="10" points="10.995,8.871 13.635,5.331 
	16.275,8.871 "/>
<polyline fill="none" stroke="#E42522" stroke-linejoin="round" stroke-miterlimit="10" points="1.395,5.15 4.035,1.55 6.676,5.15 
	"/>
<polyline fill="none" stroke="#E42522" stroke-linejoin="round" stroke-miterlimit="10" points="21.816,14.27 24.457,10.67 
	27.096,14.27 "/>
<polyline fill="none" stroke="#E42522" stroke-linejoin="round" stroke-miterlimit="10" points="20.616,5.09 23.256,1.55 
	25.896,5.09 "/>
<polyline fill="none" stroke="#E42522" stroke-linejoin="round" stroke-miterlimit="10" points="8.361,26.754 10.991,23.14 
	13.63,26.74 "/>
<polyline fill="none" stroke="#E42522" stroke-linejoin="round" stroke-miterlimit="10" points="0.495,23.14 3.135,19.6 
	5.775,23.14 "/>
<polyline fill="none" stroke="#E42522" stroke-linejoin="round" stroke-miterlimit="10" points="18.577,23.934 21.217,20.394 
	23.857,23.934 "/>
</svg>
