<?xml version="1.0" encoding="utf-8"?>
<!-- Generator: Adobe Illustrator 14.0.0, SVG Export Plug-In . SVG Version: 6.00 Build 43363)  -->
<!DOCTYPE svg PUBLIC "-//W3C//DTD SVG 1.1//EN" "http://www.w3.org/Graphics/SVG/1.1/DTD/svg11.dtd">
<svg version="1.1" id="Livello_1" xmlns="http://www.w3.org/2000/svg" xmlns:xlink="http://www.w3.org/1999/xlink" x="0px" y="0px"
	 width="4.844px" height="2.724px" viewBox="0 0 4.844 2.724" enable-background="new 0 0 4.844 2.724" xml:space="preserve">
<g>
	<path fill="#39652D" d="M4.844,1.617c0,0.028-0.008,0.05-0.024,0.066C4.78,1.74,4.73,1.782,4.671,1.811
		C4.614,1.839,4.553,1.862,4.491,1.88C4.428,1.898,4.366,1.917,4.303,1.938S4.185,1.988,4.136,2.028
		C4.101,2.146,4.03,2.237,3.925,2.304c-0.105,0.066-0.218,0.1-0.339,0.1c-0.093,0-0.177-0.019-0.254-0.055
		C3.288,2.313,3.246,2.294,3.206,2.294c-0.061,0-0.118,0.022-0.172,0.066C2.979,2.405,2.929,2.449,2.885,2.494L2.873,2.506
		c-0.008,0-0.015,0.001-0.021,0.003S2.84,2.512,2.836,2.512C2.748,2.597,2.649,2.657,2.54,2.693S2.318,2.748,2.201,2.748
		c-0.072,0-0.146-0.007-0.221-0.021C1.906,2.713,1.834,2.695,1.766,2.675C1.738,2.68,1.711,2.683,1.688,2.685
		C1.663,2.687,1.639,2.688,1.615,2.688H1.463c-0.133,0-0.265-0.01-0.396-0.03C0.936,2.637,0.81,2.604,0.689,2.561
		C0.568,2.516,0.456,2.458,0.351,2.385C0.246,2.313,0.153,2.222,0.072,2.113c-0.004-0.004-0.01-0.007-0.018-0.007
		c-0.004,0-0.006-0.002-0.006-0.006C0.016,2.081,0,2.053,0,2.017c0-0.024,0.006-0.048,0.018-0.07
		c0.012-0.021,0.03-0.033,0.054-0.033h0.03l0.048,0.013C0.284,2.095,0.454,2.23,0.659,2.334C0.865,2.437,1.079,2.488,1.3,2.488
		h0.066c0.02-0.005,0.04-0.009,0.058-0.013s0.037-0.008,0.057-0.012L1.427,1.538h0.193l0.055,0.92
		c0.081,0.004,0.171,0.02,0.272,0.048s0.204,0.042,0.309,0.042c0.068,0,0.137-0.011,0.206-0.033c0.068-0.021,0.133-0.065,0.193-0.13
		c0.041-0.016,0.082-0.04,0.124-0.072C2.821,2.28,2.866,2.248,2.912,2.216s0.094-0.061,0.142-0.085s0.099-0.036,0.151-0.036
		c0.028,0,0.06,0.006,0.097,0.019c0.04,0.028,0.087,0.051,0.142,0.069C3.499,2.2,3.552,2.21,3.605,2.21
		c0.112,0,0.205-0.041,0.277-0.121L3.901,2.07c0.017-0.089,0.063-0.161,0.14-0.218L3.956,1.816l0.333-0.895l0.188,0.066L4.179,1.786
		c0.084-0.032,0.172-0.061,0.264-0.085c0.09-0.023,0.168-0.072,0.232-0.145c0.023-0.024,0.049-0.036,0.072-0.036
		c0.024,0,0.047,0.01,0.066,0.03C4.834,1.57,4.844,1.593,4.844,1.617z M0.829,1.901L0.333,1.17l0.163-0.109l0.496,0.731L0.829,1.901
		z M1.191,0.746L1.004,0.686l0.211-0.671l0.188,0.061L1.191,0.746z M2.292,1.369L1.79,0.818l0.145-0.133l0.502,0.544L2.292,1.369z
		 M2.613,2.101L2.467,1.974l0.496-0.599l0.145,0.127L2.613,2.101z M2.588,0.886V0.323h0.194v0.563H2.588z M3.508,1.32L3.314,0.486
		L3.502,0.45l0.187,0.828L3.508,1.32z"/>
</g>
</svg>
