<?xml version="1.0" encoding="utf-8"?>
<!-- Generator: Adobe Illustrator 14.0.0, SVG Export Plug-In . SVG Version: 6.00 Build 43363)  -->
<!DOCTYPE svg PUBLIC "-//W3C//DTD SVG 1.1//EN" "http://www.w3.org/Graphics/SVG/1.1/DTD/svg11.dtd">
<svg version="1.1" id="Livello_1" xmlns="http://www.w3.org/2000/svg" xmlns:xlink="http://www.w3.org/1999/xlink" x="0px" y="0px"
	 width="12.953px" height="8.991px" viewBox="0 0 12.953 8.991" enable-background="new 0 0 12.953 8.991" xml:space="preserve">
<g>
	<path d="M1.472,1.441c-0.242,0-0.44,0.083-0.595,0.25C0.722,1.858,0.645,2.057,0.645,2.289c0,0.237,0.083,0.439,0.247,0.606
		s0.364,0.25,0.6,0.25c0.128,0,0.259-0.03,0.394-0.089c0.134-0.06,0.218-0.129,0.252-0.208c0.04-0.06,0.047-0.126,0.02-0.198
		c-0.02-0.04-0.044-0.06-0.071-0.06c-0.006,0-0.057,0.017-0.151,0.051c-0.094,0.033-0.182,0.044-0.262,0.03
		C1.479,2.644,1.361,2.508,1.32,2.261c-0.013-0.22,0.051-0.397,0.192-0.534s0.315-0.205,0.524-0.205
		c0.498,0,0.773,0.325,0.827,0.974c0,0.481-0.165,0.847-0.494,1.094C2.12,3.777,1.841,3.871,1.532,3.871
		c-0.417,0-0.774-0.153-1.074-0.459C0.16,3.106,0.01,2.742,0.01,2.319c0-0.396,0.129-0.738,0.388-1.023
		c0.259-0.286,0.59-0.449,0.993-0.489l9.576,0.01c0.404,0.041,0.734,0.204,0.994,0.489c0.258,0.286,0.388,0.626,0.388,1.023
		c0,0.43-0.138,0.793-0.413,1.088c-0.297,0.316-0.666,0.468-1.109,0.454C10.51,3.864,10.231,3.77,9.99,3.588
		C9.66,3.346,9.496,2.984,9.496,2.5c0.08-0.651,0.355-0.978,0.826-0.978c0.201,0,0.371,0.07,0.51,0.212
		c0.137,0.141,0.206,0.319,0.206,0.534c-0.04,0.074-0.081,0.138-0.121,0.191c-0.095,0.128-0.171,0.195-0.231,0.201
		c-0.081,0.014-0.166,0.006-0.258-0.024c-0.09-0.03-0.143-0.046-0.156-0.046c-0.026,0-0.05,0.021-0.07,0.061
		c-0.027,0.074-0.017,0.138,0.03,0.191c0.034,0.081,0.116,0.151,0.247,0.212s0.264,0.091,0.398,0.091c0.229,0,0.425-0.083,0.59-0.25
		c0.164-0.167,0.246-0.365,0.246-0.597s-0.076-0.43-0.231-0.597c-0.154-0.167-0.353-0.253-0.595-0.26H9.294H1.472z M1.734,1.25
		c1.075,0,2.917,0,5.524,0c2.439,0,3.676,0,3.709,0c0.276,0.041,0.5,0.161,0.671,0.363c0.171,0.201,0.257,0.437,0.257,0.706
		c0,0.295-0.102,0.549-0.307,0.761c-0.205,0.211-0.456,0.317-0.752,0.317c-0.275,0.014-0.527-0.114-0.756-0.383
		C9.979,2.886,9.945,2.735,9.979,2.56c0.026-0.154,0.091-0.225,0.191-0.212c0.168,0.074,0.278,0.108,0.333,0.102
		c0.222-0.021,0.332-0.107,0.332-0.263c0-0.107-0.04-0.21-0.121-0.307c-0.08-0.098-0.171-0.146-0.271-0.146
		c-0.148,0-0.219,0-0.212,0c-0.168,0-0.302,0.109-0.403,0.329c-0.08,0.18-0.121,0.365-0.121,0.559c0,0.239,0.145,0.488,0.434,0.748
		c0.195,0.173,0.427,0.259,0.695,0.259c0.115,0,0.223-0.017,0.323-0.05c0.618-0.213,0.927-0.63,0.927-1.25
		c0-0.327-0.102-0.61-0.307-0.85c-0.205-0.24-0.477-0.387-0.813-0.44c-0.02,0.006-1.615,0.006-4.788,0c-3.172,0-4.768,0-4.788,0
		C1.082,1.105,0.823,1.261,0.615,1.505C0.407,1.75,0.302,2.029,0.302,2.343c0,0.288,0.084,0.548,0.252,0.778
		C0.722,3.353,0.938,3.511,1.2,3.598c0.094,0.021,0.195,0.03,0.302,0.03c0.302,0,0.555-0.087,0.756-0.261
		c0.282-0.24,0.403-0.555,0.363-0.942C2.607,2.251,2.555,2.093,2.465,1.95c-0.091-0.144-0.2-0.216-0.328-0.216
		c-0.041-0.007-0.115-0.007-0.222,0C1.801,1.747,1.707,1.798,1.633,1.888C1.559,1.977,1.522,2.076,1.522,2.181
		c0,0.199,0.111,0.299,0.333,0.299c0.033,0,0.087-0.022,0.161-0.065C2.09,2.371,2.147,2.348,2.188,2.348
		c0.101-0.02,0.165,0.048,0.191,0.202c0.034,0.182,0,0.332-0.101,0.453C2.13,3.239,1.878,3.37,1.522,3.397
		C1.233,3.39,0.984,3.283,0.776,3.075C0.568,2.866,0.464,2.614,0.464,2.319c0-0.27,0.087-0.503,0.262-0.701
		C0.9,1.42,1.129,1.297,1.411,1.25H1.734z M1.391,1.25c0.047,0,0.564,0,1.552,0H1.391z M4.375,2.167V8.87h0.534V2.167H4.375z
		 M5.938,2.167V8.87l0.504-0.01V2.167H5.938z M7.479,2.167V8.86l0.524,0.01V2.167H7.479z"/>
</g>
</svg>
