<?xml version="1.0" encoding="UTF-8" standalone="no"?>
<!-- Created with Inkscape (http://www.inkscape.org/) -->

<svg
   xmlns:osb="http://www.openswatchbook.org/uri/2009/osb"
   xmlns:dc="http://purl.org/dc/elements/1.1/"
   xmlns:cc="http://creativecommons.org/ns#"
   xmlns:rdf="http://www.w3.org/1999/02/22-rdf-syntax-ns#"
   xmlns:svg="http://www.w3.org/2000/svg"
   xmlns="http://www.w3.org/2000/svg"
   xmlns:sodipodi="http://sodipodi.sourceforge.net/DTD/sodipodi-0.dtd"
   xmlns:inkscape="http://www.inkscape.org/namespaces/inkscape"
   version="1.1"
   width="200"
   height="200"
   id="svg2"
   inkscape:version="0.48.4 r9939"
   sodipodi:docname="carico_scarico.svg"
   sodipodi:version="0.32"
   inkscape:output_extension="org.inkscape.output.svg.inkscape">
  <metadata
     id="metadata2877">
    <rdf:RDF>
      <cc:Work
         rdf:about="">
        <dc:format>image/svg+xml</dc:format>
        <dc:type
           rdf:resource="http://purl.org/dc/dcmitype/StillImage" />
        <dc:title></dc:title>
      </cc:Work>
    </rdf:RDF>
  </metadata>
  <sodipodi:namedview
     pagecolor="#ffffff"
     bordercolor="#666666"
     borderopacity="1"
     objecttolerance="10"
     gridtolerance="10"
     guidetolerance="10"
     inkscape:pageopacity="0"
     inkscape:pageshadow="2"
     inkscape:window-width="1920"
     inkscape:window-height="1030"
     id="namedview2875"
     showgrid="false"
     inkscape:zoom="1.9914447"
     inkscape:cx="31.653832"
     inkscape:cy="118.43692"
     inkscape:window-x="0"
     inkscape:window-y="0"
     inkscape:window-maximized="1"
     inkscape:current-layer="svg2" />
  <defs
     id="defs4">
    <linearGradient
       id="linearGradient3762"
       osb:paint="solid">
      <stop
         style="stop-color:#000000;stop-opacity:1;"
         offset="0"
         id="stop3764" />
    </linearGradient>
    <linearGradient
       id="linearGradient3756"
       osb:paint="solid">
      <stop
         style="stop-color:#000000;stop-opacity:1;"
         offset="0"
         id="stop3758" />
    </linearGradient>
    <inkscape:perspective
       sodipodi:type="inkscape:persp3d"
       inkscape:vp_x="0 : 100 : 1"
       inkscape:vp_y="0 : 1000 : 0"
       inkscape:vp_z="200 : 100 : 1"
       inkscape:persp3d-origin="100 : 66.666667 : 1"
       id="perspective2879" />
  </defs>
  <g
     transform="translate(3.231384,-1.8100802)"
     id="g4931"
     style="fill-opacity:1;fill:#ffffff;stroke:#000000;stroke-opacity:1;stroke-width:0;stroke-miterlimit:4;stroke-dasharray:none">
    <path
       d="M 61.122635,170.37168 C 59.036325,169.34203 57.384693,166.79354 57.384693,164.604 C 57.384693,163.74538 59.595695,156.25492 62.298036,147.95851 L 67.211379,132.87414 L 60.124362,124.58172 C 56.226501,120.0209 52.863439,116.27024 52.650886,116.24694 C 52.438333,116.22364 48.689664,126.96426 44.320509,140.11498 C 39.951354,153.26571 36.012803,164.81938 35.568173,165.7898 C 34.541083,168.03147 32.015376,169.53203 29.269359,169.53203 C 26.114482,169.53203 23.18556,166.48784 23.18556,163.2088 C 23.18556,161.75056 27.020217,148.54425 33.076005,129.14676 L 42.966449,97.466353 L 43.990681,80.316648 C 45.084495,62.00183 45.230386,61.277991 48.483668,58.024708 C 51.660771,54.847608 54.080703,54.0547 59.929351,54.274448 C 68.503045,54.596583 68.328241,54.456352 83.67822,73.325957 C 98.602304,91.672006 98.978083,92.371482 95.813046,95.913776 C 94.401944,97.493069 93.701725,97.813979 91.666813,97.813979 C 88.616273,97.813979 88.343353,97.564314 78.967133,86.196476 C 74.951946,81.32842 71.493661,77.546228 71.282055,77.791604 C 71.070443,78.03698 68.730475,84.014838 66.082123,91.07573 L 61.266943,103.91372 L 71.14127,115.20827 C 81.192998,126.70572 82.801389,129.23386 82.028054,132.32054 C 81.346297,135.04171 70.594681,166.27573 69.794445,167.85985 C 68.999848,169.43279 65.828447,171.28075 63.963023,171.25778 C 63.373592,171.25078 62.09542,170.85177 61.122635,170.37168 L 61.122635,170.37168 z M 122.96833,133.91245 C 108.5761,116.87038 96.800647,102.71905 96.800659,102.46505 C 96.800671,102.21105 97.750537,101.24535 98.911476,100.31902 C 100.34096,99.178437 101.26335,98.804247 101.76914,99.159732 C 102.33983,99.560836 127.25093,128.97933 148.54683,154.40134 L 150.15361,156.31943 L 154.34329,152.59582 C 156.64762,150.54783 158.8428,148.68974 159.22148,148.46674 C 160.05984,147.97301 163.82248,153.20142 163.08898,153.84085 C 162.54526,154.31485 150.81774,163.63024 149.77698,164.41485 C 149.35909,164.72988 140.02925,154.11456 122.96833,133.91245 L 122.96833,133.91245 z M 133.89801,130.07188 C 125.13086,119.54261 117.12505,109.94205 116.10732,108.7373 L 114.25691,106.54684 L 128.65251,94.618331 L 143.04812,82.689824 L 160.64453,103.74624 C 170.32256,115.32726 178.24095,125.0569 178.24095,125.36765 C 178.24095,125.83641 150.50285,149.27428 150.00025,149.23021 C 149.91115,149.22221 142.66516,140.60115 133.89801,130.07188 L 133.89801,130.07188 z"
       id="path4528"
       style="fill:#ffffff;fill-opacity:1;stroke:#000000;stroke-opacity:1;stroke-width:0;stroke-miterlimit:4;stroke-dasharray:none" />
    <path
       d="M 128.35862,163.60509 C 128.36234,169.3925 123.27417,174.08594 116.99631,174.08594 C 110.71845,174.08594 105.63028,169.3925 105.634,163.60509 C 105.63028,157.81768 110.71845,153.12424 116.99631,153.12424 C 123.27417,153.12424 128.36234,157.81768 128.35862,163.60509 z"
       transform="matrix(0.8286394,0,0,0.8670653,25.536487,14.699018)"
       id="path4530"
       style="fill:#ffffff;fill-opacity:1;stroke:#000000;stroke-width:0;stroke-linecap:butt;stroke-linejoin:round;stroke-miterlimit:4;stroke-dasharray:none;stroke-dashoffset:0;stroke-opacity:1" />
    <path
       d="M 69.771699,39.063496 C 69.772647,43.133262 66.473716,46.432962 62.40395,46.432962 C 58.334183,46.432962 55.035252,43.133262 55.0362,39.063496 C 55.035252,34.99373 58.334183,31.69403 62.403949,31.69403 C 66.473716,31.69403 69.772647,34.99373 69.771699,39.063496 z"
       transform="translate(1.9528975,2.1304336)"
       id="path4532"
       style="fill:#ffffff;fill-opacity:1;stroke:#000000;stroke-width:0;stroke-linecap:butt;stroke-linejoin:round;stroke-miterlimit:4;stroke-dasharray:none;stroke-dashoffset:0;stroke-opacity:1" />
  </g>
</svg>
