<?xml version="1.0" encoding="UTF-8" standalone="no"?>
<!-- Created with Inkscape (http://www.inkscape.org/) -->

<svg
   xmlns:dc="http://purl.org/dc/elements/1.1/"
   xmlns:cc="http://creativecommons.org/ns#"
   xmlns:rdf="http://www.w3.org/1999/02/22-rdf-syntax-ns#"
   xmlns:svg="http://www.w3.org/2000/svg"
   xmlns="http://www.w3.org/2000/svg"
   xmlns:sodipodi="http://sodipodi.sourceforge.net/DTD/sodipodi-0.dtd"
   xmlns:inkscape="http://www.inkscape.org/namespaces/inkscape"
   width="502.39999"
   height="445.55988"
   id="svg2"
   sodipodi:version="0.32"
   inkscape:version="0.48.4 r9939"
   version="1.0"
   sodipodi:docname="33.svg"
   inkscape:output_extension="org.inkscape.output.svg.inkscape"
   sodipodi:modified="true">
  <defs
     id="defs4" />
  <sodipodi:namedview
     id="base"
     pagecolor="#ffffff"
     bordercolor="#666666"
     borderopacity="1.0"
     gridtolerance="10000"
     guidetolerance="10"
     objecttolerance="10"
     inkscape:pageopacity="0.0"
     inkscape:pageshadow="2"
     inkscape:zoom="1.2518409"
     inkscape:cx="217.045"
     inkscape:cy="129.813"
     inkscape:document-units="px"
     inkscape:current-layer="layer1"
     showgrid="true"
     showguides="true"
     width="2700px"
     height="1500px"
     inkscape:window-width="1280"
     inkscape:window-height="1001"
     inkscape:window-x="-8"
     inkscape:window-y="-8"
     fit-margin-top="1.2"
     fit-margin-left="1.2"
     fit-margin-right="1.2"
     fit-margin-bottom="1.2"
     inkscape:window-maximized="1" />
  <metadata
     id="metadata7">
    <rdf:RDF>
      <cc:Work
         rdf:about="">
        <dc:format>image/svg+xml</dc:format>
        <dc:type
           rdf:resource="http://purl.org/dc/dcmitype/StillImage" />
        <dc:title></dc:title>
      </cc:Work>
    </rdf:RDF>
  </metadata>
  <g
     inkscape:label="Layer 1"
     inkscape:groupmode="layer"
     id="layer1"
     transform="translate(2002.9419,1318.6117)">
    <path
       style="fill:#ffffff;fill-opacity:1;fill-rule:evenodd;stroke:#000000;stroke-opacity:1;stroke-width:2;stroke-miterlimit:4;stroke-dasharray:none"
       d="m -1751.7419,-1317.4117 c 9.7444,0 19.1235,5.4404 23.7188,13.875 l 222.75,388.65625 c 2.1724,3.97029 3.5312,9.01631 3.5312,13.71875 0,14.99423 -11.9924,27.1503 -26.9687,26.90625 l -446.0625,0 c -14.9763,0.24405 -26.9688,-11.91202 -26.9688,-26.90625 0,-4.70244 1.3589,-9.74846 3.5313,-13.71875 l 222.75,-388.65625 c 4.5953,-8.4346 13.9743,-13.875 23.7187,-13.875 z"
       id="path5908"
       inkscape:connector-curvature="0"
       sodipodi:nodetypes="sccsccsccs" />
    <path
       style="fill:#d40000;fill-opacity:1;fill-rule:evenodd;stroke:none"
       d="m -1751.7417,-1308.3319 c -6.4049,0 -12.3777,3.5624 -15.5625,9.0625 l -223,388.6563 c -3.1667,5.54174 -3.1844,12.57285 0,18.15625 3.1962,5.58341 9.2859,9.08036 15.625,9.0625 l 445.875,0 c 6.3391,0.0179 12.4288,-3.47909 15.625,-9.0625 3.1844,-5.5834 3.1667,-12.61451 0,-18.15625 l -223,-388.6563 c -3.1848,-5.5001 -9.1576,-9.0625 -15.5625,-9.0625 z"
       id="path5916"
       inkscape:connector-curvature="0"
       sodipodi:nodetypes="sccccccccs" />
    <path
       inkscape:connector-curvature="0"
       d="m -1580.7769,-931.68198 -341.93,0 170.965,-298.32952 z"
       style="fill:#ffeb00;fill-opacity:1;fill-rule:evenodd;stroke:none"
       id="path5920"
       sodipodi:nodetypes="cccc" />
    <path
       inkscape:connector-curvature="0"
       d="m -1708.1118,-979.03551 c -4.5313,1.2953 -8.8422,3.6601 -12.395,11.2016 -5.1654,-0.5318 -10.7775,3.994 -10.4548,10.132 -8.8368,1.0808 -14.2226,1.4089 -19.2861,9.9117 40.0879,-0.2082 80.3909,0.3259 120.4788,0 -2.6929,-4.8427 -5.6062,-10.3416 -15.7387,-10.3416 -1.0749,-3.0152 -4.0901,-4.8481 -6.7888,-5.3858 0.5431,-7.4338 -4.0846,-18.5335 -15.7329,-14.443 -8.4014,-17.7754 -25.5373,-17.3454 -34.4817,-3.6605 l -50.1069,-40.30299 21.2263,-38.9053 c 2.9079,-6.1385 5.2781,-6.9984 -1.618,-17.6681 l -14.1153,-20.3719 c -3.3378,-4.0905 -2.8001,-5.3917 -12.7177,-5.3917 l -36.8519,0 c -4.4128,0.2218 -7.2188,3.8868 -8.5141,9.8099 l -5.8158,25.9672 -5.9289,-4.8427 c -3.3378,-2.5911 -6.5684,1.0749 -3.451,4.1977 l 8.4123,6.7889 c -0.1132,3.9886 3.1174,6.5738 5.8157,6.6869 -8.0841,7.5415 -9.6966,7.3265 -9.5948,14.7603 l 0,41.81319 -9.374,37.3896 c -3.9887,15.0879 14.4375,18.6466 18.2166,5.6121 l 11.7447,-45.69999 -0.1086,-29.3051 24.0324,29.6332 -19.0766,39.22799 c -6.138,12.7119 9.6967,20.7906 17.0286,8.2937 7.1056,-13.7926 14.3303,-27.5852 21.5491,-41.3778 3.6659,-6.78879 2.8001,-10.99249 -0.2173,-14.22849 -1.7257,-1.5048 -3.1228,-3.6659 -4.7408,-5.0631 l 1.2899,-2.3706 47.3121,37.93269 z m -82.7611,-106.57899 14.5448,0.2128 -18.8557,18.6411 4.3109,-18.8561 z m 24.2415,52.5907 11.2074,-19.9365 -23.4893,10.0249 12.2819,9.9116 z"
       style="fill:#000000;fill-opacity:1;fill-rule:evenodd;stroke:none"
       id="path10079" />
    <path
       inkscape:connector-curvature="0"
       d="m -1719.7524,-1110.5077 c 8.6218,0 15.6256,7.1169 15.6256,15.631 0,8.5087 -7.0038,15.5125 -15.6256,15.5125 -8.5141,0 -15.5124,-7.0038 -15.5124,-15.5125 0,-8.5141 6.9983,-15.631 15.5124,-15.631"
       style="fill:#000000;fill-opacity:1;fill-rule:evenodd;stroke:none"
       id="path10083" />
  </g>
</svg>
